<svg width="24" height="24" viewBox="0 0 24 24" fill="none" xmlns="http://www.w3.org/2000/svg">
<g clip-path="url(#clip0_288_1232)">
<rect width="24" height="24" rx="12" fill="white"/>
<g clip-path="url(#clip1_288_1232)">
<rect width="32" height="24" transform="translate(-4)" fill="white"/>
<path fill-rule="evenodd" clip-rule="evenodd" d="M-4 0V24H28V0H-4Z" fill="#2E42A5"/>
<mask id="mask0_288_1232" style="mask-type:luminance" maskUnits="userSpaceOnUse" x="-4" y="0" width="32" height="24">
<path fill-rule="evenodd" clip-rule="evenodd" d="M-4 0V24H28V0H-4Z" fill="white"/>
</mask>
<g mask="url(#mask0_288_1232)">
<path fill-rule="evenodd" clip-rule="evenodd" d="M-4 12V24H28V12H-4Z" fill="#E31D1C"/>
<rect x="6" y="8" width="12" height="8" fill="white"/>
<mask id="mask1_288_1232" style="mask-type:luminance" maskUnits="userSpaceOnUse" x="6" y="8" width="12" height="8">
<rect x="6" y="8" width="12" height="8" fill="white"/>
</mask>
<g mask="url(#mask1_288_1232)">
<path fill-rule="evenodd" clip-rule="evenodd" d="M6 14.578C6 14.578 8.88034 13.8207 12 13.8669C15.1197 13.9131 18 14.7558 18 14.7558V16.0002H6V14.578Z" fill="#279E19"/>
<path d="M12.0736 8.90082C12.0736 8.90082 11.1425 8.48145 10.4926 8.48145C9.84263 8.48145 9.48157 9.12156 9.48157 9.12156" stroke="#026A16" stroke-width="0.5"/>
<path d="M12.2805 9.32107C12.2805 9.32107 11.4237 9.01465 10.8257 9.01465C10.2276 9.01465 9.89539 9.48235 9.89539 9.48235" stroke="#026A16" stroke-width="0.5"/>
<path d="M12.2804 9.67654C12.2804 9.67654 11.6466 9.37012 11.2042 9.37012C10.7618 9.37012 10.516 9.83782 10.516 9.83782" stroke="#026A16" stroke-width="0.5"/>
<path d="M12.0199 10.032C12.0199 10.032 11.6283 9.72559 11.355 9.72559C11.0817 9.72559 10.9298 10.1933 10.9298 10.1933" stroke="#026A16" stroke-width="0.5"/>
<path d="M11.9864 10.2745C11.9864 10.2745 11.8298 10.0811 11.7205 10.0811C11.6113 10.0811 11.5505 10.3763 11.5505 10.3763" stroke="#026A16" stroke-width="0.5"/>
<path d="M11.9263 8.90082C11.9263 8.90082 12.8574 8.48145 13.5073 8.48145C14.1573 8.48145 14.5183 9.12156 14.5183 9.12156" stroke="#026A16" stroke-width="0.5"/>
<path d="M11.7194 9.32107C11.7194 9.32107 12.5761 9.01465 13.1742 9.01465C13.7723 9.01465 14.1045 9.48235 14.1045 9.48235" stroke="#026A16" stroke-width="0.5"/>
<path d="M11.7195 9.67654C11.7195 9.67654 12.3533 9.37012 12.7957 9.37012C13.2381 9.37012 13.4839 9.83782 13.4839 9.83782" stroke="#026A16" stroke-width="0.5"/>
<path d="M11.98 10.032C11.98 10.032 12.3716 9.72559 12.6449 9.72559C12.9182 9.72559 13.0701 10.1933 13.0701 10.1933" stroke="#026A16" stroke-width="0.5"/>
<path d="M12.0135 10.2745C12.0135 10.2745 12.17 10.0811 12.2793 10.0811C12.3886 10.0811 12.4493 10.3763 12.4493 10.3763" stroke="#026A16" stroke-width="0.5"/>
<path fill-rule="evenodd" clip-rule="evenodd" d="M11.8876 10.3975C11.8876 10.3975 11.7733 11.7349 11.7733 12.2792C11.7733 12.8235 11.8876 13.9979 11.8876 13.9979H12.1814C12.1814 13.9979 12.1814 12.7336 12.1814 12.2792C12.1814 11.8248 12.009 10.3975 12.009 10.3975H11.8876Z" fill="#FECA00"/>
<path fill-rule="evenodd" clip-rule="evenodd" d="M10.7321 11.9189C10.7321 11.9189 10.0079 12.3066 10.0079 13.4541L10.7321 14.8396H12.039V12.5579L10.7321 11.9189Z" fill="#C51918"/>
<path fill-rule="evenodd" clip-rule="evenodd" d="M9.65895 10.8262C9.65895 10.8262 7.96814 11.3271 7.96814 13.1749L10.1588 13.3618C10.1588 13.3618 10.0391 12.2882 10.7132 11.7916L9.65895 10.8262Z" fill="#0A328C"/>
<path d="M8.96094 10.1211L11.8614 12.7792" stroke="#FFD018" stroke-width="0.5"/>
<path d="M7.95361 10.7227L11.9991 13.3496" stroke="#FFD018" stroke-width="0.5"/>
<path d="M7.2572 11.7393L11.8168 13.8245" stroke="#FFD018" stroke-width="0.5"/>
<path fill-rule="evenodd" clip-rule="evenodd" d="M7.97986 13.1602L11.0055 13.4984L10.8352 13.9207H10.3555L10.6822 14.1593L11.4189 14.3317V13.9207H12.0641V14.7939H10.6822L10.1522 14.1593C10.1522 14.1593 9.70702 14.5981 9.27257 14.5981C8.83813 14.5981 8.40981 14.4556 8.40981 13.977C8.40981 13.4984 8.40981 13.6441 8.40981 13.6441L7.97986 13.4984V13.1602Z" fill="#FECA00"/>
<path fill-rule="evenodd" clip-rule="evenodd" d="M12.8542 11.9189C12.8542 11.9189 13.5784 12.3066 13.5784 13.4541L12.8542 14.8396H11.5473V12.5579L12.8542 11.9189Z" fill="#C51918"/>
<path fill-rule="evenodd" clip-rule="evenodd" d="M13.9274 10.8262C13.9274 10.8262 15.6182 11.3271 15.6182 13.1749L13.4276 13.3618C13.4276 13.3618 13.5472 12.2882 12.8731 11.7916L13.9274 10.8262Z" fill="#0A328C"/>
<path d="M14.6254 10.1211L11.7249 12.7792" stroke="#FFD018" stroke-width="0.5"/>
<path d="M15.6327 10.7227L11.5872 13.3496" stroke="#FFD018" stroke-width="0.5"/>
<path d="M16.3291 11.7393L11.7695 13.8245" stroke="#FFD018" stroke-width="0.5"/>
<path fill-rule="evenodd" clip-rule="evenodd" d="M15.6064 13.1602L12.5808 13.4984L12.7511 13.9207H13.2308L12.9041 14.1593L12.1674 14.3317V13.9207H11.5222V14.7939H12.9041L13.4341 14.1593C13.4341 14.1593 13.8793 14.5981 14.3137 14.5981C14.7482 14.5981 15.1765 14.4556 15.1765 13.977C15.1765 13.4984 15.1765 13.6441 15.1765 13.6441L15.6064 13.4984V13.1602Z" fill="#FECA00"/>
</g>
</g>
</g>
</g>
<defs>
<clipPath id="clip0_288_1232">
<rect width="24" height="24" rx="12" fill="white"/>
</clipPath>
<clipPath id="clip1_288_1232">
<rect width="32" height="24" fill="white" transform="translate(-4)"/>
</clipPath>
</defs>
</svg>
