<svg width="24" height="24" viewBox="0 0 24 24" fill="none" xmlns="http://www.w3.org/2000/svg">
<g clip-path="url(#clip0_290_820)">
<rect width="24" height="24" rx="12" fill="white"/>
<g clip-path="url(#clip1_290_820)">
<rect width="32" height="24" transform="translate(-4)" fill="white"/>
<path fill-rule="evenodd" clip-rule="evenodd" d="M-4 0V24H28V0H-4Z" fill="#F7FCFF"/>
<mask id="mask0_290_820" style="mask-type:luminance" maskUnits="userSpaceOnUse" x="-4" y="0" width="32" height="24">
<path fill-rule="evenodd" clip-rule="evenodd" d="M-4 0V24H28V0H-4Z" fill="white"/>
</mask>
<g mask="url(#mask0_290_820)">
<path fill-rule="evenodd" clip-rule="evenodd" d="M-4 0V8H28V0H-4Z" fill="#2A9F34"/>
<path fill-rule="evenodd" clip-rule="evenodd" d="M-4 16V24H28V16H-4Z" fill="#E31D1C"/>
<path d="M-2.82812 17.9834H-2.81836V16.6865H-2.45996V17.9902H-2.4043V16.7832H-2.0459V18.625H-2.60742V18.6182H-3.18652V17.7305H-3.6416V17.9834H-3.43457V18.6182H-4V17.0967H-3.18652V16.6865H-2.82812V17.9834ZM1.17188 17.9834H1.18164V16.6865H1.54004V17.9902H1.5957V16.7832H1.9541V18.625H1.39258V18.6182H0.813477V17.7305H0.358398V17.9834H0.56543V18.6182H0V17.0967H0.813477V16.6865H1.17188V17.9834ZM5.24316 17.9834H5.25293V16.6865H5.61133V17.9902H5.66699V16.7832H6.02539V18.625H5.46387V18.6182H4.88477V17.7305H4.42969V17.9834H4.63672V18.6182H4.07129V17.0967H4.88477V16.6865H5.24316V17.9834ZM9.24316 17.9834H9.25195V16.6865H9.61133V17.9902H9.66602V16.7832H10.0254V18.625H9.46387V18.6182H8.88379V17.7305H8.42969V17.9834H8.63672V18.6182H8.07031V17.0967H8.88379V16.6865H9.24316V17.9834ZM13.2422 17.9834H13.252V16.6865H13.6104V17.9902H13.666V16.7832H14.0244V18.625H13.4639V18.6182H12.8838V17.7305H12.4287V17.9834H12.6357V18.6182H12.0703V17.0967H12.8838V16.6865H13.2422V17.9834ZM17.3135 17.9834H17.3232V16.6865H17.6816V17.9902H17.7373V16.7832H18.0957V18.625H17.5342V18.6182H16.9551V17.7305H16.5V17.9834H16.707V18.6182H16.1416V17.0967H16.9551V16.6865H17.3135V17.9834ZM21.3848 17.9834H21.3945V16.6865H21.7529V17.9902H21.8086V16.7832H22.167V18.625H21.6055V18.6182H21.0264V17.7305H20.5713V17.9834H20.7783V18.6182H20.2129V17.0967H21.0264V16.6865H21.3848V17.9834ZM25.4561 17.9834H25.4658V16.6865H25.8242V17.9902H25.8799V16.7832H26.2383V18.625H25.6768V18.6182H25.0977V17.7305H24.6426V17.9834H24.8496V18.6182H24.2842V17.0967H25.0977V16.6865H25.4561V17.9834ZM29.4561 17.9834H29.4648V16.6865H29.8242V17.9902H29.8799V16.7832H30.2383V18.625H29.6768V18.6182H29.0977V17.7305H28.6426V17.9834H28.8496V18.6182H28.2842V17.0967H29.0977V16.6865H29.4561V17.9834ZM33.6699 17.9834H33.6797V16.6865H34.0381V17.9902H34.0938V16.7832H34.4521V18.625H33.8906V18.6182H33.3115V17.7305H32.8564V17.9834H33.0635V18.6182H32.498V17.0967H33.3115V16.6865H33.6699V17.9834ZM-0.816406 17.9902H-0.408203V17.7119H-0.625977V17.0781H-0.0498047V18.624H-1.1748V17.7109H-1.5752V18.3389H-1.93359V17.0771H-0.816406V17.9902ZM3.18359 17.9902H3.5918V17.7119H3.37305V17.0781H3.9502V18.624H2.8252V17.7109H2.4248V18.3389H2.06641V17.0771H3.18359V17.9902ZM7.25488 17.9902H7.66309V17.7119H7.44434V17.0781H8.02148V18.624H6.89648V17.7109H6.49609V18.3389H6.1377V17.0771H7.25488V17.9902ZM11.2549 17.9902H11.6631V17.7119H11.4443V17.0781H12.0215V18.624H10.8955V17.7109H10.4961V18.3389H10.1377V17.0771H11.2549V17.9902ZM15.2549 17.9902H15.6621V17.7119H15.4443V17.0781H16.0215V18.624H14.8955V17.7109H14.4961V18.3389H14.1367V17.0771H15.2549V17.9902ZM19.3252 17.9902H19.7334V17.7119H19.5156V17.0781H20.0928V18.624H18.9668V17.7109H18.5674V18.3389H18.208V17.0771H19.3252V17.9902ZM23.3965 17.9902H23.8047V17.7119H23.5859V17.0781H24.1631V18.624H23.0381V17.7109H22.6377V18.3389H22.2793V17.0771H23.3965V17.9902ZM27.4678 17.9902H27.876V17.7119H27.6572V17.0781H28.2344V18.624H27.1094V17.7109H26.709V18.3389H26.3506V17.0771H27.4678V17.9902ZM31.4678 17.9902H31.876V17.7119H31.6572V17.0781H32.2344V18.624H31.1094V17.7109H30.709V18.3389H30.3506V17.0771H31.4678V17.9902ZM35.6816 17.9902H36.0898V17.7119H35.8711V17.0781H36.4482V18.624H35.3232V17.7109H34.9229V18.3389H34.5645V17.0771H35.6816V17.9902ZM0.600586 17.0254H-1.73047V16.3916H0.600586V17.0254ZM4.60059 17.0254H2.26953V16.3916H4.60059V17.0254ZM8.67188 17.0254H6.34082V16.3916H8.67188V17.0254ZM12.6709 17.0254H10.3408V16.3916H12.6709V17.0254ZM16.6709 17.0254H14.3408V16.3916H16.6709V17.0254ZM20.7422 17.0254H18.4111V16.3916H20.7422V17.0254ZM24.8135 17.0254H22.4824V16.3916H24.8135V17.0254ZM28.8848 17.0254H26.5537V16.3916H28.8848V17.0254ZM32.8848 17.0254H30.5537V16.3916H32.8848V17.0254ZM37.0986 17.0254H34.7676V16.3916H37.0986V17.0254Z" fill="#F7FCFF"/>
<path d="M-6.94421 6.9834H-6.93445V5.68652H-6.57605V6.99023H-6.52039V5.7832H-6.16199V7.625H-6.72351V7.61816H-7.30261V6.73047H-7.75769V6.9834H-7.55066V7.61816H-8.11609V6.09668H-7.30261V5.68652H-6.94421V6.9834ZM-2.94421 6.9834H-2.93445V5.68652H-2.57605V6.99023H-2.52039V5.7832H-2.16199V7.625H-2.72351V7.61816H-3.30261V6.73047H-3.75769V6.9834H-3.55066V7.61816H-4.11609V6.09668H-3.30261V5.68652H-2.94421V6.9834ZM1.12708 6.9834H1.13684V5.68652H1.49524V6.99023H1.5509V5.7832H1.9093V7.625H1.34778V7.61816H0.768677V6.73047H0.313599V6.9834H0.52063V7.61816H-0.0447998V6.09668H0.768677V5.68652H1.12708V6.9834ZM5.12708 6.9834H5.13586V5.68652H5.49524V6.99023H5.54993V5.7832H5.9093V7.625H5.34778V7.61816H4.7677V6.73047H4.3136V6.9834H4.52063V7.61816H3.95422V6.09668H4.7677V5.68652H5.12708V6.9834ZM9.1261 6.9834H9.13586V5.68652H9.49426V6.99023H9.54993V5.7832H9.90833V7.625H9.34778V7.61816H8.7677V6.73047H8.31262V6.9834H8.51965V7.61816H7.95422V6.09668H8.7677V5.68652H9.1261V6.9834ZM13.1974 6.9834H13.2072V5.68652H13.5656V6.99023H13.6212V5.7832H13.9796V7.625H13.4181V7.61816H12.839V6.73047H12.3839V6.9834H12.5909V7.61816H12.0255V6.09668H12.839V5.68652H13.1974V6.9834ZM17.2687 6.9834H17.2784V5.68652H17.6368V6.99023H17.6925V5.7832H18.0509V7.625H17.4894V7.61816H16.9103V6.73047H16.4552V6.9834H16.6622V7.61816H16.0968V6.09668H16.9103V5.68652H17.2687V6.9834ZM21.34 6.9834H21.3497V5.68652H21.7081V6.99023H21.7638V5.7832H22.1222V7.625H21.5607V7.61816H20.9816V6.73047H20.5265V6.9834H20.7335V7.61816H20.1681V6.09668H20.9816V5.68652H21.34V6.9834ZM25.34 6.9834H25.3488V5.68652H25.7081V6.99023H25.7638V5.7832H26.1222V7.625H25.5607V7.61816H24.9816V6.73047H24.5265V6.9834H24.7335V7.61816H24.1681V6.09668H24.9816V5.68652H25.34V6.9834ZM29.5538 6.9834H29.5636V5.68652H29.922V6.99023H29.9777V5.7832H30.3361V7.625H29.7745V7.61816H29.1954V6.73047H28.7404V6.9834H28.9474V7.61816H28.382V6.09668H29.1954V5.68652H29.5538V6.9834ZM-4.9325 6.99023H-4.52429V6.71191H-4.74207V6.07812H-4.16589V7.62402H-5.29089V6.71094H-5.69128V7.33887H-6.04968V6.07715H-4.9325V6.99023ZM-0.932495 6.99023H-0.524292V6.71191H-0.743042V6.07812H-0.165894V7.62402H-1.29089V6.71094H-1.69128V7.33887H-2.04968V6.07715H-0.932495V6.99023ZM3.13879 6.99023H3.547V6.71191H3.32825V6.07812H3.9054V7.62402H2.7804V6.71094H2.38V7.33887H2.02161V6.07715H3.13879V6.99023ZM7.13879 6.99023H7.547V6.71191H7.32825V6.07812H7.9054V7.62402H6.77942V6.71094H6.38V7.33887H6.02161V6.07715H7.13879V6.99023ZM11.1388 6.99023H11.546V6.71191H11.3282V6.07812H11.9054V7.62402H10.7794V6.71094H10.38V7.33887H10.0206V6.07715H11.1388V6.99023ZM15.2091 6.99023H15.6173V6.71191H15.3995V6.07812H15.9767V7.62402H14.8507V6.71094H14.4513V7.33887H14.0919V6.07715H15.2091V6.99023ZM19.2804 6.99023H19.6886V6.71191H19.4698V6.07812H20.047V7.62402H18.922V6.71094H18.5216V7.33887H18.1632V6.07715H19.2804V6.99023ZM23.3517 6.99023H23.7599V6.71191H23.5411V6.07812H24.1183V7.62402H22.9933V6.71094H22.5929V7.33887H22.2345V6.07715H23.3517V6.99023ZM27.3517 6.99023H27.7599V6.71191H27.5411V6.07812H28.1183V7.62402H26.9933V6.71094H26.5929V7.33887H26.2345V6.07715H27.3517V6.99023ZM31.5656 6.99023H31.9738V6.71191H31.755V6.07812H32.3322V7.62402H31.2072V6.71094H30.8068V7.33887H30.4484V6.07715H31.5656V6.99023ZM-3.5155 6.02539H-5.84656V5.3916H-3.5155V6.02539ZM0.484497 6.02539H-1.84656V5.3916H0.484497V6.02539ZM4.55579 6.02539H2.22473V5.3916H4.55579V6.02539ZM8.55481 6.02539H6.22473V5.3916H8.55481V6.02539ZM12.5548 6.02539H10.2247V5.3916H12.5548V6.02539ZM16.6261 6.02539H14.295V5.3916H16.6261V6.02539ZM20.6974 6.02539H18.3663V5.3916H20.6974V6.02539ZM24.7687 6.02539H22.4376V5.3916H24.7687V6.02539ZM28.7687 6.02539H26.4376V5.3916H28.7687V6.02539ZM32.9825 6.02539H30.6515V5.3916H32.9825V6.02539Z" fill="#F7FCFF"/>
<path d="M12.5355 8.81055C12.5355 8.81055 14.0124 10.4022 13.9193 12.1777C13.8638 13.2353 13.0489 14.3524 12.3998 15.084C12.7154 15.1544 13.1387 15.2405 13.7211 15.3555C13.7472 15.491 13.1424 15.3301 12.0385 15.4707C11.7793 15.7359 11.6006 15.8964 11.5961 15.9004C11.5961 15.9004 11.565 15.864 11.5209 15.8105C11.4785 15.862 11.4493 15.8982 11.4476 15.9004C11.4476 15.9004 11.2661 15.7398 11.0033 15.4707C9.90037 15.3305 9.29649 15.491 9.32263 15.3555C9.90448 15.2406 10.3274 15.1544 10.6429 15.084C9.99387 14.3524 9.1789 13.2352 9.12341 12.1777C9.03094 10.4132 10.489 8.83022 10.5072 8.81055C10.4977 8.82372 9.97111 9.56082 10.0804 11.6484C10.1183 12.371 10.4037 13.4452 10.7621 14.0801V8.9248H12.2621V14.125C12.6209 13.5321 12.8984 12.5241 12.9369 11.791C13.0473 9.68402 12.5355 8.81055 12.5355 8.81055ZM9.8988 8.84961C9.8988 8.84961 8.48681 9.60614 8.48669 11.7158C8.48669 13.8166 9.21382 14.7314 9.22009 14.7393C9.22009 14.7393 7.45669 13.5688 7.45642 11.791C7.45642 10.013 9.8988 8.84961 9.8988 8.84961ZM13.2543 8.84961C13.2543 8.84961 15.6936 9.91444 15.6937 11.6924C15.6937 13.4624 13.9486 14.728 13.933 14.7393C13.9448 14.7244 14.6654 13.8084 14.6654 11.7158C14.6653 9.60614 13.2543 8.84961 13.2543 8.84961ZM12.348 8.5498C12.3346 8.55606 11.8621 8.77532 11.4427 8.77539C11.0172 8.77539 10.6058 8.5498 10.6058 8.5498V8.25C10.6058 8.25 11.0337 8.47461 11.4711 8.47461C11.9012 8.47459 12.3339 8.25717 12.348 8.25V8.5498Z" fill="#E31D1C"/>
</g>
</g>
</g>
<defs>
<clipPath id="clip0_290_820">
<rect width="24" height="24" rx="12" fill="white"/>
</clipPath>
<clipPath id="clip1_290_820">
<rect width="32" height="24" fill="white" transform="translate(-4)"/>
</clipPath>
</defs>
</svg>
