<svg width="24" height="24" viewBox="0 0 24 24" fill="none" xmlns="http://www.w3.org/2000/svg">
<g clip-path="url(#clip0_290_788)">
<rect width="24" height="24" rx="12" fill="white"/>
<g clip-path="url(#clip1_290_788)">
<rect width="32" height="24" transform="translate(-4)" fill="white"/>
<path fill-rule="evenodd" clip-rule="evenodd" d="M-4 0V24H28V0H-4Z" fill="#F7FCFF"/>
<mask id="mask0_290_788" style="mask-type:luminance" maskUnits="userSpaceOnUse" x="-4" y="0" width="32" height="24">
<path fill-rule="evenodd" clip-rule="evenodd" d="M-4 0V24H28V0H-4Z" fill="white"/>
</mask>
<g mask="url(#mask0_290_788)">
<path fill-rule="evenodd" clip-rule="evenodd" d="M-4 0V8H28V0H-4Z" fill="#BF2714"/>
<path fill-rule="evenodd" clip-rule="evenodd" d="M-4 16V24H28V16H-4Z" fill="#272727"/>
<path d="M9.36914 9.52051L6.33398 12.2002H9.4707C9.4707 12.2002 9.64948 11.2755 10.4434 11.2754C11.2374 11.2754 11.4238 12.2002 11.4238 12.2002V14.126H2.50684C2.0895 15.0001 1 15 1 15C1 15 2.24605 14.1167 1.33691 12.8115L2.08984 12.2354C2.09063 12.2491 2.12583 12.8115 2.625 12.8115C3.1293 12.8116 3.92632 13.0274 3.92969 13.0283V12.2354L4.58301 11.9434V13.0283H10.6123V12.2354C10.6123 12.2354 10.6669 12.0205 10.4434 12.0205C10.22 12.0206 10.1934 12.2354 10.1934 12.2354V12.6064H5.4082V11.9756L8.77832 9L9.36914 9.52051ZM3.49219 14.4658C3.64844 14.466 3.77539 14.5778 3.77539 14.7158C3.77525 14.8537 3.64836 14.9656 3.49219 14.9658C3.33583 14.9658 3.20912 14.8538 3.20898 14.7158C3.20898 14.5777 3.33575 14.4658 3.49219 14.4658ZM12.8105 9.47754V12.8857H13.4463L13.9355 14.1035H11.9893V9.21484L12.8105 9.47754ZM21.875 9.47754V12.8857H22.5107L23 14.1035H21.0537V9.21484L21.875 9.47754ZM20.0967 14.0625H15.7656C15.7658 12.304 17.0098 12.2178 17.0098 12.2178V11.8154L17.6562 11.3994V12.8818H18.2275V10.7471L19.0781 10.2559V12.8818H19.5947V9.6084L20.1016 9.26465L20.0967 14.0625ZM18.9199 9.42285C18.7242 9.80406 17.9141 9.6416 17.9141 9.6416C17.749 9.85881 17.3327 9.75055 17.1348 9.68262L18.9199 9.42285Z" fill="#009C4E"/>
</g>
</g>
</g>
<defs>
<clipPath id="clip0_290_788">
<rect width="24" height="24" rx="12" fill="white"/>
</clipPath>
<clipPath id="clip1_290_788">
<rect width="32" height="24" fill="white" transform="translate(-4)"/>
</clipPath>
</defs>
</svg>
