<svg width="15" height="15" viewBox="0 0 15 15" fill="none" xmlns="http://www.w3.org/2000/svg">
<g clip-path="url(#clip0_1414_4939)">
<rect width="15" height="15" rx="7.5" fill="white"/>
<path fill-rule="evenodd" clip-rule="evenodd" d="M10.186 7.50003C10.186 8.98349 8.98346 10.1861 7.5 10.1861C6.01654 10.1861 4.81396 8.98349 4.81396 7.50003C4.81396 6.6405 6.61744 6.27981 8.13544 6.41564C8.2966 6.37267 8.47004 6.34888 8.65116 6.34888C9.49917 6.34888 10.186 6.8646 10.186 7.50003Z" fill="#0047A0"/>
<path fill-rule="evenodd" clip-rule="evenodd" d="M7.11628 7.11628C7.11628 7.11628 7.80314 6.34884 8.65116 6.34884C9.49917 6.34884 10.186 6.86456 10.186 7.5C10.186 6.01654 8.98346 4.81396 7.5 4.81396C6.42789 4.81396 5.50236 5.44173 5.07182 6.35038C4.81396 7.11628 4.81396 7.34037 4.81396 7.5C5.19768 7.88372 5.62438 7.88372 5.96512 7.88372C6.30586 7.88372 6.61207 7.7356 6.82312 7.5L7.11628 7.11628Z" fill="#CD2E3A"/>
<mask id="mask0_1414_4939" style="mask-type:luminance" maskUnits="userSpaceOnUse" x="-1" y="2" width="17" height="11">
<path d="M-0.75 2.01355H15.7475V12.9865H-0.75V2.01355Z" fill="white"/>
</mask>
<g mask="url(#mask0_1414_4939)">
<path fill-rule="evenodd" clip-rule="evenodd" d="M-0.75 2.01355H15.7499V12.9865H-0.75V2.01355Z" fill="white"/>
<path fill-rule="evenodd" clip-rule="evenodd" d="M10.186 7.50003C10.186 8.98349 8.98346 10.1861 7.5 10.1861C6.01654 10.1861 4.81396 8.98349 4.81396 7.50003C4.81396 6.6405 6.61744 6.27981 8.13544 6.41564C8.2966 6.37267 8.47004 6.34888 8.65116 6.34888C9.49917 6.34888 10.186 6.8646 10.186 7.50003Z" fill="#0047A0"/>
<path fill-rule="evenodd" clip-rule="evenodd" d="M7.11628 7.11628C7.11628 7.11628 7.80314 6.34884 8.65116 6.34884C9.49917 6.34884 10.186 6.86456 10.186 7.5C10.186 6.01654 8.98346 4.81396 7.5 4.81396C6.42789 4.81396 5.50236 5.44173 5.07182 6.35038C4.81396 7.11628 4.81396 7.34037 4.81396 7.5C5.19768 7.88372 5.62438 7.88372 5.96512 7.88372C6.30586 7.88372 6.61207 7.7356 6.82312 7.5L7.11628 7.11628Z" fill="#CD2E3A"/>
<path fill-rule="evenodd" clip-rule="evenodd" d="M1.89526 5.35217L3.42398 3.08097L3.78805 3.32155L2.25934 5.59275L1.89526 5.35217ZM2.44137 5.71304L3.97009 3.44184L4.33416 3.68242L2.80545 5.95362L2.44137 5.71304ZM2.98748 6.07391L4.5162 3.80271L4.88027 4.04329L3.35155 6.3145L2.98748 6.07391Z" fill="#000008"/>
<path fill-rule="evenodd" clip-rule="evenodd" d="M10.1025 10.8256L11.6313 8.55436L11.9953 8.79494L10.4666 11.0661L10.1025 10.8256ZM10.6486 11.1864L12.1774 8.91523L12.5414 9.15581L11.0127 11.427L10.6486 11.1864ZM11.1948 11.5473L12.7235 9.2761L13.0875 9.51668L11.5588 11.7879L11.1948 11.5473Z" fill="#000008"/>
<path fill-rule="evenodd" clip-rule="evenodd" d="M10.6624 9.54907L12.5276 10.7931L10.6624 9.54907Z" fill="#000008"/>
<path d="M10.6624 9.54907L12.5276 10.7931" stroke="white" stroke-width="0.224204"/>
<path fill-rule="evenodd" clip-rule="evenodd" d="M3.43018 11.7887L1.90146 9.51749L2.26553 9.27691L3.79425 11.5481L3.43018 11.7887ZM3.97628 11.4278L2.44757 9.15662L2.81164 8.91604L4.34036 11.1872L3.97628 11.4278ZM4.52239 11.067L2.99368 8.79575L3.35775 8.55517L4.88647 10.8264L4.52239 11.067Z" fill="#000008"/>
<path fill-rule="evenodd" clip-rule="evenodd" d="M11.6375 6.31531L10.1087 4.04411L10.4728 3.80353L12.0015 6.07473L11.6375 6.31531ZM12.1836 5.95444L10.6548 3.68324L11.0189 3.44265L12.5476 5.71386L12.1836 5.95444ZM12.7297 5.59357L11.201 3.32236L11.565 3.08178L13.0937 5.35299L12.7297 5.59357Z" fill="#000008"/>
<path fill-rule="evenodd" clip-rule="evenodd" d="M3.11426 10.3586L3.67384 9.98545L3.11426 10.3586ZM10.6686 5.3205L11.3215 4.8851L10.6686 5.3205ZM11.8811 4.51191L12.4407 4.13871L11.8811 4.51191Z" fill="#000008"/>
<path d="M3.11426 10.3586L3.67384 9.98545M10.6686 5.3205L11.3215 4.8851M11.8811 4.51191L12.4407 4.13871" stroke="white" stroke-width="0.224204"/>
</g>
</g>
<defs>
<clipPath id="clip0_1414_4939">
<rect width="15" height="15" rx="7.5" fill="white"/>
</clipPath>
</defs>
</svg>
