<svg width="86" height="86" viewBox="0 0 86 86" fill="none" xmlns="http://www.w3.org/2000/svg">
<g filter="url(#filter0_di_1_7)">
<path d="M84.5714 42.5714C84.5714 19.3755 65.7674 0.571411 42.5714 0.571411C19.3755 0.571411 0.571411 19.3755 0.571411 42.5714C0.571411 65.7674 19.3755 84.5714 42.5714 84.5714C65.7674 84.5714 84.5714 65.7674 84.5714 42.5714Z" fill="#249F58"/>
<path fill-rule="evenodd" clip-rule="evenodd" d="M73.3682 56.5709V50.9709H11.7682L22.9682 56.5709H56.5682C56.5682 59.6621 60.3314 62.1709 64.9682 62.1709C69.605 62.1709 73.3682 59.6621 73.3682 56.5709ZM32.6562 22.4445C32.589 22.4445 32.4882 22.4781 32.3594 22.5565C32.057 22.7581 31.4634 23.3797 31.441 24.0965C31.4242 24.5053 31.3458 24.5053 31.609 24.7685C31.7994 25.0373 32.001 25.0149 32.3818 24.8077C32.6058 24.6397 32.6786 24.5445 32.757 24.2701C32.8466 23.8221 32.2698 24.4941 32.197 23.9789C32.0682 23.5085 32.4378 23.3069 32.785 22.8589C32.7962 22.6349 32.7962 22.4669 32.6562 22.4557V22.4445ZM38.273 22.4725C38.161 22.4949 38.0322 22.6405 37.8474 22.9653C37.7186 23.3125 37.153 23.8389 37.5674 24.9253C37.8922 25.6141 38.0322 26.7285 37.881 27.9773C37.6458 28.3301 37.601 28.4533 37.293 28.8061C36.8674 29.2709 36.397 29.1533 36.0498 28.9741C35.7138 28.7501 35.4562 28.6381 35.305 27.9325C35.333 26.8125 35.4002 24.9533 35.193 24.5613C34.8906 23.9565 34.3866 24.1693 34.1738 24.3541C33.149 25.3061 32.6394 26.8909 32.3258 28.1621C32.0458 29.0805 31.7378 28.8117 31.525 28.4421C31.0042 27.9493 30.965 24.1301 30.3378 24.7629C29.3298 27.6413 30.9146 30.7941 32.0178 30.4861C32.8018 30.8221 33.3058 29.3101 33.6306 27.6581C33.8546 27.1933 34.0226 27.1373 34.1346 27.3781C34.1066 29.5733 34.3026 30.0661 34.8626 30.7269C36.117 31.7013 37.1586 30.8501 37.2426 30.7717L38.2226 29.7973C38.4466 29.5733 38.7266 29.5509 39.0346 29.7525C39.337 30.0325 39.2978 30.4973 39.9306 30.8165C40.4794 31.0405 41.6274 30.8725 41.8906 30.4077C42.2546 29.7917 42.3386 29.5789 42.5066 29.3437C42.7642 29.0077 43.2066 29.1589 43.2066 29.2653C43.1674 29.4613 42.9098 29.6573 43.0834 29.9933C43.3914 30.2173 43.4642 30.0717 43.6434 30.0213C44.2818 29.7189 44.7634 28.3301 44.7634 28.3301C44.7914 27.8149 44.5002 27.8541 44.3154 27.9605C44.0634 28.1117 44.0522 28.1621 43.8114 28.3133C43.4922 28.3581 42.8874 28.5653 42.5906 28.1005C42.2826 27.5405 42.2826 26.7677 42.0474 26.1965C42.0474 26.1629 41.6386 25.3173 42.0138 25.2669C42.1986 25.3005 42.613 25.4069 42.6746 25.0653C42.8762 24.7293 42.2434 23.7773 41.8122 23.3069C41.4426 22.8981 40.9274 22.8477 40.429 23.2621C40.0762 23.5869 40.1322 23.9453 40.0594 24.2869C39.9754 24.6789 39.9922 25.1661 40.3954 25.6869C40.7426 26.3701 41.3754 27.2549 41.1626 28.4981C41.1626 28.4981 40.7986 29.0917 40.1546 29.0133C39.8746 28.9573 39.4378 28.8453 39.2026 27.1093C39.0346 25.8045 39.2474 23.9733 38.6986 23.1165C38.5698 22.7973 38.4634 22.4837 38.2842 22.5005L38.273 22.4725ZM36.4922 22.6181C36.3242 22.6349 36.1394 22.8309 35.9882 23.2061C35.8594 23.4973 35.697 24.9981 35.725 24.9981C35.613 25.4461 36.1898 25.6365 36.453 25.0653C36.845 24.0013 36.845 23.5533 36.8674 23.1165C36.8114 22.7805 36.6602 22.6125 36.4922 22.6237V22.6181ZM43.061 22.7301C42.893 22.7525 42.753 22.8533 42.7026 23.1109C42.6298 23.7045 42.669 24.0349 42.7698 24.5333C42.8426 24.8693 43.3298 25.4181 43.565 25.7429C44.7018 27.2717 45.805 28.8061 46.8578 30.3909C47.0258 31.5781 47.1378 32.7317 47.2218 33.8853C47.401 36.4053 47.4458 39.5413 47.2946 42.2013C47.765 42.2181 48.5266 41.4341 48.7898 40.2973C48.9578 38.7069 48.7338 35.4813 48.7114 34.5405L48.6554 33.2077C49.8874 35.2237 51.0746 37.3517 52.2394 39.6813C52.6706 39.4797 52.5754 37.0773 52.329 36.7413C51.3882 34.7253 50.089 32.7317 49.6802 31.9645C49.529 31.6845 49.0194 30.9173 48.4202 30.0269C48.3082 28.7501 48.185 27.6749 48.1066 27.3501C47.9106 26.0061 48.6554 27.5013 48.5546 26.7229C48.3082 25.3789 47.569 24.4717 46.6954 23.2397C46.4154 22.8477 46.4154 22.7581 45.9842 23.3405C45.7322 23.9285 45.7322 24.4213 45.8162 24.8805C45.693 24.7125 45.553 24.5221 45.3514 24.2757L43.9234 23.0661C43.7274 22.9261 43.3466 22.7133 43.061 22.7301ZM62.5266 22.9373C62.4426 22.9261 62.3586 22.9653 62.2466 23.1165C62.0506 23.2845 61.8434 23.6037 61.8546 24.0125C61.8938 24.7125 62.0226 25.4349 62.0674 26.1405L62.1234 26.4205C62.045 26.3309 61.9778 26.2525 61.9386 26.2189C60.5554 24.7629 62.5714 25.9725 61.6698 24.8581C60.9138 24.0181 60.6898 23.7605 60.0458 23.2565C59.7098 23.0549 59.5194 22.6517 59.413 23.3349C59.3682 23.9341 59.3234 24.6341 59.357 25.1381C59.357 25.4181 59.6538 25.9501 59.9058 26.2581C60.8242 27.3949 61.765 28.5989 62.7058 29.8533C62.9074 32.4125 62.9578 34.7589 63.1538 37.3237C63.1314 38.4213 62.7954 39.8773 62.4818 40.0117C62.4818 40.0117 61.989 40.2917 61.6642 39.9837C61.4234 39.8885 60.477 38.3989 60.477 38.3989C59.9898 37.9509 59.665 38.0797 59.3234 38.3989C58.3714 39.3173 57.9346 41.0421 57.2906 42.2293C57.1226 42.4925 56.6578 42.7221 56.137 42.2069C54.8098 40.3925 55.577 37.8109 55.4202 38.4773C54.2442 39.8101 54.7594 42.0165 55.0282 42.4925C55.4202 43.2765 55.7338 43.7805 56.4842 44.1557C57.1842 44.6597 57.7162 44.3517 58.0186 43.9877C58.713 43.2709 58.7242 41.4285 59.049 41.0645C59.273 40.3925 59.8498 40.5045 60.1298 40.8069C60.4098 41.1989 60.7234 41.4509 61.121 41.6637C61.7706 42.2349 62.5434 42.3357 63.305 41.8149C63.8258 41.5237 64.1674 41.1429 64.4698 40.3925C64.8058 39.5189 64.6378 34.9269 64.565 32.3733L66.021 34.4789C66.2226 36.7189 66.3178 38.9309 66.245 41.0477C66.2002 41.4677 67.7178 39.7933 67.701 38.9981C67.701 38.3093 67.7122 37.6765 67.701 37.0941C68.4458 38.2701 69.157 39.4629 69.829 40.6781C70.249 40.4541 70.109 38.0853 69.8458 37.7661C69.1402 36.5789 68.233 35.3021 67.533 34.3053C67.393 33.0565 67.2082 31.5837 67.1186 31.1301C66.9898 30.4245 66.8554 29.3661 66.6538 28.5317C66.5978 28.2125 66.4298 27.1709 66.4858 27.0757C66.5642 26.8349 66.8778 27.0757 67.029 26.8069C67.253 26.5549 66.2338 23.8949 65.713 23.1445C65.5282 22.8085 65.1866 22.9205 64.7722 23.4805C64.3802 23.8389 64.5258 24.6677 64.6714 25.4573C65.0522 27.4733 65.3994 29.5117 65.6682 31.5613C65.1642 30.8053 64.5482 29.8981 63.9434 29.0301L63.865 28.6381C63.865 28.5933 63.7866 26.9861 63.7138 26.6053C63.697 26.4485 63.6578 26.4037 63.8258 26.4261C63.9938 26.5717 64.0162 26.5773 64.1226 26.6277C64.3018 26.6501 64.4586 26.3589 64.3466 26.0845L62.7226 23.0941C62.6666 23.0213 62.5882 22.9541 62.4986 22.9429L62.5266 22.9373ZM12.2946 22.9933C11.9866 22.9821 11.6618 23.1613 11.7906 23.5253C11.7122 23.7213 12.373 24.3821 12.4906 24.7461C12.5858 25.0093 12.3786 25.8381 12.6026 25.9221C12.7986 26.0061 13.073 25.3397 13.1738 24.7293C13.2298 24.3933 13.1906 23.2397 12.4066 23.0045C12.3674 22.9933 12.3282 22.9933 12.2834 22.9877L12.2946 22.9933ZM69.5266 22.9933C69.4538 23.0045 69.3698 23.1053 69.2466 23.3853C68.9386 23.8893 68.8322 24.7853 68.9554 25.5693C69.6834 30.5533 70.2434 35.3805 70.3554 39.7933C70.2882 40.2189 70.2658 40.4429 70.0754 40.9693C69.6386 41.5293 69.157 42.2237 68.7034 42.5597C68.2554 42.8957 67.2922 43.2205 66.9786 43.4669C65.9706 44.0381 65.9706 44.6989 66.777 44.7269C68.1658 44.5589 69.8122 44.4469 70.9434 42.7389C71.2458 42.2629 71.6042 40.9637 71.6154 40.1629C71.7274 35.5149 71.5594 30.9509 70.8594 27.5853C70.8146 27.2493 70.669 26.5045 70.725 26.4093C70.809 26.1741 71.2626 26.4261 71.425 26.1629C71.6658 25.9165 70.249 24.1077 69.7562 23.3349C69.6554 23.1445 69.5882 22.9821 69.5098 22.9989L69.5266 22.9933ZM54.9498 23.0717C54.8938 23.0829 54.8154 23.1725 54.6586 23.3797C54.2666 24.6453 54.1322 25.6757 54.2834 26.4709C55.2914 31.6789 56.2994 36.4109 56.1426 41.3669C56.613 41.3669 57.1618 40.2861 57.397 39.2109C57.5258 37.7269 57.3074 36.8253 57.2738 35.9629C57.2346 35.0893 56.2882 28.0333 56.0978 27.3781C55.8626 26.1349 57.0162 27.2101 56.893 26.4933C56.4898 25.5749 55.493 24.2533 55.1906 23.4525C55.0786 23.2397 55.0562 23.0437 54.9666 23.0605L54.9498 23.0717ZM19.4794 23.1725C19.3674 23.1949 19.2386 23.2957 19.1994 23.4525C19.1714 23.5645 19.2442 23.7493 19.1434 23.8053C19.0874 23.8613 18.8746 23.8221 18.8858 23.5253C18.8858 23.4245 18.813 23.3237 18.7738 23.2621C18.729 23.2397 18.701 23.2341 18.6226 23.2341C18.5274 23.2341 18.5274 23.2621 18.477 23.3461C18.4546 23.4245 18.421 23.5029 18.421 23.5925C18.4098 23.7045 18.365 23.7325 18.2922 23.7493C18.2026 23.7493 18.2194 23.7605 18.1522 23.7101C18.0962 23.6709 18.0514 23.6541 18.0514 23.5757C18.0514 23.4917 18.029 23.3517 18.0066 23.3069C17.9674 23.2509 17.9058 23.2285 17.8386 23.2117C17.469 23.2117 17.4466 23.6485 17.4634 23.8053C17.4354 23.8389 17.4242 24.5893 17.9282 24.8021C18.6002 25.1269 19.877 24.9869 19.8322 23.8949C19.8322 23.7997 19.8042 23.4749 19.793 23.3909C19.7258 23.2229 19.597 23.1669 19.4738 23.1837L19.4794 23.1725ZM28.585 23.1837C28.3498 23.1949 28.137 23.2621 27.969 23.3517C27.521 23.7829 27.409 24.4717 27.7674 24.9029C28.1034 25.0709 28.4562 25.4069 28.2266 25.6029C27.2522 26.6389 24.7154 28.3805 24.5866 28.6997V28.7333H24.609V28.7445C24.7378 28.8285 26.3282 28.8285 26.5018 28.7445H26.513C27.0618 28.5373 29.649 25.5805 29.649 25.5805C29.5146 25.4685 29.3914 25.3789 29.257 25.2613C29.1114 25.1381 29.1282 25.0149 29.257 24.8917C29.8954 24.5221 29.6938 23.6989 29.3578 23.3237C29.0778 23.2005 28.8202 23.1557 28.585 23.1725V23.1837ZM52.385 23.1837C52.3178 23.2005 52.2338 23.2957 52.105 23.5757C51.797 24.0797 51.5898 24.9477 51.6178 25.7597C52.2786 30.3517 52.4802 34.3669 52.917 38.9589C52.9506 39.4069 52.8834 40.0453 52.5922 40.3029C51.4946 41.4453 49.921 42.8453 48.2074 43.4949C48.0226 43.7021 48.6666 44.5813 49.4954 44.5813C50.8842 44.4133 52.105 43.6405 53.2474 41.5853C53.5442 41.1093 54.0762 40.0845 54.0874 39.2893C54.1994 34.6301 53.8634 31.0013 53.1578 27.6413C53.1186 27.3053 53.1466 26.9133 53.2026 26.8237C53.2922 26.7117 53.5946 26.8237 53.7626 26.5605C53.9978 26.3141 53.1242 24.3037 52.6314 23.5365C52.5306 23.3405 52.4746 23.1837 52.385 23.1893V23.1837ZM15.5146 23.3349C15.3242 23.3573 15.145 23.5029 15.0554 23.7269C15.0274 24.4549 15.0218 25.1829 15.1114 25.8661C15.4474 27.0589 15.5426 28.1061 15.705 29.3213C15.761 30.9565 14.7642 30.0269 14.809 29.2205C15.033 28.1677 14.977 26.5157 14.7754 26.0957C14.6074 25.6757 14.4282 25.5749 14.0362 25.6477C13.7282 25.6253 12.9274 26.4877 12.7034 27.9437C12.7034 27.9437 12.513 28.6829 12.4346 29.3437C12.3226 30.0885 11.8298 30.6205 11.4826 29.2429C11.1858 28.2349 11.0066 25.7709 10.5082 26.3421C10.3626 28.2685 10.1946 31.6621 11.8298 32.0093C13.8122 32.1997 12.7146 28.6605 13.4314 28.0165C13.5714 27.7085 13.8234 27.7029 13.8402 28.1005V31.1077C13.8178 32.0821 14.4562 32.3733 14.9602 32.5749C15.481 32.5357 15.8226 32.5525 16.0242 33.0565L16.2762 38.2645C16.2762 38.2645 17.4746 38.6005 17.5306 35.3357C17.5866 33.4149 17.1386 31.8077 17.4018 31.4325C17.413 31.0629 17.8834 31.0405 18.2082 31.2253C18.729 31.5893 18.9586 32.0373 19.765 31.8581C20.997 31.5221 21.725 30.9285 21.7418 29.9877C21.6858 29.0917 21.5738 28.1957 21.1818 27.2997C21.2378 27.1429 20.9578 26.7229 21.0138 26.5605C21.2266 26.8965 21.5626 26.8741 21.6298 26.5605C21.4282 25.8717 21.1034 25.2165 20.577 24.9365C20.1458 24.5445 19.513 24.6285 19.2778 25.4237C19.1658 26.3421 19.6138 27.4285 20.2858 28.3189C20.4202 28.6661 20.6218 29.2429 20.5322 29.7637C20.1794 29.9653 19.8266 29.8757 19.5242 29.5677C19.5242 29.5677 18.5554 28.8397 18.5554 28.6717C18.8186 27.0197 18.6114 26.8237 18.4714 26.3757C18.3706 25.7373 18.0682 25.5357 17.8274 25.0989C17.581 24.8357 17.2506 24.8357 17.0994 25.0989C16.6626 25.8437 16.8642 27.4509 17.1778 28.1621C17.4018 28.8229 17.749 29.2373 17.5866 29.2373C17.4522 29.6013 17.1722 29.5173 16.9706 29.0861C16.6906 28.1901 16.6234 26.8685 16.6234 26.2693C16.5394 25.5301 16.4442 23.9453 15.9514 23.5421C15.8226 23.3629 15.6714 23.3013 15.5202 23.3181L15.5146 23.3349ZM22.4698 23.3349C22.3746 23.3573 22.2626 23.4133 22.1338 23.4469C21.7138 23.5757 21.3218 23.9397 21.445 24.6453C21.949 27.6693 22.2682 29.9821 22.7666 33.0061C22.8394 33.3645 22.5426 33.8293 22.1618 33.7901C21.5122 33.3421 21.3498 32.4461 20.241 32.4909C19.4346 32.4909 18.5162 33.3757 18.4042 34.2157C18.2698 34.8877 18.225 35.6157 18.4042 36.1981C18.9642 36.8701 19.6474 36.8029 20.241 36.6461C20.7282 36.4501 21.137 35.9741 21.305 36.0861C21.417 36.2709 21.2938 37.8445 19.009 39.0541C17.5978 39.6925 16.4778 39.8381 15.873 38.6957C15.5034 37.9789 15.9066 35.2461 14.9882 35.8733C12.2666 42.8845 21.3554 43.8589 22.369 36.1645C22.4362 35.9405 22.6322 35.7277 22.7778 35.7837C22.8338 35.8117 22.8898 35.8957 22.9122 36.0525C22.6994 43.0189 15.8786 43.5005 14.725 41.3053C14.4338 40.7901 14.3498 39.6365 14.3218 38.9533C14.2658 38.5333 14.165 38.2925 14.0418 38.1973C13.7618 37.9901 13.3922 38.5333 13.3138 39.4685C13.2018 40.2245 13.2298 40.4317 13.2298 41.1597C13.5994 46.6645 22.3746 44.2957 23.8026 39.7597C24.5082 37.4077 23.7858 35.6325 24.0266 35.4141L24.0434 35.4029H24.0602L24.0882 35.3917C24.9618 36.3325 26.1826 35.5037 26.4514 35.1845C26.5634 35.0165 26.8546 34.9045 27.0562 35.1285C27.7282 35.6101 28.9266 35.3805 29.173 34.5125C29.3186 33.6725 29.4418 32.8101 29.4698 31.9085C29.0218 32.0485 28.6634 32.1493 28.5178 32.3005C28.4842 32.3397 28.4618 32.3845 28.4506 32.4293L28.3386 33.1741C28.3386 33.2021 28.3274 33.2189 28.3162 33.2301C28.2994 33.2693 28.2602 33.2973 28.2378 33.3141C28.081 33.3981 27.8066 33.3533 27.7898 33.1237C27.5826 32.1717 26.7146 32.0485 26.1882 33.5325C25.8354 33.8125 25.1802 33.8685 25.1242 33.4429C25.2082 32.4461 24.805 32.3117 24.0042 32.7821L23.2314 26.9581C23.5674 26.9413 23.8698 27.1821 24.1834 26.8013C23.8474 25.7709 23.1474 23.6765 22.7498 23.4749H22.7386L22.6826 23.4189C22.6826 23.4077 22.6658 23.4021 22.6546 23.3965L22.6322 23.3629C22.6098 23.3629 22.5874 23.3517 22.5762 23.3461C22.537 23.3349 22.5034 23.3349 22.4642 23.3349H22.4698ZM49.585 23.3573C49.2378 23.3461 48.857 23.5645 49.0026 24.0013C48.913 24.2421 49.7474 25.0485 49.8818 25.4853C50.1226 26.1573 49.697 26.8125 49.949 26.9077C50.1842 27.0085 50.509 26.2077 50.621 25.4629C50.7666 24.8581 50.341 23.6261 49.725 23.3741L49.585 23.3629V23.3573ZM28.4562 24.0909C28.613 24.0797 28.8034 24.2253 28.9042 24.4269C28.9994 24.6509 28.949 24.8581 28.7922 24.8973C28.6242 24.9365 28.4114 24.7965 28.3106 24.5725C28.2098 24.3485 28.2546 24.1413 28.4226 24.1021H28.4562V24.0909ZM67.6394 25.1101C67.3202 25.0989 66.9674 25.3341 67.113 25.8101C67.0346 26.0677 67.785 26.9413 67.9138 27.4229C68.0258 27.7589 67.7458 28.8565 67.9698 28.9573C68.1826 29.0693 68.4738 28.1957 68.5858 27.3893C68.653 26.9413 68.3282 25.4013 67.7738 25.1269C67.7346 25.1157 67.6898 25.1045 67.645 25.1045L67.6394 25.1101ZM45.9674 25.6477C46.0066 25.7765 46.0346 25.9053 46.0514 26.0397C46.1186 26.3197 46.1746 26.5997 46.2306 26.8909C45.9842 26.5437 45.7826 26.2637 45.6874 26.1629C45.1274 25.4909 45.6986 25.7261 45.9674 25.6477ZM50.9682 28.1005C50.845 28.1229 50.7274 28.2293 50.6882 28.3973C50.6546 28.4981 50.733 28.6773 50.6322 28.7333C50.5762 28.7893 50.3522 28.7557 50.369 28.4533C50.369 28.3525 50.2962 28.2461 50.257 28.1901C50.2122 28.1621 50.1842 28.1509 50.1058 28.1509C50.0106 28.1509 50.0106 28.1789 49.9602 28.2629C49.9378 28.3413 49.9042 28.4197 49.9042 28.5149C49.9042 28.6269 49.8594 28.6605 49.781 28.6829C49.6914 28.6829 49.7082 28.6829 49.6354 28.6437C49.5906 28.5877 49.5402 28.5765 49.5402 28.4981C49.5402 28.4141 49.5234 28.2853 49.4954 28.2293C49.4562 28.1733 49.4002 28.1565 49.3274 28.1341C48.9634 28.1341 48.9354 28.5597 48.9578 28.7165C48.9354 28.7501 48.9186 29.5117 49.4226 29.7245C50.1058 30.0437 51.3826 29.8925 51.3266 28.8061C51.3266 28.7109 51.2986 28.3861 51.293 28.3021C51.2202 28.1341 51.0914 28.0781 50.9738 28.0949L50.9682 28.1005ZM28.1762 28.3245C28.0978 28.3245 27.9858 28.3469 27.857 28.4253C27.2578 28.7501 27.0282 29.7133 27.409 30.2733C27.745 30.7773 28.305 30.5925 28.3778 30.5925C28.9658 30.6709 29.313 29.4949 29.313 29.4949C29.313 29.4949 29.3298 29.1589 28.641 29.7861C28.3386 29.8421 28.305 29.7301 28.2266 29.5621C28.1594 29.2653 28.1706 28.9461 28.3106 28.6493C28.3778 28.4645 28.3106 28.3469 28.1762 28.3357V28.3245ZM60.393 28.4757C60.057 28.4589 59.7042 28.6773 59.609 29.1309C59.609 29.3997 59.7322 29.5453 59.7098 29.7917C59.6818 29.9317 59.5418 30.0157 59.1946 29.8589C59.2506 29.8029 58.9706 29.4221 58.9706 29.4221C58.7074 29.2541 58.3546 29.4221 58.1194 29.5789C57.9906 29.8141 57.8954 30.2117 58.041 30.6149C58.4218 31.3261 59.7378 32.5357 60.365 32.5469C60.3762 31.9085 60.4378 31.0573 60.477 30.5309C60.4882 30.3293 60.533 30.1109 60.729 30.0605C60.9194 30.0045 61.2498 30.2509 61.2498 30.0437C61.2162 29.6405 61.1378 29.0357 60.9138 28.7557C60.7906 28.5877 60.5946 28.4869 60.3986 28.4757H60.393ZM33.7202 30.6989L33.7034 30.7157C33.7034 30.7157 33.6922 30.7157 33.6866 30.7269C33.6194 30.7829 33.541 30.8949 33.3674 31.0069C33.0706 31.3429 33.0202 31.5837 33.0314 32.2557C33.0538 32.3285 33.5914 33.8405 34.0562 34.8989C34.3698 36.0021 34.6554 37.2677 34.4482 38.4605C33.7202 40.0397 32.2642 41.4565 30.8474 42.2293C30.1194 42.4533 29.5034 42.3749 29.3354 42.2181C28.921 41.9381 28.9154 41.4341 28.9434 41.3557V41.3389C30.1306 40.5101 31.4914 39.8381 32.5554 37.6037C32.869 36.7469 32.9698 36.2317 32.6562 34.9157C32.533 34.4117 32.3762 34.0197 32.0402 33.6613H32.0514C32.253 33.5661 32.7794 33.9525 32.8634 33.7173C32.7346 33.0789 32.3034 32.2333 31.8274 31.7965C31.4018 31.4045 30.9314 31.3653 30.5506 31.7181C30.1138 31.9645 30.0242 32.8381 30.2314 33.5997C30.4666 34.1709 31.0994 34.2717 31.5474 35.4309C31.5586 35.5093 31.6986 36.2989 31.4746 36.6237C31.2842 37.1949 28.9266 39.0541 28.7586 39.1661L28.7418 39.1773L28.7306 39.1885H28.7082V39.1717C28.697 39.1269 28.7082 39.0037 28.7082 38.8189C28.6914 38.4717 28.837 37.6821 28.8202 37.5421V37.5309C28.0362 38.0349 27.773 39.5749 27.633 40.0341C25.6562 41.3949 23.4162 42.4085 22.1226 43.7861C21.4506 44.8501 26.7594 42.5877 27.3754 42.3133L27.3922 42.3301C27.5154 42.4589 27.521 42.9069 27.8738 43.3157C28.4338 44.0605 29.5986 44.5197 30.741 44.2341C32.6562 43.5453 33.765 42.2405 34.885 40.7901C35.0418 40.5661 35.2938 40.3757 35.529 40.5549C36.2962 42.2797 38.525 43.5117 41.3978 43.6349C42.0698 42.8285 41.7506 42.4309 41.4818 42.2629C41.3978 42.2069 40.0538 41.6805 39.841 41.1597C39.7122 40.6781 40.0314 40.2469 40.6698 39.9277C42.5178 39.7037 44.3322 39.4517 46.0906 38.8861C46.1074 38.2925 46.4546 37.4133 46.6898 37.0269C46.8578 36.7637 46.953 36.7357 46.9922 36.7021V36.6909H47.0034V36.6181L46.701 36.4389L40.8042 36.4165C40.7314 36.3885 40.681 36.3605 40.6474 36.3325L40.6362 36.3157C40.6362 36.3157 40.625 36.3157 40.625 36.3045C40.625 36.2933 40.6138 36.2933 40.6138 36.2933V36.2989V36.2653L40.625 36.2485C40.653 36.2149 40.7258 36.1757 40.8098 36.1365C42.221 35.9517 44.7186 35.5429 44.8866 33.1405C44.8586 31.8861 44.349 31.0685 42.8146 30.8445C41.6834 30.9285 40.877 32.0205 41.0058 33.2189C40.9498 33.5381 41.1178 34.1709 40.7818 34.2437C38.6202 34.4453 36.257 35.8005 36.1786 36.7749H36.145C36.145 36.7861 36.1338 36.7861 36.1282 36.7861H36.0722C35.9322 36.7413 35.753 36.5061 35.781 36.1869C35.697 34.5069 35.1482 32.6029 34.297 31.1469C33.989 30.8389 33.849 30.7157 33.7706 30.6989H33.7202ZM39.365 31.5837C39.253 31.6061 39.1242 31.7069 39.085 31.8749C39.057 31.9869 39.141 32.1661 39.0402 32.2221C38.9842 32.2781 38.7602 32.2445 38.7714 31.9421C38.7714 31.8469 38.6986 31.7405 38.6594 31.6789C38.6146 31.6509 38.5866 31.6453 38.5138 31.6453C38.4186 31.6453 38.413 31.6677 38.3626 31.7461C38.3346 31.8245 38.3066 31.9141 38.3066 31.9981C38.2954 32.1101 38.2506 32.1437 38.1778 32.1549C38.0882 32.1549 38.1106 32.1717 38.0378 32.1269C37.993 32.0821 37.937 32.0597 37.937 31.9813C37.937 31.8973 37.9202 31.7573 37.8978 31.7013C37.8586 31.6621 37.797 31.6453 37.7298 31.6229C37.3546 31.6229 37.3378 32.0429 37.3546 32.2053C37.3266 32.2333 37.3098 32.9893 37.8138 33.2021C38.4858 33.5269 40.1098 33.3365 39.7178 32.2893C39.7178 32.1941 39.6898 31.8693 39.6842 31.7853C39.6114 31.6173 39.4826 31.5613 39.3594 31.5781L39.365 31.5837ZM62.129 32.5189H62.073C62.073 32.5189 58.9258 34.7589 58.853 34.8373C58.5394 35.1173 58.6962 36.0861 58.853 35.9741C59.077 36.0581 62.241 33.9133 62.1794 33.6613C62.3194 33.6725 62.3866 32.5581 62.1234 32.5133L62.129 32.5189ZM42.3386 32.8549C42.4618 32.8381 42.6298 32.8829 42.7866 32.9669C43.0274 33.1125 43.1786 33.3141 43.1506 33.4709V33.4933C43.1394 33.4933 43.1394 33.4933 43.1394 33.5045V33.5157C43.1394 33.5157 43.1282 33.5157 43.1282 33.5269C43.1282 33.5381 43.1114 33.5493 43.1002 33.5605C42.9882 33.6725 42.7306 33.6501 42.4842 33.5045C42.249 33.3757 42.109 33.1685 42.1202 33.0229V33.0061L42.1482 32.9501C42.1482 32.9501 42.1482 32.9389 42.1594 32.9333L42.1874 32.8997C42.2266 32.8717 42.277 32.8437 42.3386 32.8437V32.8549ZM14.7978 33.4149C13.1738 33.4485 10.7826 35.5541 10.721 36.7189L15.873 34.2549C15.593 33.8293 15.8562 33.4485 14.7978 33.4149ZM20.0786 34.1429C20.2354 34.1541 20.4034 34.2325 20.493 34.4565C20.5714 34.6637 20.493 34.8765 20.3978 34.9829V34.9997C20.3194 35.0893 20.0842 35.0557 19.9106 35.0557C19.7034 35.0445 19.6026 35.0109 19.4794 34.8429C19.4122 34.6469 19.5914 34.4621 19.6754 34.3277L19.7146 34.2717C19.7706 34.2157 19.8826 34.1709 19.9946 34.1597L20.0674 34.1485L20.0786 34.1429ZM61.5186 34.7981C61.2218 34.8317 60.9474 35.1061 61.0706 35.5429C60.9922 35.8005 61.4626 36.7021 61.5914 37.1781C61.7034 37.5141 61.4458 38.4829 61.6754 38.5781C61.8882 38.6901 62.4426 38.0181 62.4258 37.1557C62.4818 36.7077 62.269 35.0837 61.7146 34.8149C61.6474 34.7981 61.5802 34.7925 61.513 34.7981H61.5186ZM26.3282 36.3885C26.0706 36.4053 25.841 36.5397 25.9474 36.9037C25.9306 37.1613 26.6754 37.4805 26.7146 38.0797C26.8154 38.3373 26.5466 39.1437 26.7706 39.2109C26.9722 39.2949 27.2522 38.6509 27.3586 38.0685C27.4146 37.7437 27.101 36.6125 26.5746 36.4053C26.4906 36.3829 26.4066 36.3773 26.3226 36.3829L26.3282 36.3885ZM36.8562 37.8221H36.9234C37.5842 38.0013 38.5474 38.0237 39.3874 38.1021C40.0762 38.1581 40.4122 38.6845 39.7794 38.9141C39.141 39.1269 38.5306 39.3061 38.5306 40.2133C38.609 40.6613 38.5866 40.8965 38.5194 40.9973C38.5194 41.0141 38.5026 41.0253 38.497 41.0309C38.497 41.0309 38.497 41.0421 38.4858 41.0421V41.0533H38.469L38.4298 41.0701H38.4018C38.2506 41.0981 38.0322 40.9581 37.8698 40.8685C37.4778 40.5885 36.3858 39.9165 36.229 38.4605C36.2066 38.1245 36.453 37.8445 36.845 37.8165L36.8562 37.8221ZM11.1298 38.9421C11.0906 38.9421 11.0178 39.0653 10.9058 39.2053C9.93143 40.7453 9.84183 43.0469 10.3794 43.7413C10.6594 44.0605 11.1298 44.2061 11.477 44.1053C12.093 43.8421 12.3562 42.6045 12.205 42.1565C12.009 41.8373 11.8466 41.7869 11.645 42.0557C11.2138 42.9237 11.029 42.3245 11.001 41.8317C10.9338 40.9189 11.0234 40.0677 11.1242 39.3957C11.1802 39.0597 11.1802 38.9309 11.1242 38.9309L11.1298 38.9421ZM44.153 40.9693C44.0802 40.9693 44.0074 40.9805 43.929 41.0253C43.9122 41.0253 43.2346 41.4733 43.0162 41.7981C42.8818 41.8989 42.9042 41.9829 42.9378 42.1621C43.0386 42.4029 43.2178 42.3301 43.4306 42.2181C43.7106 42.1733 43.8394 42.3581 43.8226 42.6885C43.6938 43.1085 43.8786 43.2597 43.8786 43.2877C43.8786 43.3101 44.1418 43.5397 44.4554 43.3605C45.1106 43.1085 45.5194 42.8565 46.4434 42.6605C46.6842 42.6605 46.6674 42.0109 46.2866 41.9885C45.7826 42.0109 45.3346 42.0445 44.8306 42.4365C44.5226 42.5037 44.4722 42.3133 44.3994 42.1453C44.321 41.7309 44.5786 41.4397 44.5226 41.1261C44.5338 41.1429 44.3658 40.9917 44.1474 40.9805L44.153 40.9693ZM65.2986 41.7533L64.8506 41.7981C64.649 41.8373 64.5818 41.9269 64.5426 42.1733C64.5594 42.5373 64.7834 42.5205 65.0186 42.6661C65.153 42.8341 65.2426 42.9909 65.0074 43.2821C64.7834 43.4781 64.6322 43.5901 64.4082 43.7861C64.313 43.9653 64.2402 44.2341 64.565 44.3237C65.153 44.4917 66.5138 43.6069 66.5138 43.5957C66.7378 43.4277 66.6594 43.1085 66.6426 43.1085C66.5082 42.9629 66.217 43.0525 66.0266 43.0245C65.9314 43.0245 65.6346 42.9797 65.769 42.7109C65.8922 42.5429 65.937 42.4477 66.021 42.2405C66.105 42.0389 66.021 41.9045 65.6962 41.7925C65.5282 41.7589 65.4162 41.7477 65.2874 41.7533H65.2986ZM57.1618 63.3693C58.6738 63.4421 60.085 63.3861 61.5858 63.4589C61.8322 63.6605 61.7146 64.1309 61.5578 64.2093L61.5298 64.2205H61.4906L60.225 64.1869V64.1141C60.1018 63.7669 59.2618 63.7893 59.0602 64.0581V64.0749C59.049 64.0749 59.0434 64.0917 59.0434 64.0973L59.0322 64.1253V64.1925C58.3602 64.2765 57.7722 64.1701 57.1114 64.1477C56.9154 63.9069 56.9434 63.4757 57.1674 63.3637L57.1618 63.3693Z" fill="white"/>
</g>
<defs>
<filter id="filter0_di_1_7" x="-1.68681e-05" y="-1.68681e-05" width="85.1429" height="89.1429" filterUnits="userSpaceOnUse" color-interpolation-filters="sRGB">
<feFlood flood-opacity="0" result="BackgroundImageFix"/>
<feColorMatrix in="SourceAlpha" type="matrix" values="0 0 0 0 0 0 0 0 0 0 0 0 0 0 0 0 0 0 127 0" result="hardAlpha"/>
<feOffset/>
<feGaussianBlur stdDeviation="0.285714"/>
<feComposite in2="hardAlpha" operator="out"/>
<feColorMatrix type="matrix" values="0 0 0 0 0.258824 0 0 0 0 0.278431 0 0 0 0 0.298039 0 0 0 0.32 0"/>
<feBlend mode="normal" in2="BackgroundImageFix" result="effect1_dropShadow_1_7"/>
<feBlend mode="normal" in="SourceGraphic" in2="effect1_dropShadow_1_7" result="shape"/>
<feColorMatrix in="SourceAlpha" type="matrix" values="0 0 0 0 0 0 0 0 0 0 0 0 0 0 0 0 0 0 127 0" result="hardAlpha"/>
<feOffset dy="4.57143"/>
<feGaussianBlur stdDeviation="3.42857"/>
<feComposite in2="hardAlpha" operator="arithmetic" k2="-1" k3="1"/>
<feColorMatrix type="matrix" values="0 0 0 0 0.258824 0 0 0 0 0.278431 0 0 0 0 0.298039 0 0 0 0.08 0"/>
<feBlend mode="normal" in2="shape" result="effect2_innerShadow_1_7"/>
</filter>
</defs>
</svg>
