<svg width="15" height="15" viewBox="0 0 15 15" fill="none" xmlns="http://www.w3.org/2000/svg">
<rect width="15" height="15" rx="7.5" fill="#E30A17"/>
<path fill-rule="evenodd" clip-rule="evenodd" d="M11.0021 8.65204L9.84007 9.26204L10.0621 7.96904L9.12207 7.05204L10.4221 6.86204L11.0021 5.68604L11.5821 6.86304L12.8821 7.05304L11.9421 7.96804L12.1641 9.26103" fill="white"/>
<path fill-rule="evenodd" clip-rule="evenodd" d="M6.5 11C8.433 11 10 9.433 10 7.5C10 5.567 8.433 4 6.5 4C4.567 4 3 5.567 3 7.5C3 9.433 4.567 11 6.5 11ZM7.5 10C8.88 10 10 8.88 10 7.5C10 6.12 8.88 5 7.5 5C6.12 5 5 6.12 5 7.5C5 8.88 6.12 10 7.5 10Z" fill="white"/>
</svg>
