<svg width="24" height="24" viewBox="0 0 24 24" fill="none" xmlns="http://www.w3.org/2000/svg">
<g clip-path="url(#clip0_288_1272)">
<rect width="24" height="24" rx="12" fill="white"/>
<g clip-path="url(#clip1_288_1272)">
<rect width="32" height="24" fill="white"/>
<path fill-rule="evenodd" clip-rule="evenodd" d="M0 0V24H32V0H0Z" fill="#F7FCFF"/>
<mask id="mask0_288_1272" style="mask-type:luminance" maskUnits="userSpaceOnUse" x="0" y="0" width="32" height="24">
<path fill-rule="evenodd" clip-rule="evenodd" d="M0 0V24H32V0H0Z" fill="white"/>
</mask>
<g mask="url(#mask0_288_1272)">
<rect y="2" width="32" height="3" fill="#2E42A5"/>
<rect y="8" width="32" height="3" fill="#2E42A5"/>
<rect y="14" width="32" height="3" fill="#2E42A5"/>
<rect y="19" width="32" height="3" fill="#2E42A5"/>
<rect width="14" height="14" fill="#F7FCFF"/>
<path fill-rule="evenodd" clip-rule="evenodd" d="M4.78251 2.58234C4.70922 2.57742 4.64524 2.63232 4.6396 2.70496C4.61218 3.0581 4.92303 3.37914 5.09512 3.55688L5.11209 3.57442C5.13927 3.60256 5.16711 3.63036 5.20199 3.66442C5.20197 3.6644 5.28337 3.74342 5.30565 3.76545C5.4551 3.91325 5.4875 4.05168 5.52386 4.20711L5.53287 4.24534C5.5486 4.3112 5.56477 4.39082 5.58253 4.47825L5.58254 4.47825C5.66125 4.86572 5.77112 5.40654 6.01112 5.58283C6.0699 5.62601 6.48171 5.36951 6.52584 5.31089C6.54141 5.29021 6.58744 5.25599 6.63792 5.21845L6.63793 5.21845C6.73055 5.14958 6.83816 5.06957 6.80012 5.04163C6.54881 4.85702 6.3579 4.40963 6.10986 3.76545C5.97743 3.46214 5.63065 3.26934 5.34288 3.10935C5.09708 2.9727 4.89434 2.85997 4.90499 2.72277C4.91063 2.65013 4.85579 2.58726 4.78251 2.58234ZM8.8298 2.68176C8.79402 2.61762 8.71313 2.59386 8.64913 2.62869C8.33803 2.79803 8.23808 3.23358 8.18275 3.47472L8.17728 3.4985C8.16848 3.53662 8.16033 3.57512 8.15076 3.62292C8.15077 3.62289 8.12883 3.7342 8.12249 3.76488C8.07993 3.97072 7.98148 4.07328 7.87093 4.18843L7.84377 4.21681C7.7971 4.26587 7.73913 4.3228 7.67548 4.38531C7.3934 4.66236 6.99967 5.04906 6.98253 5.34635C6.97833 5.41917 7.41774 5.62484 7.49094 5.62992C7.51676 5.63172 7.57054 5.65168 7.62951 5.67358C7.73771 5.71375 7.86342 5.76043 7.86614 5.7133C7.88409 5.40199 8.15533 4.99821 8.56049 4.43934C8.74274 4.16308 8.71556 3.76725 8.69301 3.43877C8.67375 3.15819 8.65787 2.92676 8.77874 2.86097C8.84273 2.82614 8.86559 2.74591 8.8298 2.68176ZM11.4161 5.03066C11.4866 5.04883 11.5296 5.12138 11.512 5.19269C11.4945 5.26401 11.423 5.3071 11.3525 5.28893C11.2192 5.25461 11.073 5.43471 10.8957 5.65304C10.6882 5.90865 10.4381 6.21668 10.1164 6.29443C9.43892 6.42685 8.96518 6.53717 8.73974 6.7526C8.70561 6.78522 8.64551 6.66535 8.59377 6.56217L8.59377 6.56217L8.59377 6.56216C8.56557 6.50593 8.53986 6.45466 8.5222 6.43574C8.47213 6.38209 8.29103 5.932 8.34376 5.88161C8.55905 5.67588 9.11073 5.66159 9.50599 5.65135L9.506 5.65135C9.59518 5.64904 9.6764 5.64693 9.74399 5.64288L9.7832 5.64065C9.94258 5.63182 10.0845 5.62396 10.256 5.50244C10.2812 5.48463 10.3705 5.42007 10.3735 5.41796L10.3735 5.41791C10.4131 5.38947 10.4453 5.36688 10.4778 5.345L10.498 5.33133C10.7029 5.19272 11.0731 4.94234 11.4161 5.03066ZM2.3228 5.47393C2.2675 5.52227 2.26108 5.60633 2.30846 5.66169C2.53878 5.93078 2.98559 5.93799 3.23296 5.94198C3.24133 5.94212 3.24947 5.94225 3.25736 5.94239C3.29648 5.94307 3.33583 5.94303 3.38457 5.94246C3.38454 5.94246 3.49798 5.94077 3.5293 5.9406C3.7395 5.93942 3.86029 6.01441 3.99591 6.0986C4.00693 6.10544 4.01804 6.11234 4.02931 6.11926C4.087 6.15471 4.15474 6.19958 4.22912 6.24884C4.55877 6.46716 5.01887 6.77188 5.31324 6.72684C5.38533 6.71581 5.49515 6.24324 5.4849 6.17058C5.48129 6.14495 5.48964 6.0882 5.49879 6.02596C5.51559 5.91177 5.53511 5.7791 5.48845 5.78624C5.18021 5.83341 4.72886 5.65205 4.09797 5.37194C3.78986 5.25111 3.40832 5.35999 3.0917 5.45034C2.82127 5.52751 2.5982 5.59117 2.50871 5.48662C2.46134 5.43127 2.3781 5.42559 2.3228 5.47393Z" fill="#FFC125"/>
<path d="M4.6396 2.70496L4.56482 2.69915V2.69915L4.6396 2.70496ZM4.78251 2.58234L4.77748 2.65717L4.78251 2.58234ZM5.09512 3.55688L5.14903 3.50473L5.149 3.50471L5.09512 3.55688ZM5.11209 3.57442L5.16604 3.52232L5.166 3.52227L5.11209 3.57442ZM5.20199 3.66442L5.14959 3.71808L5.25468 3.61104L5.20199 3.66442ZM5.30565 3.76545L5.25291 3.81877L5.25291 3.81877L5.30565 3.76545ZM5.52386 4.20711L5.45084 4.2242L5.45086 4.22431L5.52386 4.20711ZM5.53287 4.24534L5.45987 4.26254L5.45992 4.26276L5.53287 4.24534ZM5.58253 4.47825L5.5089 4.49321L5.51007 4.49757L5.58253 4.47825ZM5.58254 4.47825L5.65617 4.46329L5.655 4.45893L5.58254 4.47825ZM6.01112 5.58283L5.96672 5.64328H5.96672L6.01112 5.58283ZM6.52584 5.31089L6.58576 5.356V5.356L6.52584 5.31089ZM6.63792 5.21845L6.59626 5.15597L6.59317 5.15826L6.63792 5.21845ZM6.63793 5.21845L6.67958 5.28093L6.68267 5.27864L6.63793 5.21845ZM6.80012 5.04163L6.75572 5.10207V5.10207L6.80012 5.04163ZM6.10986 3.76545L6.17992 3.73847L6.17859 3.73544L6.10986 3.76545ZM5.34288 3.10935L5.30644 3.1749V3.1749L5.34288 3.10935ZM4.90499 2.72277L4.83021 2.71696V2.71696L4.90499 2.72277ZM8.64913 2.62869L8.61328 2.56282V2.56282L8.64913 2.62869ZM8.8298 2.68176L8.8953 2.64522V2.64522L8.8298 2.68176ZM8.18275 3.47472L8.25584 3.49152L8.25585 3.49149L8.18275 3.47472ZM8.17728 3.4985L8.25036 3.51537L8.25037 3.51531L8.17728 3.4985ZM8.15076 3.62292L8.07722 3.6082L8.22424 3.63796L8.15076 3.62292ZM8.12249 3.76488L8.19594 3.78006L8.19594 3.78006L8.12249 3.76488ZM7.87093 4.18843L7.81682 4.13649L7.81675 4.13658L7.87093 4.18843ZM7.84377 4.21681L7.78959 4.16495L7.78943 4.16511L7.84377 4.21681ZM7.67548 4.38531L7.62293 4.33181V4.33181L7.67548 4.38531ZM6.98253 5.34635L7.0574 5.35067V5.35067L6.98253 5.34635ZM7.49094 5.62992L7.48574 5.70474V5.70474L7.49094 5.62992ZM7.62951 5.67358L7.65562 5.60327V5.60327L7.62951 5.67358ZM7.86614 5.7133L7.79127 5.70899V5.70899L7.86614 5.7133ZM8.56049 4.43934L8.62127 4.48341L8.6231 4.48064L8.56049 4.43934ZM8.69301 3.43877L8.76784 3.43363V3.43363L8.69301 3.43877ZM8.77874 2.86097L8.74288 2.7951V2.7951L8.77874 2.86097ZM11.4161 5.03066L11.4348 4.95803V4.95803L11.4161 5.03066ZM11.3525 5.28893L11.3338 5.36156V5.36156L11.3525 5.28893ZM10.8957 5.65304L10.8375 5.60577V5.60577L10.8957 5.65304ZM10.1164 6.29443L10.1308 6.36811L10.134 6.36734L10.1164 6.29443ZM8.73974 6.7526L8.68792 6.69838H8.68792L8.73974 6.7526ZM8.59377 6.56217L8.52389 6.59013L8.52673 6.59579L8.59377 6.56217ZM8.59377 6.56217L8.66365 6.53422L8.66085 6.52863L8.59377 6.56217ZM8.59377 6.56216L8.66085 6.52862L8.66081 6.52855L8.59377 6.56216ZM8.5222 6.43574L8.46737 6.48691V6.48691L8.5222 6.43574ZM8.34376 5.88161L8.39558 5.93583V5.93583L8.34376 5.88161ZM9.50599 5.65135L9.50793 5.72633L9.50887 5.72629L9.50599 5.65135ZM9.506 5.65135L9.50406 5.57637L9.50312 5.5764L9.506 5.65135ZM9.74399 5.64288L9.73973 5.568L9.7395 5.56802L9.74399 5.64288ZM9.7832 5.64065L9.77905 5.56577L9.77894 5.56577L9.7832 5.64065ZM10.256 5.50244L10.2127 5.44125V5.44125L10.256 5.50244ZM10.3735 5.41796L10.3296 5.35712L10.3295 5.35716L10.3735 5.41796ZM10.3735 5.41791L10.3298 5.35698L10.3297 5.35706L10.3735 5.41791ZM10.4778 5.345L10.5197 5.40718L10.5198 5.40714L10.4778 5.345ZM10.498 5.33133L10.54 5.39347L10.54 5.39346L10.498 5.33133ZM2.30846 5.66169L2.36544 5.61292H2.36544L2.30846 5.66169ZM2.3228 5.47393L2.37217 5.5304L2.37217 5.53039L2.3228 5.47393ZM3.23296 5.94198L3.23175 6.01697H3.23175L3.23296 5.94198ZM3.25736 5.94239L3.25867 5.8674H3.25867L3.25736 5.94239ZM3.38457 5.94246L3.38546 6.01745L3.38389 5.86746L3.38457 5.94246ZM3.5293 5.9406L3.52972 6.0156H3.52972L3.5293 5.9406ZM3.99591 6.0986L4.03547 6.03488H4.03547L3.99591 6.0986ZM4.02931 6.11926L3.99004 6.18316H3.99004L4.02931 6.11926ZM4.22912 6.24884L4.18771 6.31137V6.31137L4.22912 6.24884ZM5.31324 6.72684L5.32458 6.80098H5.32458L5.31324 6.72684ZM5.4849 6.17058L5.55917 6.16011V6.16011L5.4849 6.17058ZM5.49879 6.02596L5.573 6.03688H5.573L5.49879 6.02596ZM5.48845 5.78624L5.47711 5.71211V5.71211L5.48845 5.78624ZM4.09797 5.37194L4.12843 5.30332L4.12535 5.30211L4.09797 5.37194ZM3.0917 5.45034L3.11228 5.52246H3.11228L3.0917 5.45034ZM2.50871 5.48662L2.56569 5.43785H2.56569L2.50871 5.48662ZM4.6396 2.70496L4.71437 2.71076C4.71679 2.67968 4.74466 2.65497 4.77748 2.65717L4.78251 2.58234L4.78753 2.50751C4.67378 2.49987 4.57369 2.58496 4.56482 2.69915L4.6396 2.70496ZM5.09512 3.55688L5.149 3.50471C5.06252 3.41539 4.94667 3.29547 4.85533 3.15567C4.7637 3.01543 4.7025 2.86371 4.71437 2.71076L4.6396 2.70496L4.56482 2.69915C4.54928 2.89934 4.62979 3.08472 4.72975 3.23772C4.83001 3.39116 4.95563 3.52063 5.04124 3.60905L5.09512 3.55688ZM5.11209 3.57442L5.166 3.52227L5.14903 3.50473L5.09512 3.55688L5.04122 3.60903L5.05819 3.62657L5.11209 3.57442ZM5.20199 3.66442L5.25439 3.61076C5.21984 3.57702 5.19255 3.54977 5.16604 3.52232L5.11209 3.57442L5.05814 3.62652C5.08599 3.65536 5.11439 3.6837 5.14959 3.71808L5.20199 3.66442ZM5.30565 3.76545L5.35838 3.71212C5.34698 3.70084 5.32081 3.67533 5.29776 3.65291C5.28618 3.64164 5.27529 3.63106 5.26731 3.62331C5.26332 3.61943 5.26005 3.61625 5.25778 3.61405C5.25664 3.61294 5.25575 3.61208 5.25515 3.6115C5.25485 3.61121 5.25462 3.61098 5.25446 3.61083C5.25439 3.61076 5.25433 3.6107 5.25429 3.61066C5.25427 3.61064 5.25425 3.61062 5.25424 3.61061C5.25423 3.61061 5.25423 3.6106 5.25422 3.61059C5.25422 3.61059 5.25421 3.61058 5.2542 3.61058C5.25419 3.61056 5.14837 3.61198 5.1493 3.71779L5.20199 3.66442L5.25468 3.61104C5.25562 3.71685 5.1498 3.71828 5.14978 3.71826C5.14978 3.71826 5.14977 3.71825 5.14977 3.71825C5.14977 3.71825 5.14977 3.71825 5.14977 3.71825C5.14978 3.71826 5.14979 3.71827 5.14981 3.71829C5.14985 3.71833 5.14991 3.71838 5.14998 3.71846C5.15014 3.71861 5.15037 3.71883 5.15066 3.71912C5.15126 3.7197 5.15215 3.72056 5.15328 3.72166C5.15554 3.72386 5.1588 3.72702 5.16279 3.73089C5.17075 3.73863 5.18161 3.74918 5.19316 3.76042C5.21638 3.78301 5.24204 3.80803 5.25291 3.81877L5.30565 3.76545ZM5.52386 4.20711L5.59689 4.19002C5.56017 4.03307 5.52411 3.87601 5.35838 3.71212L5.30565 3.76545L5.25291 3.81877C5.3861 3.95048 5.41482 4.07028 5.45084 4.2242L5.52386 4.20711ZM5.53287 4.24534L5.60587 4.22814L5.59687 4.18991L5.52386 4.20711L5.45086 4.22431L5.45987 4.26254L5.53287 4.24534ZM5.58253 4.47825L5.65603 4.46332C5.63835 4.37629 5.62191 4.29529 5.60582 4.22792L5.53287 4.24534L5.45992 4.26276C5.47529 4.32712 5.49119 4.40535 5.50904 4.49318L5.58253 4.47825ZM5.58254 4.47825L5.655 4.45893L5.655 4.45892L5.58253 4.47825L5.51007 4.49757L5.51007 4.49758L5.58254 4.47825ZM6.01112 5.58283L6.05552 5.52239C5.95637 5.44955 5.87471 5.29138 5.80763 5.08641C5.74191 4.88559 5.69556 4.65788 5.65603 4.46332L5.58254 4.47825L5.50904 4.49319C5.54823 4.6861 5.59617 4.92253 5.66507 5.13306C5.73261 5.33944 5.82588 5.53982 5.96672 5.64328L6.01112 5.58283ZM6.52584 5.31089L6.46592 5.26578C6.46659 5.26489 6.46201 5.27023 6.44647 5.28272C6.43274 5.29376 6.41437 5.30731 6.39241 5.32249C6.34858 5.35279 6.29297 5.38786 6.23682 5.41989C6.18026 5.45214 6.12534 5.48006 6.08245 5.4971C6.06068 5.50575 6.04499 5.51037 6.03526 5.51209C6.03042 5.51295 6.02967 5.51259 6.03183 5.51276C6.0335 5.51289 6.04384 5.51381 6.05552 5.52239L6.01112 5.58283L5.96672 5.64328C5.98574 5.65725 6.00619 5.66123 6.02038 5.66232C6.03505 5.66344 6.04922 5.66195 6.06134 5.65981C6.08556 5.65553 6.11204 5.64675 6.13782 5.6365C6.19006 5.61576 6.25187 5.58398 6.31113 5.55018C6.37079 5.51616 6.43008 5.4788 6.47771 5.44587C6.50149 5.42944 6.52299 5.41367 6.54045 5.39963C6.55612 5.38704 6.57406 5.37154 6.58576 5.356L6.52584 5.31089ZM6.63792 5.21845L6.59317 5.15826C6.56826 5.17679 6.54294 5.1956 6.5219 5.21246C6.50277 5.22778 6.48015 5.24688 6.46592 5.26578L6.52584 5.31089L6.58576 5.356C6.58561 5.35619 6.58755 5.35375 6.59357 5.34822C6.59914 5.3431 6.60649 5.33688 6.61568 5.32952C6.63417 5.31471 6.6571 5.29765 6.68267 5.27864L6.63792 5.21845ZM6.63793 5.21845L6.59632 5.15605L6.59632 5.15605L6.63792 5.21845L6.67952 5.28086L6.67953 5.28085L6.63793 5.21845ZM6.80012 5.04163L6.75572 5.10207C6.74512 5.09429 6.73514 5.08021 6.73327 5.06215C6.73176 5.04759 6.73644 5.03849 6.73663 5.03811C6.73664 5.03809 6.73216 5.04529 6.71631 5.06037C6.68663 5.08863 6.64081 5.12285 6.59318 5.15826L6.63793 5.21845L6.68267 5.27864C6.72767 5.24519 6.78197 5.20497 6.81973 5.16902C6.83761 5.152 6.85869 5.12965 6.87108 5.10461C6.87745 5.09173 6.88502 5.07125 6.88247 5.0467C6.87957 5.01864 6.86463 4.99595 6.84452 4.98118L6.80012 5.04163ZM6.10986 3.76545L6.03987 3.7924C6.16379 4.11425 6.27481 4.39061 6.38698 4.61002C6.49852 4.82819 6.61557 4.99912 6.75572 5.10207L6.80012 5.04163L6.84452 4.98118C6.73336 4.89953 6.6293 4.75446 6.52054 4.54174C6.41242 4.33026 6.30396 4.06083 6.17985 3.7385L6.10986 3.76545ZM5.34288 3.10935L5.30644 3.1749C5.45114 3.25535 5.60496 3.34102 5.73916 3.44331C5.87331 3.54556 5.98208 3.66023 6.04112 3.79546L6.10986 3.76545L6.17859 3.73544C6.1052 3.56736 5.97436 3.43398 5.83008 3.32401C5.68585 3.21407 5.52239 3.12335 5.37933 3.0438L5.34288 3.10935ZM4.90499 2.72277L4.83021 2.71696C4.82167 2.82698 4.8996 2.91147 4.98166 2.97542C5.06735 3.0422 5.18537 3.10759 5.30644 3.1749L5.34288 3.10935L5.37933 3.0438C5.25459 2.97445 5.14835 2.91516 5.07387 2.85711C4.99577 2.79624 4.97765 2.75576 4.97976 2.72857L4.90499 2.72277ZM4.78251 2.58234L4.77748 2.65717C4.80972 2.65933 4.83258 2.68651 4.83021 2.71696L4.90499 2.72277L4.97976 2.72857C4.98868 2.61375 4.90187 2.51518 4.78753 2.50751L4.78251 2.58234ZM8.64913 2.62869L8.68499 2.69457C8.71238 2.67966 8.74828 2.68958 8.76431 2.71831L8.8298 2.68176L8.8953 2.64522C8.83975 2.54567 8.71388 2.50806 8.61328 2.56282L8.64913 2.62869ZM8.18275 3.47472L8.25585 3.49149C8.28366 3.37031 8.32113 3.20784 8.38863 3.0551C8.45634 2.90187 8.55025 2.76791 8.68499 2.69457L8.64913 2.62869L8.61328 2.56282C8.43691 2.65882 8.3253 2.82731 8.25143 2.99447C8.17734 3.16212 8.13718 3.33799 8.10965 3.45794L8.18275 3.47472ZM8.17728 3.4985L8.25037 3.51531L8.25584 3.49152L8.18275 3.47472L8.10966 3.45791L8.10419 3.4817L8.17728 3.4985ZM8.15076 3.62292L8.2243 3.63764C8.23378 3.59029 8.24178 3.55255 8.25036 3.51537L8.17728 3.4985L8.1042 3.48164C8.09519 3.5207 8.08688 3.55995 8.07722 3.6082L8.15076 3.62292ZM8.12249 3.76488L8.19594 3.78006C8.19918 3.76435 8.20632 3.72851 8.21257 3.69697C8.21572 3.68112 8.21866 3.66623 8.22082 3.65531C8.2219 3.64984 8.22278 3.64537 8.22339 3.64227C8.2237 3.64071 8.22394 3.6395 8.2241 3.63868C8.22418 3.63827 8.22424 3.63795 8.22428 3.63774C8.22431 3.63763 8.22432 3.63755 8.22433 3.6375C8.22434 3.63747 8.22434 3.63745 8.22435 3.63743C8.22435 3.63743 8.22435 3.63742 8.22435 3.63741C8.22435 3.63741 8.22435 3.6374 8.22435 3.63739C8.22436 3.63737 8.1655 3.54938 8.07729 3.60788L8.15076 3.62292L8.22424 3.63796C8.13603 3.69646 8.07717 3.60847 8.07717 3.60845C8.07717 3.60844 8.07717 3.60844 8.07717 3.60844C8.07717 3.60843 8.07717 3.60844 8.07717 3.60844C8.07717 3.60845 8.07717 3.60847 8.07716 3.6085C8.07715 3.60855 8.07714 3.60863 8.07712 3.60873C8.07708 3.60894 8.07701 3.60925 8.07693 3.60966C8.07677 3.61048 8.07653 3.61169 8.07623 3.61324C8.07562 3.61633 8.07474 3.62079 8.07366 3.62624C8.07151 3.63714 8.06857 3.65199 8.06544 3.6678C8.05914 3.69957 8.05214 3.73472 8.04904 3.74969L8.12249 3.76488ZM7.87093 4.18843L7.92503 4.24037C8.03666 4.12409 8.14875 4.00831 8.19594 3.78006L8.12249 3.76488L8.04904 3.74969C8.01112 3.93313 7.92629 4.02246 7.81682 4.13649L7.87093 4.18843ZM7.84377 4.21681L7.89796 4.26866L7.92511 4.24029L7.87093 4.18843L7.81675 4.13658L7.78959 4.16495L7.84377 4.21681ZM7.67548 4.38531L7.72804 4.43882C7.79139 4.3766 7.85037 4.31868 7.89811 4.2685L7.84377 4.21681L7.78943 4.16511C7.74383 4.21306 7.68687 4.269 7.62293 4.33181L7.67548 4.38531ZM6.98253 5.34635L7.0574 5.35067C7.06449 5.22784 7.15267 5.07321 7.28804 4.90532C7.42067 4.74083 7.58639 4.57794 7.72804 4.43882L7.67548 4.38531L7.62293 4.33181C7.48249 4.46974 7.31031 4.63872 7.17127 4.81117C7.03497 4.98021 6.91771 5.16757 6.90765 5.34204L6.98253 5.34635ZM7.49094 5.62992L7.49614 5.5551C7.49725 5.55518 7.49027 5.55424 7.47134 5.54802C7.4546 5.54251 7.43323 5.53449 7.40854 5.52434C7.35925 5.50408 7.29956 5.47654 7.24211 5.44689C7.18426 5.41703 7.13093 5.38617 7.09328 5.35948C7.07417 5.34593 7.06174 5.3353 7.05501 5.32807C7.05165 5.32447 7.05154 5.32365 7.05258 5.32555C7.05338 5.32703 7.05824 5.33621 7.0574 5.35067L6.98253 5.34635L6.90765 5.34204C6.90629 5.3656 6.91409 5.38492 6.92091 5.39741C6.92796 5.41032 6.93693 5.42139 6.94533 5.4304C6.9621 5.44838 6.98389 5.4658 7.00652 5.48185C7.05237 5.51435 7.11268 5.54889 7.17331 5.58018C7.23434 5.61168 7.29796 5.64107 7.35152 5.66308C7.37825 5.67407 7.40319 5.68351 7.42447 5.69051C7.44356 5.69679 7.46633 5.70339 7.48574 5.70474L7.49094 5.62992ZM7.62951 5.67358L7.65562 5.60327C7.62651 5.59246 7.59694 5.58147 7.57135 5.57301C7.54807 5.56531 7.51973 5.55674 7.49614 5.5551L7.49094 5.62992L7.48574 5.70474C7.4855 5.70473 7.4886 5.70502 7.49652 5.70706C7.50384 5.70894 7.51307 5.71172 7.52424 5.71542C7.54673 5.72286 7.57353 5.7328 7.6034 5.74389L7.62951 5.67358ZM7.86614 5.7133L7.79127 5.70899C7.79202 5.69586 7.79839 5.67982 7.81252 5.66842C7.82391 5.65922 7.83409 5.65819 7.83451 5.65814C7.83454 5.65813 7.82606 5.6583 7.80478 5.65322C7.76491 5.64372 7.71126 5.62393 7.65562 5.60327L7.62951 5.67358L7.6034 5.74389C7.65596 5.7634 7.71927 5.78704 7.76999 5.79913C7.794 5.80486 7.82422 5.81037 7.85196 5.80712C7.86624 5.80544 7.88753 5.80064 7.90674 5.78513C7.92869 5.76741 7.93958 5.74253 7.94102 5.71762L7.86614 5.7133ZM8.56049 4.43934L8.49977 4.39532C8.29734 4.67455 8.12603 4.91817 8.00311 5.13175C7.88088 5.34411 7.80128 5.53538 7.79127 5.70899L7.86614 5.7133L7.94102 5.71762C7.94896 5.57992 8.01394 5.41364 8.13311 5.20657C8.25159 5.00071 8.41848 4.763 8.62121 4.48336L8.56049 4.43934ZM8.69301 3.43877L8.61819 3.4439C8.62953 3.60907 8.64146 3.78474 8.62876 3.953C8.61607 4.1212 8.57914 4.27487 8.49789 4.39804L8.56049 4.43934L8.6231 4.48064C8.72409 4.32755 8.76469 4.14518 8.77834 3.96428C8.79198 3.78344 8.77905 3.59694 8.76784 3.43363L8.69301 3.43877ZM8.77874 2.86097L8.74288 2.7951C8.64596 2.84785 8.61755 2.95923 8.6086 3.06288C8.59926 3.17111 8.6087 3.30571 8.61819 3.4439L8.69301 3.43877L8.76784 3.43363C8.75806 3.29125 8.74993 3.16985 8.75805 3.07578C8.76656 2.97712 8.79064 2.93988 8.81459 2.92685L8.77874 2.86097ZM8.8298 2.68176L8.76431 2.71831C8.78005 2.74652 8.76971 2.78049 8.74288 2.7951L8.77874 2.86097L8.81459 2.92685C8.91575 2.87179 8.95114 2.74529 8.8953 2.64522L8.8298 2.68176ZM11.512 5.19269L11.5848 5.21063C11.6121 5.09994 11.5457 4.98659 11.4348 4.95803L11.4161 5.03066L11.3974 5.10329C11.4276 5.11107 11.4471 5.14281 11.4392 5.17475L11.512 5.19269ZM11.3525 5.28893L11.3338 5.36156C11.4453 5.39028 11.5574 5.3219 11.5848 5.21063L11.512 5.19269L11.4392 5.17475C11.4315 5.20612 11.4007 5.22392 11.3712 5.2163L11.3525 5.28893ZM10.8957 5.65304L10.9539 5.70031C11.0439 5.58952 11.1207 5.49518 11.1908 5.43192C11.2643 5.36557 11.3073 5.35476 11.3338 5.36156L11.3525 5.28893L11.3712 5.2163C11.2643 5.18878 11.1676 5.25086 11.0903 5.32056C11.0097 5.39335 10.9248 5.49823 10.8375 5.60577L10.8957 5.65304ZM10.1164 6.29443L10.134 6.36734C10.3123 6.32425 10.4664 6.21856 10.5997 6.09557C10.733 5.97261 10.8508 5.8274 10.9539 5.70031L10.8957 5.65304L10.8375 5.60577C10.7331 5.7343 10.622 5.87091 10.498 5.9853C10.374 6.09967 10.2422 6.18687 10.0988 6.22153L10.1164 6.29443ZM8.73974 6.7526L8.79155 6.80683C8.89127 6.71153 9.0522 6.63424 9.28058 6.56408C9.50762 6.49432 9.7918 6.4343 10.1308 6.36804L10.1164 6.29443L10.102 6.22083C9.76352 6.28698 9.47209 6.34832 9.23653 6.42069C9.00231 6.49265 8.81364 6.57824 8.68792 6.69838L8.73974 6.7526ZM8.59377 6.56217L8.52673 6.59579C8.55186 6.64591 8.58204 6.70637 8.61088 6.7498C8.62454 6.77036 8.64288 6.795 8.66539 6.81155C8.67697 6.82006 8.69582 6.83107 8.72044 6.83283C8.74858 6.83484 8.77352 6.82406 8.79155 6.80683L8.73974 6.7526L8.68792 6.69838C8.69743 6.6893 8.71302 6.68191 8.73114 6.68321C8.74574 6.68425 8.75389 6.69044 8.75423 6.69069C8.75425 6.6907 8.74794 6.68504 8.73583 6.66682C8.71316 6.63268 8.68742 6.58161 8.66081 6.52855L8.59377 6.56217ZM8.59377 6.56217L8.52413 6.59002L8.52413 6.59003L8.59377 6.56217L8.66341 6.53432L8.6634 6.53431L8.59377 6.56217ZM8.59377 6.56216L8.52668 6.5957L8.52669 6.59571L8.59377 6.56217L8.66085 6.52863L8.66085 6.52862L8.59377 6.56216ZM8.5222 6.43574L8.46737 6.48691C8.46721 6.48674 8.46927 6.48907 8.47367 6.49596C8.47774 6.50233 8.48259 6.51065 8.48824 6.52097C8.49962 6.54175 8.51244 6.5673 8.52672 6.59578L8.59377 6.56216L8.66081 6.52855C8.64689 6.5008 8.63276 6.47259 8.61982 6.44894C8.60805 6.42745 8.59317 6.40185 8.57703 6.38456L8.5222 6.43574ZM8.34376 5.88161L8.29195 5.82739C8.27488 5.8437 8.26741 5.86314 8.26388 5.87693C8.26022 5.89118 8.25924 5.90539 8.25924 5.9177C8.25924 5.9423 8.2633 5.96989 8.26891 5.99707C8.28027 6.05211 8.30082 6.1185 8.32382 6.18273C8.34697 6.2474 8.37346 6.31228 8.39762 6.3649C8.40968 6.39117 8.42147 6.41508 8.43227 6.43472C8.44195 6.45233 8.45409 6.47269 8.46737 6.48691L8.5222 6.43574L8.57703 6.38456C8.57779 6.38537 8.57332 6.37993 8.56372 6.36247C8.55523 6.34702 8.54508 6.32658 8.53394 6.30232C8.51171 6.25389 8.48683 6.19304 8.46504 6.13217C8.4431 6.07088 8.42514 6.01194 8.41581 5.96675C8.41107 5.9438 8.40924 5.92755 8.40924 5.91767C8.40924 5.91275 8.40972 5.91208 8.40918 5.91417C8.40876 5.9158 8.40605 5.92582 8.39558 5.93583L8.34376 5.88161ZM9.50599 5.65135L9.50404 5.57637C9.30726 5.58147 9.06609 5.58763 8.84679 5.61892C8.63182 5.64959 8.41829 5.70665 8.29195 5.82739L8.34376 5.88161L8.39558 5.93583C8.48453 5.85083 8.65448 5.79788 8.86798 5.76742C9.07716 5.73757 9.30946 5.73146 9.50793 5.72632L9.50599 5.65135ZM9.506 5.65135L9.50312 5.5764L9.5031 5.5764L9.50599 5.65135L9.50887 5.72629L9.50889 5.72629L9.506 5.65135ZM9.74399 5.64288L9.7395 5.56802C9.67345 5.57197 9.59365 5.57405 9.50406 5.57637L9.506 5.65135L9.50795 5.72632C9.59671 5.72402 9.67934 5.72189 9.74847 5.71775L9.74399 5.64288ZM9.7832 5.64065L9.77894 5.56577L9.73973 5.568L9.74399 5.64288L9.74825 5.71776L9.78746 5.71553L9.7832 5.64065ZM10.256 5.50244L10.2127 5.44125C10.0598 5.54954 9.93688 5.55703 9.77905 5.56577L9.7832 5.64065L9.78734 5.71554C9.94829 5.70662 10.1092 5.69839 10.2994 5.56364L10.256 5.50244ZM10.3735 5.41796L10.3295 5.35716C10.3264 5.35942 10.2375 5.42369 10.2127 5.44125L10.256 5.50244L10.2994 5.56364C10.3249 5.54557 10.4147 5.48071 10.4174 5.47875L10.3735 5.41796ZM10.3735 5.41791L10.3297 5.35706L10.3296 5.35712L10.3735 5.41796L10.4173 5.4788L10.4174 5.47875L10.3735 5.41791ZM10.4778 5.345L10.4358 5.28282C10.4026 5.30524 10.3698 5.32828 10.3298 5.35698L10.3735 5.41791L10.4173 5.47883C10.4565 5.45066 10.4881 5.42851 10.5197 5.40718L10.4778 5.345ZM10.498 5.33133L10.456 5.26919L10.4358 5.28286L10.4778 5.345L10.5198 5.40714L10.54 5.39347L10.498 5.33133ZM11.4161 5.03066L11.4348 4.95803C11.2403 4.90796 11.0438 4.95506 10.8758 5.02694C10.7072 5.09903 10.5579 5.20025 10.456 5.26921L10.498 5.33133L10.54 5.39346C10.643 5.3238 10.7812 5.23053 10.9348 5.16485C11.0888 5.09897 11.2488 5.06504 11.3974 5.10329L11.4161 5.03066ZM2.30846 5.66169L2.36544 5.61292C2.34516 5.58923 2.3474 5.55205 2.37217 5.5304L2.3228 5.47393L2.27344 5.41746C2.18761 5.4925 2.177 5.62344 2.25148 5.71045L2.30846 5.66169ZM3.23296 5.94198L3.23417 5.86699C3.10986 5.86499 2.94314 5.86211 2.7797 5.82785C2.61574 5.79347 2.46519 5.72947 2.36544 5.61292L2.30846 5.66169L2.25148 5.71045C2.38204 5.863 2.57006 5.93715 2.74892 5.97465C2.92832 6.01226 3.10869 6.01499 3.23175 6.01697L3.23296 5.94198ZM3.25736 5.94239L3.25867 5.8674C3.25072 5.86726 3.24253 5.86713 3.23417 5.86699L3.23296 5.94198L3.23175 6.01697C3.24013 6.01711 3.24822 6.01724 3.25606 6.01737L3.25736 5.94239ZM3.38457 5.94246L3.38368 5.86746C3.33539 5.86803 3.29682 5.86806 3.25867 5.8674L3.25736 5.94239L3.25606 6.01737C3.29614 6.01807 3.33626 6.01803 3.38546 6.01745L3.38457 5.94246ZM3.5293 5.9406L3.52889 5.8656C3.51285 5.86569 3.4763 5.86616 3.44415 5.8666C3.42799 5.86682 3.41282 5.86704 3.40169 5.8672C3.39612 5.86728 3.39156 5.86734 3.3884 5.86739C3.38681 5.86741 3.38558 5.86743 3.38474 5.86744C3.38432 5.86745 3.384 5.86746 3.38378 5.86746C3.38368 5.86746 3.38359 5.86746 3.38354 5.86746C3.38351 5.86746 3.38349 5.86746 3.38347 5.86746C3.38346 5.86746 3.38346 5.86746 3.38345 5.86746C3.38345 5.86746 3.38344 5.86746 3.38343 5.86746C3.38342 5.86746 3.30958 5.94338 3.38525 6.01745L3.38457 5.94246L3.38389 5.86746C3.45957 5.94153 3.38573 6.01745 3.38571 6.01745C3.38571 6.01745 3.3857 6.01745 3.3857 6.01745C3.3857 6.01745 3.3857 6.01745 3.38571 6.01745C3.38572 6.01745 3.38574 6.01745 3.38577 6.01745C3.38582 6.01745 3.3859 6.01744 3.38601 6.01744C3.38622 6.01744 3.38654 6.01743 3.38696 6.01743C3.38779 6.01742 3.38902 6.0174 3.3906 6.01737C3.39375 6.01733 3.3983 6.01726 3.40385 6.01718C3.41496 6.01702 3.4301 6.01681 3.44621 6.01658C3.4786 6.01614 3.51444 6.01568 3.52972 6.0156L3.5293 5.9406ZM3.99591 6.0986L4.03547 6.03488C3.89852 5.94986 3.76196 5.8643 3.52889 5.8656L3.5293 5.9406L3.52972 6.0156C3.71703 6.01455 3.82206 6.07895 3.95636 6.16232L3.99591 6.0986ZM4.02931 6.11926L4.06858 6.05536C4.05748 6.04854 4.04651 6.04173 4.03547 6.03488L3.99591 6.0986L3.95636 6.16232C3.96735 6.16914 3.97861 6.17613 3.99004 6.18316L4.02931 6.11926ZM4.22912 6.24884L4.27054 6.18631C4.1965 6.13727 4.12759 6.09162 4.06858 6.05536L4.02931 6.11926L3.99004 6.18316C4.04642 6.2178 4.11299 6.26188 4.18771 6.31137L4.22912 6.24884ZM5.31324 6.72684L5.30189 6.6527C5.18027 6.67131 5.01068 6.61721 4.81832 6.5197C4.62985 6.42417 4.43606 6.29593 4.27054 6.18631L4.22912 6.24884L4.18771 6.31137C4.35183 6.42006 4.55292 6.55335 4.7505 6.6535C4.94419 6.75167 5.15183 6.82741 5.32458 6.80098L5.31324 6.72684ZM5.4849 6.17058L5.41064 6.18105C5.41048 6.17995 5.41102 6.18697 5.40886 6.20678C5.40696 6.2243 5.40355 6.24687 5.39876 6.27313C5.38919 6.32556 5.37466 6.38967 5.3576 6.45203C5.34042 6.51482 5.32133 6.5734 5.30305 6.61578C5.29377 6.63729 5.28595 6.65165 5.28029 6.65974C5.27746 6.66378 5.27668 6.66405 5.27832 6.66265C5.2796 6.66155 5.28757 6.65489 5.30189 6.6527L5.31324 6.72684L5.32458 6.80098C5.34791 6.79741 5.36519 6.78576 5.37599 6.7765C5.38715 6.76692 5.39612 6.75584 5.40318 6.74576C5.41728 6.72561 5.42979 6.70068 5.44078 6.6752C5.46304 6.62359 5.48428 6.55742 5.50229 6.49161C5.52041 6.42537 5.53593 6.35703 5.54632 6.30006C5.55151 6.27163 5.55556 6.24527 5.55798 6.223C5.56016 6.20302 5.56188 6.17937 5.55917 6.16011L5.4849 6.17058ZM5.49879 6.02596L5.42459 6.01505C5.42007 6.04576 5.41547 6.07697 5.41251 6.10377C5.40982 6.12813 5.40733 6.15763 5.41064 6.18105L5.4849 6.17058L5.55917 6.16011C5.5592 6.16035 5.55885 6.15725 5.55919 6.14909C5.55951 6.14153 5.56031 6.13193 5.56161 6.12023C5.56421 6.09669 5.56836 6.0684 5.573 6.03688L5.49879 6.02596ZM5.48845 5.78624L5.4998 5.86038C5.4868 5.86237 5.46979 5.85947 5.45569 5.84802C5.44433 5.83879 5.4412 5.82905 5.44107 5.82865C5.44106 5.82863 5.44298 5.83688 5.44244 5.85876C5.44143 5.89973 5.43323 5.95632 5.42459 6.01505L5.49879 6.02596L5.573 6.03688C5.58116 5.98141 5.59111 5.91458 5.5924 5.86245C5.59301 5.83777 5.59211 5.80706 5.58316 5.7806C5.57856 5.76699 5.56943 5.74716 5.55027 5.7316C5.52838 5.71381 5.50177 5.70833 5.47711 5.71211L5.48845 5.78624ZM4.09797 5.37194L4.06753 5.44048C4.38275 5.58044 4.65666 5.69735 4.89113 5.77318C5.12427 5.84858 5.3279 5.88668 5.4998 5.86038L5.48845 5.78624L5.47711 5.71211C5.34077 5.73297 5.16461 5.70398 4.93729 5.63046C4.71129 5.55737 4.44408 5.44355 4.1284 5.30339L4.09797 5.37194ZM3.0917 5.45034L3.11228 5.52246C3.27149 5.47703 3.44083 5.42884 3.60805 5.40627C3.77522 5.38371 3.93321 5.38789 4.07059 5.44176L4.09797 5.37194L4.12535 5.30211C3.95461 5.23516 3.76777 5.23336 3.58799 5.25762C3.40826 5.28188 3.22853 5.3333 3.07112 5.37822L3.0917 5.45034ZM2.50871 5.48662L2.45173 5.53539C2.52349 5.61922 2.63833 5.62386 2.74158 5.61106C2.84939 5.59769 2.97908 5.56047 3.11228 5.52246L3.0917 5.45034L3.07112 5.37822C2.93389 5.41738 2.81683 5.45058 2.72312 5.4622C2.62485 5.47438 2.58342 5.45857 2.56569 5.43785L2.50871 5.48662ZM2.3228 5.47393L2.37217 5.53039C2.39649 5.50913 2.43187 5.51218 2.45173 5.53539L2.50871 5.48662L2.56569 5.43785C2.4908 5.35036 2.35972 5.34204 2.27344 5.41746L2.3228 5.47393Z" fill="#984111"/>
<path fill-rule="evenodd" clip-rule="evenodd" d="M4.75565 11.2458C4.68236 11.2507 4.61838 11.1958 4.61274 11.1232C4.58532 10.77 4.89617 10.449 5.06827 10.2712L5.08524 10.2537C5.11241 10.2256 5.14026 10.1978 5.17514 10.1637C5.17512 10.1637 5.25652 10.0847 5.27879 10.0627C5.42825 9.91488 5.46064 9.77645 5.49701 9.62101L5.50602 9.58279C5.52174 9.51692 5.53792 9.4373 5.55568 9.34988L5.55568 9.34987C5.6344 8.9624 5.74427 8.42159 5.98427 8.24529C6.04304 8.20211 6.45485 8.45862 6.49899 8.51724C6.51455 8.53792 6.56058 8.57214 6.61107 8.60967L6.61107 8.60968C6.70369 8.67854 6.81131 8.75855 6.77326 8.7865C6.52196 8.9711 6.33104 9.41849 6.083 10.0627C5.95057 10.366 5.60379 10.5588 5.31603 10.7188C5.07023 10.8554 4.86748 10.9682 4.87813 11.1054C4.88377 11.178 4.82894 11.2409 4.75565 11.2458ZM8.80295 11.1464C8.76716 11.2105 8.68627 11.2343 8.62228 11.1994C8.31117 11.0301 8.21123 10.5945 8.15589 10.3534L8.15042 10.3296C8.14162 10.2915 8.13348 10.253 8.12391 10.2052C8.12391 10.2052 8.10198 10.0939 8.09563 10.0632C8.05308 9.85741 7.95462 9.75485 7.84407 9.63969L7.81692 9.61132C7.77015 9.56216 7.71133 9.50441 7.64649 9.44077L7.64647 9.44075L7.64646 9.44074C7.35983 9.15937 6.95567 8.76263 6.95567 8.48177C6.95567 8.3542 7.39088 8.20329 7.46408 8.1982C7.48991 8.19641 7.54368 8.17644 7.60265 8.15455C7.71086 8.11437 7.83657 8.0677 7.83929 8.11482C7.85724 8.42613 8.12847 8.82991 8.53364 9.38878C8.71588 9.66504 8.68871 10.0609 8.66616 10.3894C8.6469 10.6699 8.63101 10.9014 8.75188 10.9672C8.81588 11.002 8.83874 11.0822 8.80295 11.1464ZM11.3892 8.79746C11.4598 8.77929 11.5027 8.70675 11.4852 8.63543C11.4676 8.56411 11.3962 8.52103 11.3256 8.53919C11.1923 8.57351 11.0461 8.39342 10.8688 8.17508C10.6613 7.91947 10.4112 7.61144 10.0895 7.53369C9.41207 7.40128 8.93832 7.29096 8.71288 7.07552C8.67876 7.04291 8.61865 7.16278 8.56691 7.26595L8.56691 7.26596L8.56691 7.26596C8.53871 7.32219 8.513 7.37347 8.49534 7.39239C8.44528 7.44603 8.26418 7.89613 8.31691 7.94651C8.5322 8.15225 9.08388 8.16654 9.47913 8.17678L9.47915 8.17678C9.56833 8.17909 9.64954 8.18119 9.71713 8.18524L9.75634 8.18747C9.91573 8.1963 10.0577 8.20416 10.2292 8.32568C10.2543 8.34349 10.3437 8.40806 10.3466 8.41017L10.3467 8.41022C10.3863 8.43865 10.4185 8.46125 10.4509 8.48313L10.4711 8.49679C10.6761 8.63541 11.0462 8.88579 11.3892 8.79746ZM2.29595 8.3542C2.24065 8.30585 2.23423 8.22179 2.2816 8.16644C2.51192 7.89734 2.95873 7.89013 3.2061 7.88614C3.21447 7.88601 3.22261 7.88588 3.23051 7.88574C3.26962 7.88506 3.30897 7.88509 3.35772 7.88567C3.35769 7.88567 3.47112 7.88735 3.50245 7.88753C3.71264 7.8887 3.83343 7.81372 3.96906 7.72953C3.98007 7.72269 3.99119 7.71579 4.00245 7.70887C4.06015 7.67341 4.12789 7.62855 4.20227 7.57929C4.53191 7.36097 4.99202 7.05624 5.28638 7.10129C5.35847 7.11232 5.46829 7.58489 5.45805 7.65754C5.45443 7.68318 5.46278 7.73992 5.47194 7.80216C5.48874 7.91635 5.50826 8.04902 5.4616 8.04188C5.15336 7.99472 4.70201 8.17607 4.07111 8.45619C3.763 8.57701 3.38146 8.46814 3.06485 8.37778C2.79441 8.30061 2.57134 8.23695 2.48186 8.3415C2.43448 8.39686 2.35125 8.40254 2.29595 8.3542Z" fill="#FFC125"/>
<path d="M4.61274 11.1232L4.53797 11.129V11.129L4.61274 11.1232ZM4.75565 11.2458L4.75063 11.171L4.75565 11.2458ZM5.06827 10.2712L5.12217 10.3234L5.12215 10.3234L5.06827 10.2712ZM5.08524 10.2537L5.13919 10.3058L5.13914 10.3059L5.08524 10.2537ZM5.17514 10.1637L5.12274 10.11L5.22783 10.2171L5.17514 10.1637ZM5.27879 10.0627L5.22606 10.0094L5.22606 10.0094L5.27879 10.0627ZM5.49701 9.62101L5.42398 9.60393L5.42401 9.60381L5.49701 9.62101ZM5.50602 9.58279L5.43301 9.56559L5.43307 9.56537L5.50602 9.58279ZM5.55568 9.34988L5.48205 9.33492L5.48321 9.33055L5.55568 9.34988ZM5.55568 9.34987L5.62931 9.36483L5.62815 9.3692L5.55568 9.34987ZM5.98427 8.24529L5.93986 8.18485H5.93986L5.98427 8.24529ZM6.49899 8.51724L6.5589 8.47213V8.47213L6.49899 8.51724ZM6.61107 8.60967L6.56941 8.67216L6.56632 8.66986L6.61107 8.60967ZM6.61107 8.60968L6.65273 8.54719L6.65582 8.54949L6.61107 8.60968ZM6.77326 8.7865L6.72886 8.72605V8.72605L6.77326 8.7865ZM6.083 10.0627L6.15306 10.0897L6.15173 10.0927L6.083 10.0627ZM5.31603 10.7188L5.27958 10.6532V10.6532L5.31603 10.7188ZM4.87813 11.1054L4.80336 11.1112V11.1112L4.87813 11.1054ZM8.62228 11.1994L8.58642 11.2653V11.2653L8.62228 11.1994ZM8.80295 11.1464L8.86844 11.1829V11.1829L8.80295 11.1464ZM8.15589 10.3534L8.22899 10.3366L8.22899 10.3366L8.15589 10.3534ZM8.15042 10.3296L8.2235 10.3128L8.22352 10.3128L8.15042 10.3296ZM8.12391 10.2052L8.05037 10.2199L8.19738 10.1902L8.12391 10.2052ZM8.09563 10.0632L8.16908 10.0481L8.16908 10.0481L8.09563 10.0632ZM7.84407 9.63969L7.78997 9.69163L7.78989 9.69155L7.84407 9.63969ZM7.81692 9.61132L7.76273 9.66317L7.76258 9.66301L7.81692 9.61132ZM7.64649 9.44077L7.59395 9.49429L7.59391 9.49425L7.64649 9.44077ZM7.64647 9.44075L7.69853 9.38676L7.69906 9.38727L7.64647 9.44075ZM7.64646 9.44074L7.5944 9.49473L7.59392 9.49426L7.64646 9.44074ZM7.46408 8.1982L7.45889 8.12338V8.12338L7.46408 8.1982ZM7.60265 8.15455L7.62876 8.22486V8.22486L7.60265 8.15455ZM7.83929 8.11482L7.76441 8.11914V8.11914L7.83929 8.11482ZM8.53364 9.38878L8.59442 9.34472L8.59624 9.34748L8.53364 9.38878ZM8.66616 10.3894L8.74098 10.3945V10.3945L8.66616 10.3894ZM8.75188 10.9672L8.71603 11.033V11.033L8.75188 10.9672ZM11.3892 8.79746L11.4079 8.87009V8.87009L11.3892 8.79746ZM11.3256 8.53919L11.3069 8.46656V8.46656L11.3256 8.53919ZM10.8688 8.17508L10.8106 8.22236V8.22236L10.8688 8.17508ZM10.0895 7.53369L10.1039 7.46001L10.1072 7.46079L10.0895 7.53369ZM8.71288 7.07552L8.66107 7.12974H8.66107L8.71288 7.07552ZM8.56691 7.26595L8.49703 7.238L8.49987 7.23233L8.56691 7.26595ZM8.56691 7.26596L8.63679 7.29391L8.63399 7.2995L8.56691 7.26596ZM8.56691 7.26596L8.63399 7.2995L8.63395 7.29958L8.56691 7.26596ZM8.49534 7.39239L8.44051 7.34121V7.34121L8.49534 7.39239ZM8.31691 7.94651L8.36872 7.89229V7.89229L8.31691 7.94651ZM9.47913 8.17678L9.48107 8.1018L9.48201 8.10183L9.47913 8.17678ZM9.47915 8.17678L9.47721 8.25176L9.47627 8.25172L9.47915 8.17678ZM9.71713 8.18524L9.71287 8.26012L9.71265 8.26011L9.71713 8.18524ZM9.75634 8.18747L9.7522 8.26236L9.75208 8.26235L9.75634 8.18747ZM10.2292 8.32568L10.1858 8.38688V8.38688L10.2292 8.32568ZM10.3466 8.41017L10.3028 8.47101L10.3027 8.47096L10.3466 8.41017ZM10.3467 8.41022L10.3029 8.47114L10.3028 8.47106L10.3467 8.41022ZM10.4509 8.48313L10.4929 8.42095L10.4929 8.42099L10.4509 8.48313ZM10.4711 8.49679L10.5131 8.43465L10.5132 8.43467L10.4711 8.49679ZM2.2816 8.16644L2.33858 8.21521H2.33858L2.2816 8.16644ZM2.29595 8.3542L2.34531 8.29773L2.34531 8.29773L2.29595 8.3542ZM3.2061 7.88614L3.20489 7.81115H3.20489L3.2061 7.88614ZM3.23051 7.88574L3.23181 7.96073H3.23181L3.23051 7.88574ZM3.35772 7.88567L3.35861 7.81067L3.35703 7.96067L3.35772 7.88567ZM3.50245 7.88753L3.50287 7.81253H3.50287L3.50245 7.88753ZM3.96906 7.72953L4.00861 7.79325H4.00861L3.96906 7.72953ZM4.00245 7.70887L3.96319 7.64497H3.96319L4.00245 7.70887ZM4.20227 7.57929L4.16086 7.51676V7.51676L4.20227 7.57929ZM5.28638 7.10129L5.29772 7.02715H5.29772L5.28638 7.10129ZM5.45805 7.65754L5.53231 7.66802V7.66802L5.45805 7.65754ZM5.47194 7.80216L5.54614 7.79125H5.54614L5.47194 7.80216ZM5.4616 8.04188L5.45025 8.11602V8.11602L5.4616 8.04188ZM4.07111 8.45619L4.10157 8.5248L4.09849 8.52601L4.07111 8.45619ZM3.06485 8.37778L3.08543 8.30566H3.08543L3.06485 8.37778ZM2.48186 8.3415L2.53884 8.39027H2.53884L2.48186 8.3415ZM4.61274 11.1232L4.68752 11.1174C4.68993 11.1484 4.7178 11.1732 4.75063 11.171L4.75565 11.2458L4.76067 11.3206C4.64693 11.3283 4.54683 11.2432 4.53797 11.129L4.61274 11.1232ZM5.06827 10.2712L5.12215 10.3234C5.03566 10.4127 4.91981 10.5327 4.82847 10.6725C4.73684 10.8127 4.67564 10.9644 4.68752 11.1174L4.61274 11.1232L4.53797 11.129C4.52242 10.9288 4.60294 10.7434 4.7029 10.5904C4.80316 10.437 4.92877 10.3075 5.01438 10.2191L5.06827 10.2712ZM5.08524 10.2537L5.13914 10.3059L5.12217 10.3234L5.06827 10.2712L5.01436 10.2191L5.03133 10.2016L5.08524 10.2537ZM5.17514 10.1637L5.22754 10.2174C5.19298 10.2511 5.16569 10.2784 5.13919 10.3058L5.08524 10.2537L5.03129 10.2016C5.05914 10.1728 5.08753 10.1444 5.12274 10.11L5.17514 10.1637ZM5.27879 10.0627L5.33153 10.116C5.32012 10.1273 5.29395 10.1528 5.27091 10.1752C5.25932 10.1865 5.24844 10.1971 5.24045 10.2048C5.23646 10.2087 5.23319 10.2119 5.23092 10.2141C5.22978 10.2152 5.2289 10.216 5.2283 10.2166C5.228 10.2169 5.22776 10.2171 5.22761 10.2173C5.22753 10.2174 5.22747 10.2174 5.22743 10.2175C5.22741 10.2175 5.2274 10.2175 5.22738 10.2175C5.22738 10.2175 5.22737 10.2175 5.22737 10.2175C5.22736 10.2175 5.22735 10.2175 5.22735 10.2175C5.22733 10.2176 5.12151 10.2161 5.12245 10.1103L5.17514 10.1637L5.22783 10.2171C5.22876 10.1113 5.12294 10.1098 5.12293 10.1099C5.12292 10.1099 5.12291 10.1099 5.12291 10.1099C5.12291 10.1099 5.12291 10.1099 5.12292 10.1099C5.12292 10.1099 5.12294 10.1099 5.12296 10.1098C5.12299 10.1098 5.12305 10.1097 5.12313 10.1097C5.12328 10.1095 5.12351 10.1093 5.12381 10.109C5.12441 10.1084 5.12529 10.1076 5.12642 10.1065C5.12869 10.1043 5.13195 10.1011 5.13593 10.0972C5.1439 10.0895 5.15475 10.0789 5.1663 10.0677C5.18952 10.0451 5.21519 10.0201 5.22606 10.0094L5.27879 10.0627ZM5.49701 9.62101L5.57004 9.6381C5.53331 9.79505 5.49726 9.95212 5.33153 10.116L5.27879 10.0627L5.22606 10.0094C5.35924 9.87764 5.38797 9.75784 5.42398 9.60393L5.49701 9.62101ZM5.50602 9.58279L5.57902 9.59999L5.57001 9.63821L5.49701 9.62101L5.42401 9.60381L5.43301 9.56559L5.50602 9.58279ZM5.55568 9.34988L5.62918 9.36481C5.6115 9.45183 5.59505 9.53284 5.57896 9.60021L5.50602 9.58279L5.43307 9.56537C5.44843 9.50101 5.46434 9.42278 5.48218 9.33495L5.55568 9.34988ZM5.55568 9.34987L5.62815 9.3692L5.62815 9.3692L5.55568 9.34988L5.48321 9.33055L5.48321 9.33055L5.55568 9.34987ZM5.98427 8.24529L6.02867 8.30574C5.92951 8.37857 5.84785 8.53675 5.78077 8.74172C5.71506 8.94254 5.6687 9.17025 5.62918 9.3648L5.55568 9.34987L5.48218 9.33494C5.52137 9.14203 5.56932 8.9056 5.63821 8.69506C5.70575 8.48869 5.79902 8.2883 5.93986 8.18485L5.98427 8.24529ZM6.49899 8.51724L6.43907 8.56235C6.43974 8.56324 6.43515 8.55789 6.41962 8.54541C6.40588 8.53436 6.38751 8.52082 6.36556 8.50564C6.32172 8.47533 6.26612 8.44027 6.20996 8.40824C6.15341 8.37599 6.09849 8.34806 6.0556 8.33103C6.03382 8.32238 6.01813 8.31775 6.00841 8.31603C6.00356 8.31518 6.00281 8.31553 6.00497 8.31537C6.00665 8.31524 6.01699 8.31431 6.02867 8.30574L5.98427 8.24529L5.93986 8.18485C5.95889 8.17087 5.97933 8.16689 5.99352 8.16581C6.00819 8.16468 6.02236 8.16618 6.03449 8.16832C6.0587 8.17259 6.08518 8.18138 6.11097 8.19162C6.1632 8.21237 6.22501 8.24414 6.28428 8.27794C6.34393 8.31197 6.40323 8.34932 6.45086 8.38225C6.47463 8.39869 6.49614 8.41446 6.5136 8.4285C6.52926 8.44109 6.5472 8.45659 6.5589 8.47213L6.49899 8.51724ZM6.61107 8.60967L6.56632 8.66986C6.5414 8.65134 6.51608 8.63252 6.49504 8.61567C6.47591 8.60035 6.45329 8.58124 6.43907 8.56235L6.49899 8.51724L6.5589 8.47213C6.55876 8.47194 6.5607 8.47437 6.56672 8.47991C6.57228 8.48502 6.57964 8.49124 6.58882 8.4986C6.60731 8.51341 6.63024 8.53047 6.65581 8.54949L6.61107 8.60967ZM6.61107 8.60968L6.56947 8.67208L6.56946 8.67208L6.61107 8.60967L6.65267 8.54727L6.65267 8.54727L6.61107 8.60968ZM6.77326 8.7865L6.72886 8.72605C6.71827 8.73383 6.70829 8.74791 6.70642 8.76597C6.70491 8.78054 6.70958 8.78964 6.70977 8.79001C6.70978 8.79004 6.7053 8.78284 6.68946 8.76775C6.65977 8.7395 6.61395 8.70528 6.56632 8.66986L6.61107 8.60968L6.65582 8.54949C6.70081 8.58294 6.75511 8.62316 6.79288 8.65911C6.81076 8.67613 6.83184 8.69848 6.84422 8.72351C6.8506 8.7364 6.85816 8.75687 6.85562 8.78142C6.85271 8.80948 6.83777 8.83217 6.81767 8.84694L6.77326 8.7865ZM6.083 10.0627L6.01301 10.0357C6.13694 9.71387 6.24795 9.43752 6.36013 9.2181C6.47167 8.99994 6.58871 8.829 6.72886 8.72605L6.77326 8.7865L6.81767 8.84694C6.70651 8.9286 6.60244 9.07366 6.49369 9.28639C6.38557 9.49787 6.2771 9.7673 6.15299 10.0896L6.083 10.0627ZM5.31603 10.7188L5.27958 10.6532C5.42428 10.5728 5.5781 10.4871 5.7123 10.3848C5.84646 10.2826 5.95522 10.1679 6.01427 10.0327L6.083 10.0627L6.15173 10.0927C6.07835 10.2608 5.94751 10.3941 5.80323 10.5041C5.65899 10.6141 5.49554 10.7048 5.35247 10.7843L5.31603 10.7188ZM4.87813 11.1054L4.80336 11.1112C4.79482 11.0011 4.87275 10.9167 4.95481 10.8527C5.04049 10.7859 5.15852 10.7205 5.27958 10.6532L5.31603 10.7188L5.35247 10.7843C5.22774 10.8537 5.12149 10.913 5.04702 10.971C4.96891 11.0319 4.9508 11.0724 4.95291 11.0996L4.87813 11.1054ZM4.75565 11.2458L4.75063 11.171C4.78286 11.1688 4.80572 11.1416 4.80336 11.1112L4.87813 11.1054L4.95291 11.0996C4.96183 11.2144 4.87501 11.3129 4.76067 11.3206L4.75565 11.2458ZM8.62228 11.1994L8.65813 11.1336C8.68552 11.1485 8.72142 11.1385 8.73745 11.1098L8.80295 11.1464L8.86844 11.1829C8.8129 11.2825 8.68702 11.3201 8.58642 11.2653L8.62228 11.1994ZM8.15589 10.3534L8.22899 10.3366C8.2568 10.4578 8.29428 10.6203 8.36177 10.773C8.42948 10.9263 8.52339 11.0602 8.65813 11.1336L8.62228 11.1994L8.58642 11.2653C8.41006 11.1693 8.29844 11.0008 8.22457 10.8337C8.15048 10.666 8.11032 10.4901 8.08279 10.3702L8.15589 10.3534ZM8.15042 10.3296L8.22352 10.3128L8.22899 10.3366L8.15589 10.3534L8.0828 10.3702L8.07733 10.3464L8.15042 10.3296ZM8.12391 10.2052L8.19745 10.1905C8.20693 10.2378 8.21492 10.2756 8.2235 10.3128L8.15042 10.3296L8.07735 10.3465C8.06833 10.3074 8.06002 10.2682 8.05037 10.2199L8.12391 10.2052ZM8.09563 10.0632L8.16908 10.0481C8.17233 10.0638 8.17947 10.0996 8.18572 10.1312C8.18886 10.147 8.19181 10.1619 8.19396 10.1728C8.19504 10.1783 8.19592 10.1828 8.19654 10.1859C8.19684 10.1874 8.19708 10.1886 8.19724 10.1894C8.19733 10.1899 8.19739 10.1902 8.19743 10.1904C8.19745 10.1905 8.19747 10.1906 8.19748 10.1906C8.19748 10.1907 8.19749 10.1907 8.19749 10.1907C8.19749 10.1907 8.19749 10.1907 8.19749 10.1907C8.19749 10.1907 8.1975 10.1907 8.1975 10.1907C8.1975 10.1908 8.13864 10.2787 8.05043 10.2202L8.12391 10.2052L8.19738 10.1902C8.10917 10.1317 8.05031 10.2197 8.05032 10.2197C8.05032 10.2197 8.05032 10.2197 8.05032 10.2197C8.05032 10.2197 8.05032 10.2197 8.05032 10.2197C8.05032 10.2197 8.05031 10.2197 8.05031 10.2196C8.0503 10.2196 8.05028 10.2195 8.05026 10.2194C8.05022 10.2192 8.05016 10.2189 8.05008 10.2185C8.04992 10.2176 8.04968 10.2164 8.04937 10.2149C8.04876 10.2118 8.04788 10.2073 8.04681 10.2019C8.04465 10.191 8.04172 10.1761 8.03858 10.1603C8.03228 10.1286 8.02528 10.0934 8.02219 10.0784L8.09563 10.0632ZM7.84407 9.63969L7.89818 9.58775C8.00981 9.70403 8.12189 9.81982 8.16908 10.0481L8.09563 10.0632L8.02219 10.0784C7.98426 9.895 7.89944 9.80566 7.78997 9.69163L7.84407 9.63969ZM7.81692 9.61132L7.8711 9.55946L7.89826 9.58783L7.84407 9.63969L7.78989 9.69155L7.76273 9.66317L7.81692 9.61132ZM7.64649 9.44077L7.69903 9.38725C7.76357 9.45059 7.82341 9.50933 7.87126 9.55962L7.81692 9.61132L7.76258 9.66301C7.71689 9.61498 7.65909 9.55823 7.59395 9.49429L7.64649 9.44077ZM7.64647 9.44075L7.69906 9.38727L7.69908 9.38729L7.64649 9.44077L7.59391 9.49425L7.59389 9.49422L7.64647 9.44075ZM7.64646 9.44074L7.69852 9.38675L7.69853 9.38676L7.64647 9.44075L7.59441 9.49474L7.5944 9.49473L7.64646 9.44074ZM6.95567 8.48177H7.03067C7.03067 8.53496 7.05016 8.59999 7.08977 8.6758C7.129 8.75087 7.18519 8.83131 7.25193 8.91394C7.38559 9.07944 7.55506 9.24592 7.699 9.38722L7.64646 9.44074L7.59392 9.49426C7.45123 9.35419 7.27531 9.18162 7.13523 9.00819C7.06511 8.92136 7.00234 8.83237 6.95683 8.74526C6.9117 8.6589 6.88067 8.56901 6.88067 8.48177H6.95567ZM7.46408 8.1982L7.46928 8.27302C7.46942 8.27301 7.46877 8.27306 7.46714 8.2733C7.46557 8.27353 7.46346 8.27389 7.46077 8.27442C7.45534 8.27548 7.44837 8.27707 7.4399 8.27925C7.42298 8.2836 7.40162 8.28991 7.37726 8.29794C7.32851 8.31402 7.26991 8.33634 7.2138 8.36218C7.15702 8.38832 7.10604 8.41659 7.07046 8.44387C7.05265 8.45753 7.04126 8.46902 7.0349 8.47765C7.02836 8.48653 7.03067 8.48746 7.03067 8.48177H6.95567H6.88067C6.88067 8.44419 6.89659 8.4125 6.91414 8.38868C6.93186 8.36463 6.95505 8.34335 6.97918 8.32484C7.02749 8.28779 7.08988 8.2541 7.15106 8.22593C7.2129 8.19745 7.27683 8.17312 7.33027 8.15549C7.38049 8.13892 7.4299 8.1254 7.45889 8.12338L7.46408 8.1982ZM7.60265 8.15455L7.62876 8.22486C7.59966 8.23566 7.57009 8.24665 7.54449 8.25512C7.52122 8.26282 7.49288 8.27138 7.46928 8.27302L7.46408 8.1982L7.45889 8.12338C7.45865 8.1234 7.46175 8.1231 7.46966 8.12107C7.47699 8.11918 7.48621 8.1164 7.49738 8.11271C7.51988 8.10527 7.54668 8.09533 7.57655 8.08424L7.60265 8.15455ZM7.83929 8.11482L7.76441 8.11914C7.76517 8.13226 7.77154 8.1483 7.78567 8.15971C7.79706 8.1689 7.80724 8.16994 7.80765 8.16999C7.80768 8.16999 7.79921 8.16983 7.77792 8.1749C7.73806 8.18441 7.6844 8.2042 7.62876 8.22486L7.60265 8.15455L7.57655 8.08424C7.62911 8.06472 7.69241 8.04109 7.74313 8.02899C7.76714 8.02327 7.79737 8.01776 7.82511 8.02101C7.83939 8.02268 7.86068 8.02749 7.87989 8.04299C7.90183 8.06071 7.91272 8.0856 7.91416 8.11051L7.83929 8.11482ZM8.53364 9.38878L8.47292 9.43281C8.27048 9.15357 8.09917 8.90996 7.97625 8.69638C7.85403 8.48401 7.77442 8.29275 7.76441 8.11914L7.83929 8.11482L7.91416 8.1105C7.9221 8.2482 7.98709 8.41449 8.10626 8.62156C8.22474 8.82741 8.39163 9.06512 8.59436 9.34476L8.53364 9.38878ZM8.66616 10.3894L8.59134 10.3842C8.60267 10.2191 8.6146 10.0434 8.60191 9.87513C8.58922 9.70692 8.55229 9.55325 8.47103 9.43008L8.53364 9.38878L8.59624 9.34748C8.69723 9.50057 8.73784 9.68295 8.75148 9.86385C8.76513 10.0447 8.75219 10.2312 8.74098 10.3945L8.66616 10.3894ZM8.75188 10.9672L8.71603 11.033C8.61911 10.9803 8.59069 10.8689 8.58175 10.7652C8.57241 10.657 8.58185 10.5224 8.59134 10.3842L8.66616 10.3894L8.74098 10.3945C8.73121 10.5369 8.72307 10.6583 8.73119 10.7523C8.73971 10.851 8.76379 10.8882 8.78774 10.9013L8.75188 10.9672ZM8.80295 11.1464L8.73745 11.1098C8.7532 11.0816 8.74286 11.0476 8.71603 11.033L8.75188 10.9672L8.78774 10.9013C8.88889 10.9563 8.92428 11.0828 8.86844 11.1829L8.80295 11.1464ZM11.4852 8.63543L11.558 8.61749C11.5853 8.72818 11.5188 8.84153 11.4079 8.87009L11.3892 8.79746L11.3705 8.72483C11.4007 8.71706 11.4202 8.68532 11.4123 8.65337L11.4852 8.63543ZM11.3256 8.53919L11.3069 8.46656C11.4184 8.43784 11.5306 8.50622 11.558 8.61749L11.4852 8.63543L11.4123 8.65337C11.4046 8.622 11.3739 8.60421 11.3443 8.61182L11.3256 8.53919ZM10.8688 8.17508L10.9271 8.12781C11.017 8.23861 11.0939 8.33294 11.164 8.39621C11.2375 8.46255 11.2805 8.47336 11.3069 8.46656L11.3256 8.53919L11.3443 8.61182C11.2374 8.63934 11.1407 8.57726 11.0635 8.50756C10.9828 8.43477 10.8979 8.3299 10.8106 8.22236L10.8688 8.17508ZM10.0895 7.53369L10.1072 7.46079C10.2854 7.50388 10.4395 7.60957 10.5729 7.73256C10.7062 7.85551 10.8239 8.00073 10.9271 8.12781L10.8688 8.17508L10.8106 8.22236C10.7063 8.09383 10.5952 7.95722 10.4712 7.84282C10.3472 7.72846 10.2153 7.64126 10.0719 7.60659L10.0895 7.53369ZM8.71288 7.07552L8.7647 7.0213C8.86442 7.11659 9.02535 7.19388 9.25373 7.26405C9.48077 7.3338 9.76494 7.39383 10.1039 7.46008L10.0895 7.53369L10.0752 7.6073C9.73667 7.54114 9.44523 7.4798 9.20967 7.40743C8.97545 7.33547 8.78679 7.24989 8.66107 7.12974L8.71288 7.07552ZM8.56691 7.26595L8.49987 7.23233C8.525 7.18222 8.55518 7.12176 8.58402 7.07832C8.59768 7.05776 8.61603 7.03312 8.63853 7.01658C8.65012 7.00806 8.66896 6.99706 8.69359 6.9953C8.72172 6.99329 8.74666 7.00406 8.7647 7.0213L8.71288 7.07552L8.66107 7.12974C8.67057 7.13883 8.68617 7.14621 8.70428 7.14492C8.71888 7.14387 8.72703 7.13769 8.72737 7.13744C8.72739 7.13742 8.72108 7.14308 8.70898 7.16131C8.68631 7.19545 8.66056 7.24651 8.63396 7.29957L8.56691 7.26595ZM8.56691 7.26596L8.49728 7.2381L8.49728 7.2381L8.56691 7.26595L8.63655 7.29381L8.63655 7.29381L8.56691 7.26596ZM8.56691 7.26596L8.49983 7.23242L8.49983 7.23242L8.56691 7.26596L8.63399 7.2995L8.63399 7.2995L8.56691 7.26596ZM8.49534 7.39239L8.44051 7.34121C8.44035 7.34139 8.44241 7.33906 8.44682 7.33217C8.45089 7.3258 8.45574 7.31748 8.46139 7.30715C8.47276 7.28637 8.48558 7.26083 8.49987 7.23234L8.56691 7.26596L8.63395 7.29958C8.62004 7.32733 8.60591 7.35553 8.59296 7.37918C8.58119 7.40068 8.56631 7.42627 8.55017 7.44356L8.49534 7.39239ZM8.31691 7.94651L8.26509 8.00074C8.24802 7.98443 8.24055 7.96498 8.23702 7.9512C8.23337 7.93695 8.23238 7.92273 8.23238 7.91042C8.23239 7.88583 8.23644 7.85823 8.24205 7.83106C8.25341 7.77601 8.27397 7.70963 8.29697 7.64539C8.32012 7.58073 8.34661 7.51585 8.37076 7.46323C8.38282 7.43696 8.39462 7.41304 8.40541 7.39341C8.41509 7.3758 8.42724 7.35544 8.44051 7.34121L8.49534 7.39239L8.55017 7.44356C8.55093 7.44275 8.54647 7.44819 8.53686 7.46566C8.52838 7.4811 8.51822 7.50155 8.50709 7.5258C8.48485 7.57424 8.45998 7.63509 8.43819 7.69595C8.41624 7.75724 8.39828 7.81618 8.38895 7.86138C8.38422 7.88432 8.38238 7.90058 8.38238 7.91045C8.38238 7.91537 8.38286 7.91605 8.38232 7.91395C8.38191 7.91232 8.3792 7.9023 8.36872 7.89229L8.31691 7.94651ZM9.47913 8.17678L9.47719 8.25175C9.2804 8.24666 9.03923 8.2405 8.81994 8.20921C8.60497 8.17853 8.39143 8.12147 8.26509 8.00074L8.31691 7.94651L8.36872 7.89229C8.45767 7.97729 8.62762 8.03024 8.84113 8.06071C9.05031 8.09056 9.28261 8.09666 9.48107 8.1018L9.47913 8.17678ZM9.47915 8.17678L9.47627 8.25172L9.47625 8.25172L9.47913 8.17678L9.48201 8.10183L9.48203 8.10183L9.47915 8.17678ZM9.71713 8.18524L9.71265 8.26011C9.6466 8.25615 9.5668 8.25407 9.47721 8.25175L9.47915 8.17678L9.48109 8.1018C9.56986 8.1041 9.65248 8.10623 9.72162 8.11038L9.71713 8.18524ZM9.75634 8.18747L9.75208 8.26235L9.71287 8.26012L9.71713 8.18524L9.72139 8.11036L9.7606 8.1126L9.75634 8.18747ZM10.2292 8.32568L10.1858 8.38688C10.033 8.27859 9.91002 8.2711 9.7522 8.26236L9.75634 8.18747L9.76049 8.11259C9.92143 8.1215 10.0824 8.12974 10.2725 8.26449L10.2292 8.32568ZM10.3466 8.41017L10.3027 8.47096C10.2996 8.4687 10.2106 8.40443 10.1858 8.38688L10.2292 8.32568L10.2725 8.26449C10.2981 8.28256 10.3878 8.34741 10.3905 8.34937L10.3466 8.41017ZM10.3467 8.41022L10.3028 8.47106L10.3028 8.47101L10.3466 8.41017L10.3905 8.34932L10.3905 8.34938L10.3467 8.41022ZM10.4509 8.48313L10.409 8.5453C10.3757 8.52289 10.3429 8.49984 10.3029 8.47114L10.3467 8.41022L10.3904 8.3493C10.4297 8.37747 10.4612 8.39961 10.4929 8.42095L10.4509 8.48313ZM10.4711 8.49679L10.4292 8.55893L10.4089 8.54527L10.4509 8.48313L10.4929 8.42099L10.5131 8.43465L10.4711 8.49679ZM11.3892 8.79746L11.4079 8.87009C11.2135 8.92016 11.0169 8.87306 10.8489 8.80119C10.6804 8.7291 10.5311 8.62787 10.4291 8.55891L10.4711 8.49679L10.5132 8.43467C10.6161 8.50433 10.7544 8.5976 10.9079 8.66327C11.0619 8.72916 11.222 8.76309 11.3705 8.72483L11.3892 8.79746ZM2.2816 8.16644L2.33858 8.21521C2.31831 8.2389 2.32054 8.27608 2.34531 8.29773L2.29595 8.3542L2.24658 8.41066C2.16076 8.33563 2.15015 8.20469 2.22462 8.11767L2.2816 8.16644ZM3.2061 7.88614L3.20731 7.96113C3.083 7.96314 2.91628 7.96601 2.75285 8.00028C2.58889 8.03465 2.43833 8.09866 2.33858 8.21521L2.2816 8.16644L2.22462 8.11767C2.35519 7.96512 2.5432 7.89097 2.72207 7.85347C2.90146 7.81586 3.08184 7.81314 3.20489 7.81115L3.2061 7.88614ZM3.23051 7.88574L3.23181 7.96073C3.22386 7.96087 3.21567 7.961 3.20731 7.96113L3.2061 7.88614L3.20489 7.81115C3.21327 7.81102 3.22136 7.81089 3.2292 7.81075L3.23051 7.88574ZM3.35772 7.88567L3.35682 7.96066C3.30854 7.96009 3.26997 7.96006 3.23181 7.96073L3.23051 7.88574L3.2292 7.81075C3.26928 7.81005 3.3094 7.81009 3.35861 7.81067L3.35772 7.88567ZM3.50245 7.88753L3.50203 7.96253C3.48599 7.96244 3.44945 7.96197 3.4173 7.96153C3.40114 7.9613 3.38596 7.96109 3.37483 7.96093C3.36926 7.96085 3.36471 7.96078 3.36154 7.96073C3.35996 7.96071 3.35872 7.96069 3.35788 7.96068C3.35747 7.96067 3.35714 7.96067 3.35693 7.96067C3.35682 7.96066 3.35674 7.96066 3.35668 7.96066C3.35665 7.96066 3.35663 7.96066 3.35662 7.96066C3.35661 7.96066 3.3566 7.96066 3.35659 7.96066C3.35659 7.96066 3.35658 7.96066 3.35658 7.96066C3.35656 7.96066 3.28272 7.88474 3.3584 7.81067L3.35772 7.88567L3.35703 7.96067C3.43271 7.8866 3.35887 7.81068 3.35886 7.81068C3.35885 7.81068 3.35885 7.81068 3.35885 7.81068C3.35885 7.81068 3.35885 7.81068 3.35885 7.81068C3.35887 7.81068 3.35889 7.81068 3.35891 7.81068C3.35896 7.81068 3.35904 7.81068 3.35915 7.81068C3.35936 7.81069 3.35968 7.81069 3.3601 7.8107C3.36093 7.81071 3.36216 7.81073 3.36374 7.81075C3.3669 7.8108 3.37144 7.81086 3.377 7.81094C3.38811 7.8111 3.40324 7.81132 3.41935 7.81154C3.45175 7.81198 3.48758 7.81244 3.50287 7.81253L3.50245 7.88753ZM3.96906 7.72953L4.00861 7.79325C3.87166 7.87826 3.7351 7.96383 3.50203 7.96253L3.50245 7.88753L3.50287 7.81253C3.69018 7.81357 3.7952 7.74917 3.9295 7.66581L3.96906 7.72953ZM4.00245 7.70887L4.04172 7.77276C4.03062 7.77959 4.01965 7.7864 4.00861 7.79325L3.96906 7.72953L3.9295 7.66581C3.94049 7.65898 3.95175 7.65199 3.96319 7.64497L4.00245 7.70887ZM4.20227 7.57929L4.24368 7.64182C4.16964 7.69085 4.10073 7.7365 4.04172 7.77276L4.00245 7.70887L3.96319 7.64497C4.01956 7.61032 4.08613 7.56625 4.16086 7.51676L4.20227 7.57929ZM5.28638 7.10129L5.27504 7.17542C5.15342 7.15681 4.98383 7.21092 4.79146 7.30842C4.60299 7.40395 4.4092 7.53219 4.24368 7.64182L4.20227 7.57929L4.16086 7.51676C4.32498 7.40806 4.52606 7.27478 4.72365 7.17463C4.91733 7.07645 5.12498 7.00072 5.29772 7.02715L5.28638 7.10129ZM5.45805 7.65754L5.38378 7.64707C5.38363 7.64817 5.38416 7.64116 5.38201 7.62134C5.3801 7.60382 5.37669 7.58125 5.3719 7.55499C5.36234 7.50257 5.34781 7.43845 5.33075 7.3761C5.31357 7.3133 5.29448 7.25472 5.27619 7.21235C5.26691 7.19084 5.25909 7.17647 5.25343 7.16838C5.25061 7.16435 5.24983 7.16407 5.25147 7.16548C5.25275 7.16657 5.26071 7.17323 5.27503 7.17542L5.28638 7.10129L5.29772 7.02715C5.32106 7.03072 5.33833 7.04236 5.34913 7.05163C5.3603 7.0612 5.36926 7.07228 5.37632 7.08237C5.39042 7.10252 5.40293 7.12745 5.41392 7.15293C5.43619 7.20453 5.45743 7.2707 5.47543 7.33651C5.49356 7.40276 5.50907 7.4711 5.51947 7.52806C5.52465 7.5565 5.52871 7.58285 5.53113 7.60513C5.5333 7.62511 5.53503 7.64875 5.53231 7.66802L5.45805 7.65754ZM5.47194 7.80216L5.39774 7.81308C5.39322 7.78237 5.38862 7.75116 5.38566 7.72436C5.38297 7.7 5.38048 7.67049 5.38378 7.64707L5.45805 7.65754L5.53231 7.66802C5.53235 7.66778 5.53199 7.67087 5.53234 7.67904C5.53266 7.68659 5.53346 7.69619 5.53475 7.70789C5.53735 7.73144 5.5415 7.75972 5.54614 7.79125L5.47194 7.80216ZM5.4616 8.04188L5.47294 7.96775C5.45995 7.96576 5.44293 7.96865 5.42884 7.9801C5.41748 7.98933 5.41435 7.99907 5.41421 7.99947C5.4142 7.9995 5.41613 7.99124 5.41559 7.96937C5.41458 7.9284 5.40638 7.8718 5.39774 7.81308L5.47194 7.80216L5.54614 7.79125C5.5543 7.84671 5.56426 7.91355 5.56554 7.96567C5.56615 7.99035 5.56526 8.02106 5.55631 8.04752C5.5517 8.06114 5.54258 8.08096 5.52342 8.09653C5.50152 8.11431 5.47491 8.11979 5.45025 8.11602L5.4616 8.04188ZM4.07111 8.45619L4.04068 8.38764C4.35589 8.24769 4.6298 8.13077 4.86427 8.05494C5.09741 7.97955 5.30104 7.94144 5.47294 7.96775L5.4616 8.04188L5.45025 8.11602C5.31391 8.09516 5.13775 8.12415 4.91043 8.19767C4.68444 8.27075 4.41723 8.38458 4.10155 8.52474L4.07111 8.45619ZM3.06485 8.37778L3.08543 8.30566C3.24463 8.3511 3.41398 8.39929 3.5812 8.42185C3.74837 8.44441 3.90636 8.44024 4.04373 8.38637L4.07111 8.45619L4.09849 8.52601C3.92775 8.59297 3.74092 8.59477 3.56114 8.5705C3.38141 8.54625 3.20168 8.49482 3.04427 8.44991L3.06485 8.37778ZM2.48186 8.3415L2.42488 8.29274C2.49663 8.2089 2.61148 8.20427 2.71472 8.21707C2.82253 8.23043 2.95223 8.26765 3.08543 8.30566L3.06485 8.37778L3.04427 8.44991C2.90703 8.41074 2.78997 8.37755 2.69627 8.36593C2.598 8.35374 2.55657 8.36956 2.53884 8.39027L2.48186 8.3415ZM2.29595 8.3542L2.34531 8.29773C2.36963 8.31899 2.40501 8.31594 2.42488 8.29274L2.48186 8.3415L2.53884 8.39027C2.46395 8.47777 2.33286 8.48608 2.24658 8.41066L2.29595 8.3542Z" fill="#984111"/>
<path fill-rule="evenodd" clip-rule="evenodd" d="M7.00002 2.05957C6.87258 2.05957 6.76459 2.15342 6.74683 2.27962L6.33336 5.21747H7.66669L7.25322 2.27962C7.23546 2.15342 7.12747 2.05957 7.00002 2.05957ZM10.4937 3.5067C10.4036 3.41659 10.2609 3.40659 10.1591 3.48327L7.78934 5.26827L8.73215 6.21108L10.5171 3.84134C10.5938 3.73954 10.5838 3.59682 10.4937 3.5067ZM11.7208 6.7472C11.847 6.76496 11.9408 6.87295 11.9408 7.00039C11.9408 7.12784 11.847 7.23582 11.7208 7.25358L8.78295 7.66706V6.33372L11.7208 6.7472ZM10.4937 10.4941C10.5838 10.404 10.5938 10.2612 10.5171 10.1594L8.73215 7.78971L7.78934 8.73251L10.1591 10.5175C10.2609 10.5942 10.4036 10.5842 10.4937 10.4941ZM7.25322 11.7212C7.23546 11.8474 7.12747 11.9412 7.00002 11.9412C6.87258 11.9412 6.76459 11.8474 6.74683 11.7212L6.33336 8.78332H7.66669L7.25322 11.7212ZM3.50634 10.4941C3.59645 10.5842 3.73918 10.5942 3.84097 10.5175L6.21071 8.73251L5.2679 7.78971L3.4829 10.1594C3.40623 10.2612 3.41622 10.404 3.50634 10.4941ZM2.27926 7.25358C2.15306 7.23582 2.0592 7.12784 2.0592 7.00039C2.0592 6.87295 2.15306 6.76496 2.27926 6.7472L5.2171 6.33372V7.66706L2.27926 7.25358ZM3.50634 3.5067C3.41622 3.59682 3.40623 3.73954 3.4829 3.84134L5.2679 6.21108L6.21071 5.26827L3.84097 3.48327C3.73918 3.40659 3.59645 3.41659 3.50634 3.5067Z" fill="#FFC125"/>
<path d="M6.74683 2.27962L6.67256 2.26917V2.26917L6.74683 2.27962ZM6.33336 5.21747L6.25909 5.20701L6.24706 5.29247H6.33336V5.21747ZM7.66669 5.21747V5.29247H7.75299L7.74096 5.20701L7.66669 5.21747ZM7.25322 2.27962L7.32749 2.26917V2.26917L7.25322 2.27962ZM10.1591 3.48327L10.114 3.42336V3.42336L10.1591 3.48327ZM7.78934 5.26827L7.74421 5.20836L7.67529 5.26028L7.73631 5.3213L7.78934 5.26827ZM8.73215 6.21108L8.67912 6.26411L8.74013 6.32513L8.79205 6.2562L8.73215 6.21108ZM10.5171 3.84134L10.4572 3.79621V3.79621L10.5171 3.84134ZM11.7208 6.7472L11.7103 6.82147V6.82147L11.7208 6.7472ZM11.7208 7.25358L11.7312 7.32785V7.32785L11.7208 7.25358ZM8.78295 7.66706H8.70795V7.75335L8.7934 7.74133L8.78295 7.66706ZM8.78295 6.33372L8.7934 6.25946L8.70795 6.24743V6.33372H8.78295ZM10.5171 10.1594L10.5771 10.1143V10.1143L10.5171 10.1594ZM10.4937 10.4941L10.5467 10.5471V10.5471L10.4937 10.4941ZM8.73215 7.78971L8.79206 7.74458L8.74014 7.67565L8.67912 7.73667L8.73215 7.78971ZM7.78934 8.73251L7.73631 8.67948L7.67529 8.7405L7.74422 8.79242L7.78934 8.73251ZM10.1591 10.5175L10.2042 10.4576L10.2042 10.4576L10.1591 10.5175ZM7.25322 11.7212L7.17895 11.7107V11.7107L7.25322 11.7212ZM6.74683 11.7212L6.67256 11.7316V11.7316L6.74683 11.7212ZM6.33336 8.78332V8.70832H6.24706L6.25909 8.79377L6.33336 8.78332ZM7.66669 8.78332L7.74096 8.79377L7.75299 8.70832H7.66669V8.78332ZM3.84097 10.5175L3.79585 10.4576V10.4576L3.84097 10.5175ZM3.50634 10.4941L3.4533 10.5471H3.4533L3.50634 10.4941ZM6.21071 8.73251L6.25584 8.79242L6.32476 8.7405L6.26374 8.67948L6.21071 8.73251ZM5.2679 7.78971L5.32093 7.73667L5.25991 7.67565L5.20799 7.74458L5.2679 7.78971ZM3.4829 10.1594L3.54281 10.2046L3.54281 10.2046L3.4829 10.1594ZM2.27926 7.25358L2.26881 7.32785H2.26881L2.27926 7.25358ZM2.27926 6.7472L2.26881 6.67293H2.26881L2.27926 6.7472ZM5.2171 6.33372H5.2921V6.24743L5.20665 6.25946L5.2171 6.33372ZM5.2171 7.66706L5.20665 7.74133L5.2921 7.75335V7.66706H5.2171ZM3.4829 3.84134L3.54281 3.79621V3.79621L3.4829 3.84134ZM3.50634 3.5067L3.4533 3.45367V3.45367L3.50634 3.5067ZM5.2679 6.21108L5.20799 6.2562L5.25991 6.32513L5.32093 6.26411L5.2679 6.21108ZM6.21071 5.26827L6.26374 5.3213L6.32476 5.26028L6.25584 5.20836L6.21071 5.26827ZM3.84097 3.48327L3.79585 3.54318V3.54318L3.84097 3.48327ZM6.74683 2.27962L6.8211 2.29008C6.83365 2.20089 6.90996 2.13457 7.00002 2.13457V2.05957V1.98457C6.8352 1.98457 6.69554 2.10595 6.67256 2.26917L6.74683 2.27962ZM6.33336 5.21747L6.40763 5.22792L6.8211 2.29008L6.74683 2.27962L6.67256 2.26917L6.25909 5.20701L6.33336 5.21747ZM7.66669 5.21747V5.14247H6.33336V5.21747V5.29247H7.66669V5.21747ZM7.25322 2.27962L7.17895 2.29008L7.59242 5.22792L7.66669 5.21747L7.74096 5.20701L7.32749 2.26917L7.25322 2.27962ZM7.00002 2.05957V2.13457C7.09009 2.13457 7.1664 2.20089 7.17895 2.29008L7.25322 2.27962L7.32749 2.26917C7.30451 2.10595 7.16485 1.98457 7.00002 1.98457V2.05957ZM10.1591 3.48327L10.2042 3.54318C10.2761 3.48899 10.377 3.49605 10.4407 3.55974L10.4937 3.5067L10.5467 3.45367C10.4302 3.33712 10.2456 3.32419 10.114 3.42336L10.1591 3.48327ZM7.78934 5.26827L7.83446 5.32817L10.2042 3.54318L10.1591 3.48327L10.114 3.42336L7.74421 5.20836L7.78934 5.26827ZM8.73215 6.21108L8.78518 6.15804L7.84237 5.21523L7.78934 5.26827L7.73631 5.3213L8.67912 6.26411L8.73215 6.21108ZM10.5171 3.84134L10.4572 3.79621L8.67224 6.16595L8.73215 6.21108L8.79205 6.2562L10.5771 3.88646L10.5171 3.84134ZM10.4937 3.5067L10.4407 3.55974C10.5044 3.62342 10.5114 3.72428 10.4572 3.79621L10.5171 3.84134L10.5771 3.88646C10.6762 3.75481 10.6633 3.57022 10.5467 3.45367L10.4937 3.5067ZM11.9408 7.00039H12.0158C12.0158 6.83556 11.8945 6.6959 11.7312 6.67293L11.7208 6.7472L11.7103 6.82147C11.7995 6.83402 11.8658 6.91033 11.8658 7.00039H11.9408ZM11.7208 7.25358L11.7312 7.32785C11.8945 7.30488 12.0158 7.16522 12.0158 7.00039H11.9408H11.8658C11.8658 7.09045 11.7995 7.16676 11.7103 7.17932L11.7208 7.25358ZM8.78295 7.66706L8.7934 7.74133L11.7312 7.32785L11.7208 7.25358L11.7103 7.17932L8.7725 7.59279L8.78295 7.66706ZM8.78295 6.33372H8.70795V7.66706H8.78295H8.85795V6.33372H8.78295ZM11.7208 6.7472L11.7312 6.67293L8.7934 6.25946L8.78295 6.33372L8.7725 6.40799L11.7103 6.82147L11.7208 6.7472ZM10.5171 10.1594L10.4572 10.2046C10.5114 10.2765 10.5044 10.3774 10.4407 10.441L10.4937 10.4941L10.5467 10.5471C10.6633 10.4306 10.6762 10.246 10.5771 10.1143L10.5171 10.1594ZM8.73215 7.78971L8.67224 7.83483L10.4572 10.2046L10.5171 10.1594L10.5771 10.1143L8.79206 7.74458L8.73215 7.78971ZM7.78934 8.73251L7.84237 8.78555L8.78518 7.84274L8.73215 7.78971L8.67912 7.73667L7.73631 8.67948L7.78934 8.73251ZM10.1591 10.5175L10.2042 10.4576L7.83446 8.67261L7.78934 8.73251L7.74422 8.79242L10.114 10.5774L10.1591 10.5175ZM10.4937 10.4941L10.4407 10.441C10.377 10.5047 10.2761 10.5118 10.2042 10.4576L10.1591 10.5175L10.114 10.5774C10.2456 10.6766 10.4302 10.6637 10.5467 10.5471L10.4937 10.4941ZM7.00002 11.9412V12.0162C7.16485 12.0162 7.30451 11.8948 7.32749 11.7316L7.25322 11.7212L7.17895 11.7107C7.1664 11.7999 7.09009 11.8662 7.00002 11.8662V11.9412ZM6.74683 11.7212L6.67256 11.7316C6.69554 11.8948 6.8352 12.0162 7.00002 12.0162V11.9412V11.8662C6.90996 11.8662 6.83365 11.7999 6.8211 11.7107L6.74683 11.7212ZM6.33336 8.78332L6.25909 8.79377L6.67256 11.7316L6.74683 11.7212L6.8211 11.7107L6.40763 8.77286L6.33336 8.78332ZM7.66669 8.78332V8.70832H6.33336V8.78332V8.85832H7.66669V8.78332ZM7.25322 11.7212L7.32749 11.7316L7.74096 8.79377L7.66669 8.78332L7.59242 8.77286L7.17895 11.7107L7.25322 11.7212ZM3.84097 10.5175L3.79585 10.4576C3.72391 10.5118 3.62305 10.5047 3.55937 10.441L3.50634 10.4941L3.4533 10.5471C3.56985 10.6637 3.75444 10.6766 3.8861 10.5774L3.84097 10.5175ZM6.21071 8.73251L6.16559 8.67261L3.79585 10.4576L3.84097 10.5175L3.8861 10.5774L6.25584 8.79242L6.21071 8.73251ZM5.2679 7.78971L5.21487 7.84274L6.15768 8.78555L6.21071 8.73251L6.26374 8.67948L5.32093 7.73667L5.2679 7.78971ZM3.4829 10.1594L3.54281 10.2046L5.32781 7.83483L5.2679 7.78971L5.20799 7.74458L3.423 10.1143L3.4829 10.1594ZM3.50634 10.4941L3.55937 10.441C3.49569 10.3774 3.48862 10.2765 3.54281 10.2046L3.4829 10.1594L3.423 10.1143C3.32383 10.246 3.33675 10.4306 3.4533 10.5471L3.50634 10.4941ZM2.0592 7.00039H1.9842C1.9842 7.16522 2.10559 7.30488 2.26881 7.32785L2.27926 7.25358L2.28971 7.17932C2.20053 7.16676 2.1342 7.09045 2.1342 7.00039H2.0592ZM2.27926 6.7472L2.26881 6.67293C2.10559 6.6959 1.9842 6.83556 1.9842 7.00039H2.0592H2.1342C2.1342 6.91033 2.20053 6.83402 2.28971 6.82147L2.27926 6.7472ZM5.2171 6.33372L5.20665 6.25946L2.26881 6.67293L2.27926 6.7472L2.28971 6.82147L5.22755 6.40799L5.2171 6.33372ZM5.2171 7.66706H5.2921V6.33372H5.2171H5.1421V7.66706H5.2171ZM2.27926 7.25358L2.26881 7.32785L5.20665 7.74133L5.2171 7.66706L5.22755 7.59279L2.28971 7.17932L2.27926 7.25358ZM3.4829 3.84134L3.54281 3.79621C3.48862 3.72428 3.49569 3.62342 3.55937 3.55974L3.50634 3.5067L3.4533 3.45367C3.33675 3.57022 3.32383 3.75481 3.423 3.88646L3.4829 3.84134ZM5.2679 6.21108L5.32781 6.16595L3.54281 3.79621L3.4829 3.84134L3.423 3.88646L5.20799 6.2562L5.2679 6.21108ZM6.21071 5.26827L6.15768 5.21523L5.21487 6.15804L5.2679 6.21108L5.32093 6.26411L6.26374 5.3213L6.21071 5.26827ZM3.84097 3.48327L3.79585 3.54318L6.16559 5.32817L6.21071 5.26827L6.25584 5.20836L3.8861 3.42336L3.84097 3.48327ZM3.50634 3.5067L3.55937 3.55974C3.62305 3.49605 3.72391 3.48899 3.79585 3.54318L3.84097 3.48327L3.8861 3.42336C3.75444 3.32419 3.56985 3.33712 3.4533 3.45367L3.50634 3.5067Z" fill="#984111"/>
<path fill-rule="evenodd" clip-rule="evenodd" d="M6.99998 8.84216C8.06773 8.84216 8.93332 7.98796 8.93332 6.93426C8.93332 5.88056 8.06773 5.02637 6.99998 5.02637C5.93223 5.02637 5.06665 5.88056 5.06665 6.93426C5.06665 7.98796 5.93223 8.84216 6.99998 8.84216Z" fill="#FFC125" stroke="#984111" stroke-width="0.15"/>
<path d="M6.81346 6.43645C6.79352 6.4241 6.70897 6.3683 6.6882 6.35515C6.61503 6.30884 6.55667 6.27865 6.50247 6.26174C6.47276 6.25247 6.44565 6.24779 6.42112 6.24779C6.30346 6.24779 6.13724 6.32123 5.927 6.47089L5.849 6.36418C6.07991 6.1998 6.26911 6.11621 6.42112 6.11621C6.46028 6.11621 6.50069 6.12318 6.54267 6.13628C6.61045 6.15744 6.67795 6.19235 6.76018 6.24439C6.78262 6.25859 6.86644 6.31391 6.88435 6.32501C6.91349 6.34306 6.93235 6.35174 6.93213 6.35174C7.09132 6.35174 7.10096 6.9213 6.98837 7.09594C6.95794 7.14315 6.92059 7.1813 6.87164 7.21971C6.85282 7.23448 6.79371 7.27705 6.785 7.28377C6.74577 7.314 6.73334 7.33161 6.73334 7.35317C6.73334 7.3569 6.78125 7.36877 6.88809 7.36376C6.90926 7.36277 6.93028 7.36136 6.96124 7.35901C7.03717 7.35325 7.04699 7.3526 7.07148 7.3526V7.48418C7.05217 7.48418 7.04196 7.48485 6.97148 7.4902C6.93932 7.49265 6.91719 7.49412 6.89443 7.49519C6.70657 7.50401 6.6 7.4776 6.6 7.35317C6.6 7.2817 6.63456 7.23277 6.70292 7.18007C6.71408 7.17147 6.77257 7.12934 6.78866 7.11671C6.82693 7.08669 6.8544 7.05863 6.87588 7.02531C6.91036 6.97182 6.93177 6.83264 6.92927 6.68509C6.92812 6.61735 6.92194 6.55517 6.91217 6.51156C6.90924 6.49847 6.9061 6.48769 6.90314 6.47979C6.87785 6.47366 6.85063 6.45948 6.81346 6.43645Z" fill="#984111"/>
<path d="M7.67261 6.11621C7.63354 6.11623 7.59339 6.12366 7.55151 6.13672C7.48377 6.15786 7.4159 6.19215 7.33374 6.24414C7.31132 6.25833 7.22776 6.31401 7.20972 6.3252C7.18233 6.34216 7.16378 6.35058 7.16187 6.35156C7.00276 6.35156 6.99284 6.92072 7.10522 7.0957C7.13566 7.14291 7.17346 7.18132 7.22241 7.21973C7.24136 7.23458 7.30063 7.27748 7.30933 7.28418C7.34817 7.31419 7.36011 7.33205 7.36011 7.35352C7.35625 7.3577 7.30819 7.36809 7.20581 7.36328C7.18464 7.36229 7.16353 7.36173 7.13257 7.35938C7.05667 7.35361 7.04671 7.35254 7.02222 7.35254V7.48438C7.04153 7.48438 7.05232 7.48488 7.1228 7.49023C7.15452 7.49264 7.17648 7.49406 7.19897 7.49512C7.38665 7.50393 7.4937 7.47765 7.4939 7.35352C7.4939 7.28207 7.45968 7.23237 7.39136 7.17969C7.38028 7.17115 7.322 7.13014 7.30542 7.11719C7.26715 7.08716 7.23901 7.05871 7.21753 7.02539C7.18314 6.97184 7.16235 6.83279 7.16479 6.68555C7.16594 6.61792 7.17165 6.55532 7.1814 6.51172C7.18433 6.49863 7.1882 6.48739 7.19116 6.47949C7.21625 6.47332 7.24325 6.45929 7.28003 6.43652C7.29997 6.42417 7.38523 6.36862 7.40601 6.35547C7.47913 6.3092 7.53738 6.27863 7.59155 6.26172C7.62114 6.2525 7.64816 6.24807 7.67261 6.24805C7.79023 6.24805 7.95659 6.32112 8.16675 6.4707L8.24487 6.36426C8.01396 6.19988 7.82462 6.11621 7.67261 6.11621Z" fill="#984111"/>
<path d="M7.01624 7.50781L7.01627 7.43281L7.01623 7.43281L7.01624 7.50781ZM7.48108 7.66016L7.43515 7.71945L7.43547 7.7197L7.48108 7.66016ZM7.52698 7.69531L7.57302 7.63611L7.57258 7.63577L7.52698 7.69531ZM7.57971 7.73633L7.64393 7.77508L7.67835 7.71803L7.62576 7.67713L7.57971 7.73633ZM7.54553 7.79297L7.48131 7.75422L7.48089 7.75494L7.54553 7.79297ZM7.51624 7.84277L7.58062 7.88125L7.58088 7.8808L7.51624 7.84277ZM7.01624 8.18066L7.01622 8.25566L7.01629 8.25566L7.01624 8.18066ZM6.48499 7.85449L6.54513 7.80968L6.54474 7.80916L6.48499 7.85449ZM6.44202 7.79785L6.38159 7.84229L6.38226 7.84318L6.44202 7.79785ZM6.39319 7.73145L6.35408 7.66745L6.28437 7.71005L6.33276 7.77587L6.39319 7.73145ZM6.4635 7.68848L6.50261 7.75247L6.50269 7.75242L6.4635 7.68848ZM6.52405 7.65137L6.56324 7.71531L6.5635 7.71516L6.52405 7.65137ZM7.01624 7.63965L7.01626 7.56465H7.01624V7.63965ZM6.66565 7.72363L6.63215 7.65653L6.63211 7.65655L6.66565 7.72363ZM6.57971 7.7666L6.54617 7.69952L6.45986 7.74267L6.52298 7.81566L6.57971 7.7666ZM6.64221 7.83887L6.69915 7.79005L6.69894 7.78981L6.64221 7.83887ZM7.01624 8.0498V8.1248L7.0163 8.1248L7.01624 8.0498ZM7.36487 7.83203L7.42644 7.87485L7.42657 7.87467L7.36487 7.83203ZM7.41077 7.76562L7.47246 7.80827L7.51794 7.74247L7.44935 7.70131L7.41077 7.76562ZM7.34241 7.72461L7.30379 7.7889L7.30382 7.78892L7.34241 7.72461ZM7.01624 7.6582L7.01627 7.5832L7.01623 7.5832L7.01624 7.6582ZM7.38147 7.77246L7.44552 7.81148L7.48101 7.75322L7.42636 7.71238L7.38147 7.77246ZM7.01624 8.03125L7.01621 8.10625L7.01632 8.10625L7.01624 8.03125ZM6.61292 7.77344L6.57427 7.70916L6.50264 7.75223L6.55318 7.81879L6.61292 7.77344ZM7.01624 7.79004L7.01627 7.71504H7.01624V7.79004ZM6.83167 7.81836L6.80943 7.74673L6.67938 7.7871L6.78301 7.87544L6.83167 7.81836ZM7.01624 7.89941V7.97441L7.01635 7.97441L7.01624 7.89941ZM7.1842 7.81641L7.23801 7.86866L7.32041 7.7838L7.20852 7.74546L7.1842 7.81641ZM7.01624 7.50781L7.0162 7.58281C7.17737 7.58288 7.31804 7.62875 7.43516 7.71945L7.48108 7.66016L7.527 7.60086C7.38125 7.48797 7.20753 7.43289 7.01627 7.43281L7.01624 7.50781ZM7.48108 7.66016L7.43547 7.7197L7.48137 7.75485L7.52698 7.69531L7.57258 7.63577L7.52668 7.60062L7.48108 7.66016ZM7.52698 7.69531L7.48093 7.75451L7.53367 7.79553L7.57971 7.73633L7.62576 7.67713L7.57302 7.63611L7.52698 7.69531ZM7.57971 7.73633L7.5155 7.69758L7.48132 7.75422L7.54553 7.79297L7.60975 7.83172L7.64393 7.77508L7.57971 7.73633ZM7.54553 7.79297L7.48089 7.75494L7.45159 7.80475L7.51624 7.84277L7.58088 7.8808L7.61018 7.831L7.54553 7.79297ZM7.51624 7.84277L7.45186 7.8043C7.33377 8.00191 7.18748 8.10553 7.01618 8.10566L7.01624 8.18066L7.01629 8.25566C7.25988 8.25547 7.44728 8.10437 7.58062 7.88125L7.51624 7.84277ZM7.01624 8.18066L7.01625 8.10566C6.84731 8.10563 6.69018 8.00433 6.54512 7.80968L6.48499 7.85449L6.42485 7.89931C6.58363 8.11238 6.77992 8.25562 7.01622 8.25566L7.01624 8.18066ZM6.48499 7.85449L6.54474 7.80916L6.50177 7.75252L6.44202 7.79785L6.38226 7.84318L6.42523 7.89982L6.48499 7.85449ZM6.44202 7.79785L6.50244 7.75342L6.45361 7.68702L6.39319 7.73145L6.33276 7.77587L6.38159 7.84228L6.44202 7.79785ZM6.39319 7.73145L6.4323 7.79544L6.50261 7.75247L6.4635 7.68848L6.42439 7.62448L6.35408 7.66745L6.39319 7.73145ZM6.4635 7.68848L6.50269 7.75242L6.56324 7.71531L6.52405 7.65137L6.48486 7.58742L6.42431 7.62453L6.4635 7.68848ZM6.52405 7.65137L6.5635 7.71516C6.7054 7.6274 6.85685 7.58283 7.01624 7.58281L7.01624 7.50781L7.01623 7.43281C6.82735 7.43283 6.64879 7.48604 6.4846 7.58758L6.52405 7.65137ZM7.01624 7.63965V7.56465C6.88191 7.56465 6.75358 7.59592 6.63215 7.65653L6.66565 7.72363L6.69915 7.79074C6.80058 7.74011 6.90605 7.71465 7.01624 7.71465V7.63965ZM6.66565 7.72363L6.63211 7.65655L6.54617 7.69952L6.57971 7.7666L6.61325 7.83368L6.69919 7.79071L6.66565 7.72363ZM6.57971 7.7666L6.52298 7.81566L6.58548 7.88793L6.64221 7.83887L6.69894 7.78981L6.63644 7.71754L6.57971 7.7666ZM6.64221 7.83887L6.58527 7.88768C6.70556 8.02797 6.84922 8.1248 7.01624 8.1248V8.0498V7.9748C6.9117 7.9748 6.80591 7.91457 6.69915 7.79005L6.64221 7.83887ZM7.01624 8.0498L7.0163 8.1248C7.18797 8.12466 7.32345 8.02294 7.42644 7.87485L7.36487 7.83203L7.30329 7.78921C7.21581 7.915 7.12033 7.97472 7.01617 7.9748L7.01624 8.0498ZM7.36487 7.83203L7.42657 7.87467L7.47246 7.80827L7.41077 7.76562L7.34907 7.72298L7.30317 7.78939L7.36487 7.83203ZM7.41077 7.76562L7.44935 7.70131L7.38099 7.6603L7.34241 7.72461L7.30382 7.78892L7.37218 7.82994L7.41077 7.76562ZM7.34241 7.72461L7.38103 7.66032C7.27238 7.59505 7.1493 7.5647 7.01626 7.56465L7.01624 7.63965L7.01621 7.71465C7.12586 7.71469 7.22151 7.73948 7.30379 7.7889L7.34241 7.72461ZM7.01624 7.6582L7.0162 7.7332C7.14449 7.73327 7.24992 7.76779 7.33658 7.83254L7.38147 7.77246L7.42636 7.71238C7.31107 7.62622 7.17331 7.58328 7.01627 7.5832L7.01624 7.6582ZM7.38147 7.77246L7.31742 7.73344C7.21564 7.90053 7.11345 7.95614 7.01615 7.95625L7.01624 8.03125L7.01632 8.10625C7.18548 8.10605 7.32859 8.00344 7.44552 7.81148L7.38147 7.77246ZM7.01624 8.03125L7.01626 7.95625C6.91644 7.95622 6.8015 7.89778 6.67265 7.72808L6.61292 7.77344L6.55318 7.81879C6.69575 8.00654 6.84969 8.1062 7.01621 8.10625L7.01624 8.03125ZM6.61292 7.77344L6.65156 7.83771C6.76825 7.76755 6.88935 7.73322 7.01624 7.7332L7.01624 7.6582L7.01623 7.5832C6.86054 7.58322 6.71291 7.6258 6.57427 7.70916L6.61292 7.77344ZM7.01624 7.79004V7.71504C6.94515 7.71504 6.87632 7.72597 6.80943 7.74673L6.83167 7.81836L6.8539 7.88999C6.90696 7.87352 6.96081 7.86504 7.01624 7.86504V7.79004ZM6.83167 7.81836L6.78301 7.87544C6.86088 7.94181 6.93929 7.97441 7.01624 7.97441V7.89941V7.82441C6.98419 7.82441 6.939 7.8113 6.88032 7.76128L6.83167 7.81836ZM7.01624 7.89941L7.01635 7.97441C7.09439 7.97429 7.16866 7.94006 7.23801 7.86866L7.1842 7.81641L7.1304 7.76415C7.08283 7.81314 7.04533 7.82437 7.01612 7.82441L7.01624 7.89941ZM7.1842 7.81641L7.20852 7.74546C7.14994 7.72538 7.08601 7.71507 7.01627 7.71504L7.01624 7.79004L7.0162 7.86504C7.071 7.86506 7.11837 7.87313 7.15989 7.88736L7.1842 7.81641Z" fill="#984111"/>
<path d="M6.33325 6.39844L6.33327 6.32344L6.33322 6.32344L6.33325 6.39844ZM6.60181 6.45312L6.63434 6.38555L6.63426 6.38551L6.60181 6.45312ZM6.74146 6.63379L6.81646 6.63395V6.63379H6.74146ZM6.60181 6.81445L6.63426 6.88207L6.63428 6.88206L6.60181 6.81445ZM6.33325 6.86816L6.33322 6.94316H6.33327L6.33325 6.86816ZM6.06567 6.81445L6.03322 6.88207L6.0333 6.88211L6.06567 6.81445ZM5.92505 6.63379H5.85005L5.85005 6.63395L5.92505 6.63379ZM6.06567 6.45312L6.03325 6.38549L6.03322 6.38551L6.06567 6.45312ZM7.66626 6.39844V6.32344L7.66622 6.32344L7.66626 6.39844ZM7.93481 6.45312L7.9673 6.38553L7.96726 6.38551L7.93481 6.45312ZM8.07446 6.63379L8.14946 6.63395V6.63379H8.07446ZM7.93481 6.81445L7.96724 6.88208L7.96728 6.88206L7.93481 6.81445ZM7.66626 6.86816L7.66622 6.94316H7.66626V6.86816ZM7.39868 6.81445L7.36622 6.88206L7.36627 6.88209L7.39868 6.81445ZM7.25806 6.63379H7.18306L7.18306 6.63395L7.25806 6.63379ZM7.39868 6.45312L7.36625 6.3855L7.36619 6.38553L7.39868 6.45312ZM6.33325 6.54883L6.33327 6.47383L6.33321 6.47383L6.33325 6.54883ZM6.13013 6.58789L6.0977 6.52026L6.09765 6.52029L6.13013 6.58789ZM6.08228 6.62109L6.026 6.57151L6.02568 6.57189L6.08228 6.62109ZM6.07642 6.63086L6.0076 6.60102L6.00734 6.60165L6.07642 6.63086ZM6.07544 6.63379H6.00044V6.64115L6.00187 6.64837L6.07544 6.63379ZM6.07642 6.63672L6.00742 6.66613L6.00781 6.66702L6.07642 6.63672ZM6.08228 6.64648L6.02588 6.69593L6.02625 6.69635L6.08228 6.64648ZM6.13013 6.67871L6.09758 6.74628L6.09774 6.74636L6.13013 6.67871ZM6.33325 6.71875L6.33321 6.79375L6.33328 6.79375L6.33325 6.71875ZM6.53638 6.67871L6.56878 6.74635L6.56885 6.74632L6.53638 6.67871ZM6.58423 6.64648L6.64029 6.6963L6.6405 6.69607L6.58423 6.64648ZM6.59106 6.63672L6.6594 6.66766L6.66006 6.66613L6.59106 6.63672ZM6.59204 6.63379L6.66704 6.64651V6.63379H6.59204ZM6.59106 6.63086L6.66031 6.60205L6.66006 6.60145L6.59106 6.63086ZM6.58423 6.62109L6.64067 6.5717L6.64048 6.57149L6.58423 6.62109ZM6.53638 6.58789L6.5689 6.52031L6.5687 6.52021L6.53638 6.58789ZM7.66626 6.54883V6.47383L7.66621 6.47383L7.66626 6.54883ZM7.46313 6.58789L7.43068 6.52028L7.4306 6.52031L7.46313 6.58789ZM7.41528 6.62109L7.35901 6.57151L7.35839 6.57222L7.41528 6.62109ZM7.40942 6.63086L7.34061 6.60102L7.34024 6.60191L7.40942 6.63086ZM7.40845 6.63379H7.3323L7.33458 6.64676L7.40845 6.63379ZM7.40942 6.63672L7.34042 6.66614L7.34094 6.66731L7.40942 6.63672ZM7.41528 6.64648L7.35889 6.69593L7.35907 6.69613L7.41528 6.64648ZM7.46313 6.67871L7.43058 6.74628L7.43068 6.74633L7.46313 6.67871ZM7.66626 6.71875L7.66621 6.79375H7.66626V6.71875ZM7.86938 6.67871L7.90174 6.74638L7.90184 6.74633L7.86938 6.67871ZM7.91724 6.64648L7.97311 6.69651L7.97351 6.69607L7.91724 6.64648ZM7.92407 6.63672L7.99213 6.66832L7.99306 6.66613L7.92407 6.63672ZM7.92505 6.63379L7.9987 6.64796L8.00005 6.64094V6.63379H7.92505ZM7.92407 6.63086L7.99321 6.60179L7.99306 6.60145L7.92407 6.63086ZM7.91724 6.62109L7.97354 6.57155L7.97349 6.57149L7.91724 6.62109ZM7.86938 6.58789L7.90184 6.52028L7.9017 6.52021L7.86938 6.58789ZM6.33325 6.39844L6.33323 6.47344C6.42503 6.47346 6.50893 6.49174 6.56935 6.52074L6.60181 6.45312L6.63426 6.38551C6.54976 6.34495 6.44284 6.32347 6.33327 6.32344L6.33325 6.39844ZM6.60181 6.45312L6.56928 6.5207C6.62992 6.54989 6.66646 6.59 6.66646 6.63379H6.74146H6.81646C6.81646 6.4989 6.70769 6.42086 6.63434 6.38555L6.60181 6.45312ZM6.74146 6.63379L6.66646 6.63363C6.66636 6.67758 6.62969 6.71785 6.56933 6.74685L6.60181 6.81445L6.63428 6.88206C6.70789 6.8467 6.81617 6.76853 6.81645 6.63395L6.74146 6.63379ZM6.60181 6.81445L6.56935 6.74684C6.50936 6.77564 6.42561 6.79314 6.33323 6.79316L6.33325 6.86816L6.33327 6.94316C6.44225 6.94314 6.54933 6.92283 6.63426 6.88207L6.60181 6.81445ZM6.33325 6.86816L6.33328 6.79316C6.24133 6.79313 6.15812 6.77554 6.09804 6.7468L6.06567 6.81445L6.0333 6.88211C6.11797 6.92262 6.22434 6.94312 6.33322 6.94316L6.33325 6.86816ZM6.06567 6.81445L6.09813 6.74684C6.03716 6.71757 6.00014 6.67724 6.00005 6.63363L5.92505 6.63379L5.85005 6.63395C5.85034 6.76897 5.96016 6.847 6.03322 6.88207L6.06567 6.81445ZM5.92505 6.63379H6.00005C6.00005 6.59021 6.03687 6.55014 6.09813 6.52074L6.06567 6.45312L6.03322 6.38551C5.96027 6.42053 5.85005 6.49835 5.85005 6.63379H5.92505ZM6.06567 6.45312L6.09809 6.52076C6.15858 6.49176 6.24175 6.47348 6.33328 6.47344L6.33325 6.39844L6.33322 6.32344C6.22367 6.32348 6.11758 6.34507 6.03325 6.38549L6.06567 6.45312ZM7.66626 6.39844V6.47344C7.75808 6.47344 7.84189 6.49172 7.90236 6.52074L7.93481 6.45312L7.96726 6.38551C7.88274 6.34494 7.77592 6.32344 7.66626 6.32344V6.39844ZM7.93481 6.45312L7.90233 6.52072C7.96298 6.54987 7.99946 6.58989 7.99946 6.63379H8.07446H8.14946C8.14946 6.4988 8.04078 6.42083 7.9673 6.38553L7.93481 6.45312ZM8.07446 6.63379L7.99946 6.63363C7.99937 6.67762 7.96272 6.71786 7.90235 6.74684L7.93481 6.81445L7.96728 6.88206C8.04092 6.84671 8.14918 6.76856 8.14946 6.63395L8.07446 6.63379ZM7.93481 6.81445L7.90239 6.74682C7.84233 6.77562 7.75857 6.79316 7.66626 6.79316V6.86816V6.94316C7.77528 6.94316 7.88233 6.92279 7.96724 6.88208L7.93481 6.81445ZM7.66626 6.86816L7.6663 6.79316C7.57424 6.79311 7.49111 6.77558 7.43109 6.74682L7.39868 6.81445L7.36627 6.88209C7.45099 6.92269 7.55733 6.9431 7.66622 6.94316L7.66626 6.86816ZM7.39868 6.81445L7.43114 6.74684C7.37017 6.71757 7.33315 6.67723 7.33306 6.63363L7.25806 6.63379L7.18306 6.63395C7.18335 6.76895 7.29318 6.847 7.36622 6.88206L7.39868 6.81445ZM7.25806 6.63379H7.33306C7.33306 6.59029 7.36992 6.55016 7.43117 6.52072L7.39868 6.45312L7.36619 6.38553C7.29333 6.42055 7.18306 6.49843 7.18306 6.63379H7.25806ZM7.39868 6.45312L7.43112 6.52075C7.49155 6.49176 7.57475 6.47349 7.6663 6.47344L7.66626 6.39844L7.66622 6.32344C7.5567 6.3235 7.45058 6.34505 7.36625 6.3855L7.39868 6.45312ZM6.33325 6.54883L6.33321 6.47383C6.2417 6.47387 6.15817 6.49126 6.0977 6.52026L6.13013 6.58789L6.16256 6.65552C6.19822 6.63841 6.25849 6.62387 6.33329 6.62383L6.33325 6.54883ZM6.13013 6.58789L6.09765 6.52029C6.06711 6.53496 6.04262 6.55266 6.026 6.57151L6.08228 6.62109L6.13855 6.67068C6.13827 6.67099 6.13977 6.66927 6.14401 6.66623C6.14809 6.66331 6.15418 6.65954 6.1626 6.65549L6.13013 6.58789ZM6.08228 6.62109L6.02568 6.57189C6.01978 6.57867 6.01543 6.58533 6.01217 6.5914C6.00933 6.59669 6.00691 6.60263 6.00761 6.60102L6.07642 6.63086L6.14522 6.6607C6.14676 6.65717 6.14539 6.66038 6.14433 6.66234C6.14286 6.66509 6.14103 6.66783 6.13888 6.6703L6.08228 6.62109ZM6.07642 6.63086L6.00734 6.60165C6.00623 6.60428 6.00509 6.60724 6.00409 6.61045C6.0036 6.61201 6.00298 6.61415 6.00239 6.61669C6.00226 6.61727 6.00044 6.62455 6.00044 6.63379H6.07544H6.15044C6.15044 6.63944 6.14978 6.64381 6.14954 6.64535C6.1492 6.64746 6.14884 6.64916 6.14859 6.65027C6.14807 6.6525 6.14756 6.65425 6.14722 6.65532C6.14652 6.65755 6.14588 6.65916 6.1455 6.66007L6.07642 6.63086ZM6.07544 6.63379L6.00187 6.64837C6.00319 6.65501 6.00533 6.66122 6.00742 6.66613L6.07642 6.63672L6.14541 6.60731C6.14616 6.60907 6.14673 6.61065 6.14717 6.61204C6.1474 6.61275 6.14766 6.6136 6.14792 6.61458C6.14814 6.61538 6.14858 6.61703 6.14901 6.61921L6.07544 6.63379ZM6.07642 6.63672L6.00781 6.66702C6.00733 6.66594 6.00962 6.67141 6.01237 6.67651C6.01549 6.68226 6.01981 6.689 6.02588 6.69593L6.08228 6.64648L6.13867 6.59704C6.14119 6.59992 6.14304 6.60279 6.14433 6.60517C6.14526 6.60691 6.14639 6.60952 6.14502 6.60641L6.07642 6.63672ZM6.08228 6.64648L6.02625 6.69635C6.04387 6.71615 6.06954 6.73277 6.09758 6.74628L6.13013 6.67871L6.16268 6.61114C6.15367 6.6068 6.14718 6.60295 6.14286 6.59998C6.13826 6.59682 6.1373 6.59549 6.1383 6.59662L6.08228 6.64648ZM6.13013 6.67871L6.09774 6.74636C6.15761 6.77502 6.241 6.7937 6.33321 6.79375L6.33325 6.71875L6.33329 6.64375C6.25937 6.64371 6.19879 6.62843 6.16252 6.61107L6.13013 6.67871ZM6.33325 6.71875L6.33328 6.79375C6.42559 6.79372 6.50888 6.77504 6.56878 6.74635L6.53638 6.67871L6.50398 6.61107C6.46768 6.62846 6.40721 6.64373 6.33323 6.64375L6.33325 6.71875ZM6.53638 6.67871L6.56885 6.74632C6.59715 6.73272 6.62265 6.71615 6.64029 6.6963L6.58423 6.64648L6.52817 6.59666C6.52911 6.5956 6.52815 6.59692 6.52367 6.6C6.51942 6.60291 6.51297 6.60675 6.5039 6.61111L6.53638 6.67871ZM6.58423 6.64648L6.6405 6.69607C6.64759 6.68802 6.65455 6.67834 6.65939 6.66766L6.59106 6.63672L6.52274 6.60578C6.5245 6.6019 6.52608 6.59949 6.52666 6.59863C6.52742 6.59751 6.5279 6.59697 6.52796 6.5969L6.58423 6.64648ZM6.59106 6.63672L6.66006 6.66613C6.66181 6.66201 6.66454 6.65485 6.66599 6.64633L6.59204 6.63379L6.5181 6.62125C6.5186 6.61828 6.51918 6.61603 6.51943 6.61506C6.51976 6.61382 6.52007 6.61279 6.52033 6.61198C6.52085 6.61037 6.52142 6.60883 6.52207 6.60731L6.59106 6.63672ZM6.59204 6.63379H6.66704C6.66704 6.62703 6.66609 6.62179 6.66588 6.62058C6.66549 6.61843 6.66509 6.61668 6.66482 6.61558C6.66427 6.61333 6.6637 6.61143 6.66327 6.61009C6.66238 6.60729 6.66137 6.60459 6.66031 6.60205L6.59106 6.63086L6.52182 6.65967C6.52144 6.65875 6.52091 6.6574 6.52034 6.65561C6.52007 6.65477 6.51962 6.65328 6.51915 6.65135C6.51892 6.65041 6.51854 6.64879 6.51818 6.64675C6.51799 6.64572 6.51775 6.64421 6.51754 6.64237C6.51735 6.64073 6.51704 6.63766 6.51704 6.63379H6.59204ZM6.59106 6.63086L6.66006 6.60145C6.65484 6.5892 6.64701 6.57895 6.64066 6.5717L6.58423 6.62109L6.52779 6.67049C6.528 6.67072 6.52759 6.6703 6.5268 6.66913C6.5263 6.66839 6.52422 6.66531 6.52207 6.66027L6.59106 6.63086ZM6.58423 6.62109L6.64048 6.57149C6.62387 6.55265 6.59926 6.53492 6.5689 6.52031L6.53638 6.58789L6.50385 6.65547C6.51223 6.6595 6.51834 6.66328 6.52248 6.66625C6.5268 6.66934 6.5283 6.67106 6.52798 6.6707L6.58423 6.62109ZM6.53638 6.58789L6.5687 6.52021C6.50832 6.49137 6.42472 6.47386 6.33327 6.47383L6.33325 6.54883L6.33323 6.62383C6.40778 6.62385 6.46825 6.63846 6.50405 6.65557L6.53638 6.58789ZM7.66626 6.54883L7.66621 6.47383C7.57475 6.47389 7.49117 6.49124 7.43068 6.52028L7.46313 6.58789L7.49559 6.6555C7.5312 6.63841 7.59148 6.62388 7.66631 6.62383L7.66626 6.54883ZM7.46313 6.58789L7.4306 6.52031C7.40027 6.53491 7.37564 6.55264 7.35901 6.57151L7.41528 6.62109L7.47155 6.67068C7.47122 6.67106 7.4727 6.66934 7.47702 6.66625C7.48116 6.66329 7.48728 6.65951 7.49567 6.65547L7.46313 6.58789ZM7.41528 6.62109L7.35839 6.57222C7.35267 6.57889 7.34847 6.58538 7.34535 6.59113C7.34248 6.59643 7.34034 6.60164 7.34062 6.60102L7.40942 6.63086L7.47823 6.6607C7.47932 6.65818 7.4783 6.66062 7.47724 6.66258C7.47595 6.66497 7.47427 6.66753 7.47218 6.66996L7.41528 6.62109ZM7.40942 6.63086L7.34024 6.60191C7.33916 6.60449 7.33811 6.60728 7.33718 6.6102C7.33674 6.6116 7.33615 6.61356 7.33559 6.61589C7.33532 6.61703 7.33492 6.6188 7.33454 6.62097C7.33431 6.62231 7.33345 6.62732 7.33345 6.63379H7.40845H7.48345C7.48345 6.63746 7.48317 6.64038 7.48299 6.64202C7.48279 6.64382 7.48256 6.64531 7.48238 6.64636C7.48202 6.64842 7.48165 6.65006 7.48141 6.65104C7.48093 6.65306 7.48046 6.65461 7.48017 6.65552C7.47956 6.65744 7.479 6.65887 7.47861 6.65981L7.40942 6.63086ZM7.40845 6.63379L7.33458 6.64676C7.33601 6.65493 7.33862 6.66189 7.34043 6.66613L7.40942 6.63672L7.47842 6.60731C7.47909 6.60888 7.47965 6.61042 7.48015 6.61197C7.48041 6.61275 7.48071 6.61374 7.48102 6.61492C7.48127 6.61586 7.48182 6.61799 7.48232 6.62082L7.40845 6.63379ZM7.40942 6.63672L7.34094 6.66731C7.34007 6.66534 7.34264 6.67142 7.34527 6.67632C7.34844 6.6822 7.3528 6.68898 7.35889 6.69593L7.41528 6.64648L7.47168 6.59704C7.47415 6.59986 7.47603 6.60275 7.47739 6.60528C7.47822 6.60683 7.47967 6.61009 7.4779 6.60613L7.40942 6.63672ZM7.41528 6.64648L7.35907 6.69613C7.3768 6.71621 7.4026 6.7328 7.43058 6.74628L7.46313 6.67871L7.49569 6.61115C7.48656 6.60675 7.48007 6.60289 7.47578 6.59995C7.47123 6.59683 7.47039 6.59559 7.4715 6.59684L7.41528 6.64648ZM7.46313 6.67871L7.43068 6.74633C7.4906 6.77509 7.57397 6.79368 7.66621 6.79375L7.66626 6.71875L7.66631 6.64375C7.59225 6.6437 7.53176 6.62846 7.49559 6.6111L7.46313 6.67871ZM7.66626 6.71875V6.79375C7.75862 6.79375 7.84187 6.775 7.90173 6.74638L7.86938 6.67871L7.83703 6.61105C7.80063 6.62845 7.74015 6.64375 7.66626 6.64375V6.71875ZM7.86938 6.67871L7.90184 6.74633C7.93024 6.73269 7.95558 6.71609 7.97311 6.69651L7.91724 6.64648L7.86136 6.59646C7.86219 6.59553 7.86111 6.59693 7.8566 6.60003C7.85232 6.60297 7.84589 6.60679 7.83693 6.6111L7.86938 6.67871ZM7.91724 6.64648L7.97351 6.69607C7.98073 6.68787 7.98743 6.67836 7.9921 6.6683L7.92407 6.63672L7.85605 6.60514C7.85768 6.60161 7.8591 6.59945 7.85963 6.59867C7.86032 6.59766 7.86079 6.5971 7.86097 6.5969L7.91724 6.64648ZM7.92407 6.63672L7.99306 6.66613C7.99511 6.66133 7.99735 6.65496 7.9987 6.64796L7.92505 6.63379L7.8514 6.61962C7.85185 6.6173 7.8523 6.61555 7.85253 6.61471C7.85281 6.61368 7.85308 6.61279 7.85332 6.61204C7.85378 6.61059 7.85435 6.60901 7.85508 6.60731L7.92407 6.63672ZM7.92505 6.63379H8.00005C8.00005 6.62419 7.99807 6.61656 7.99801 6.61633C7.99744 6.61388 7.99683 6.61182 7.99636 6.61033C7.99539 6.60726 7.9943 6.60438 7.99321 6.60179L7.92407 6.63086L7.85493 6.65993C7.85456 6.65903 7.85395 6.65751 7.8533 6.65542C7.85298 6.65442 7.85248 6.65276 7.85198 6.65062C7.85173 6.64956 7.85136 6.64788 7.85102 6.64579C7.85079 6.64436 7.85005 6.63976 7.85005 6.63379H7.92505ZM7.92407 6.63086L7.99306 6.60145C7.9879 6.58933 7.98028 6.57921 7.97354 6.57155L7.91724 6.62109L7.86093 6.67064C7.86116 6.6709 7.86067 6.67038 7.85977 6.66905C7.85905 6.66798 7.85709 6.66499 7.85508 6.66027L7.92407 6.63086ZM7.91724 6.62109L7.97349 6.57149C7.95689 6.55267 7.93246 6.53498 7.90184 6.52028L7.86938 6.58789L7.83693 6.6555C7.84536 6.65955 7.85143 6.66331 7.8555 6.66623C7.85971 6.66925 7.86122 6.67097 7.86099 6.6707L7.91724 6.62109ZM7.86938 6.58789L7.9017 6.52021C7.8413 6.49137 7.75782 6.47383 7.66626 6.47383V6.54883V6.62383C7.74083 6.62383 7.8012 6.63845 7.83707 6.65557L7.86938 6.58789Z" fill="#984111"/>
</g>
</g>
</g>
<defs>
<clipPath id="clip0_288_1272">
<rect width="24" height="24" rx="12" fill="white"/>
</clipPath>
<clipPath id="clip1_288_1272">
<rect width="32" height="24" fill="white"/>
</clipPath>
</defs>
</svg>
