<svg width="24" height="24" viewBox="0 0 24 24" fill="none" xmlns="http://www.w3.org/2000/svg">
<g clip-path="url(#clip0_290_570)">
<rect width="24" height="24" rx="12" fill="white"/>
<g clip-path="url(#clip1_290_570)">
<rect width="35" height="24" fill="white"/>
<path fill-rule="evenodd" clip-rule="evenodd" d="M-3 16H34V24H-3V16Z" fill="#14DC5A"/>
<path fill-rule="evenodd" clip-rule="evenodd" d="M-2 0H34V10H-2V0Z" fill="#0099B5"/>
<path d="M36.5 9.5V16.5H-0.5V9.5H36.5Z" fill="#F7FCFF" stroke="#C51918"/>
<path d="M5.00024 5.1377C5.05466 2.23863 8.00327 1.73184 9.00024 2.10938C9.00024 2.10938 6.56041 2.73866 6.51489 5.16211C6.46939 7.58559 8.885 8.24121 8.885 8.24121C7.95601 8.60808 4.94591 8.03663 5.00024 5.1377ZM11.7581 6.0166H12.4758L11.9114 6.5752L12.1829 7.33496L11.428 6.96094L10.7541 7.33496L10.9465 6.5752L10.302 6.0166H11.1438L11.427 5.29785L11.7581 6.0166ZM14.9368 6.0166H15.6545L15.0901 6.5752L15.3616 7.33496L14.6057 6.96094L13.9329 7.33496L14.1252 6.5752L13.4807 6.0166H14.3225L14.6047 5.29785L14.9368 6.0166ZM17.9163 6.0166H18.634L18.0706 6.5752L18.3411 7.33496L17.5862 6.96094L16.9133 7.33496L17.1057 6.5752L16.4602 6.0166H17.303L17.5852 5.29785L17.9163 6.0166ZM20.9153 6.0166H21.6331L21.0696 6.5752L21.3411 7.33496L20.5852 6.96094L19.9123 7.33496L20.1047 6.5752L19.4602 6.0166H20.302L20.5842 5.29785L20.9153 6.0166ZM23.9456 6.0166H24.6633L24.0998 6.5752L24.3713 7.33496L23.6155 6.96094L22.9426 7.33496L23.135 6.5752L22.4905 6.0166H23.3323L23.6145 5.29785L23.9456 6.0166ZM14.9368 3.97852H15.6545L15.0901 4.53711L15.3616 5.29785L14.6057 4.92383L13.9329 5.29785L14.1252 4.53711L13.4807 3.97852H14.3225L14.6047 3.25977L14.9368 3.97852ZM17.9163 3.97852H18.634L18.0706 4.53711L18.3411 5.29785L17.5862 4.92383L16.9133 5.29785L17.1057 4.53711L16.4602 3.97852H17.303L17.5852 3.25977L17.9163 3.97852ZM20.9153 3.97852H21.6331L21.0696 4.53711L21.3411 5.29785L20.5852 4.92383L19.9123 5.29785L20.1047 4.53711L19.4602 3.97852H20.302L20.5842 3.25977L20.9153 3.97852ZM23.9456 3.97852H24.6633L24.0998 4.53711L24.3713 5.29785L23.6155 4.92383L22.9426 5.29785L23.135 4.53711L22.4905 3.97852H23.3323L23.6145 3.25977L23.9456 3.97852ZM17.8713 2.0625H18.5891L18.0256 2.62012L18.2961 3.38086L17.5413 3.00684L16.8684 3.38086L17.0608 2.62012L16.4153 2.0625H17.2581L17.5403 1.34277L17.8713 2.0625ZM20.8704 2.0625H21.5881L21.0247 2.62012L21.2961 3.38086L20.5403 3.00684L19.8674 3.38086L20.0598 2.62012L19.4153 2.0625H20.2571L20.5393 1.34277L20.8704 2.0625ZM23.9006 2.0625H24.6184L24.0549 2.62012L24.3264 3.38086L23.5706 3.00684L22.8977 3.38086L23.0901 2.62012L22.4456 2.0625H23.2873L23.5696 1.34277L23.9006 2.0625Z" fill="#F7FCFF"/>
</g>
</g>
<defs>
<clipPath id="clip0_290_570">
<rect width="24" height="24" rx="12" fill="white"/>
</clipPath>
<clipPath id="clip1_290_570">
<rect width="35" height="24" fill="white"/>
</clipPath>
</defs>
</svg>
